<svg id="Layer_1" data-name="Layer 1" xmlns="http://www.w3.org/2000/svg" viewBox="0 0 100 100"><defs><style>.cls-1{fill:#040b8a;}.cls-2{fill:#fff;}</style></defs><path class="cls-1" d="M93.9,89A199.6,199.6,0,0,1,2.4,58.4L31.5,11A143.8,143.8,0,0,0,97.6,33.5Z"/><path class="cls-2" d="M54.1,62.5c-.3,2-.7,4.1-.8,6.1s.7,1.1,1.3,1.5,1.7.7,2.4,1.2a2.8,2.8,0,0,1-1.6,5.4,14,14,0,0,1-5-1.6,28.7,28.7,0,0,1-4.9-3.7,6.7,6.7,0,0,0-2.7-1.6l2.7,2.9c-2.7.6-7.9-.7-9.6-2.7a4.1,4.1,0,0,1-.8-3c.3-.7,1.5-1.3,2.4-1.7a4.5,4.5,0,0,1,2.3.1c2.4,1,3.6-.1,4.5-2.1a8.9,8.9,0,0,0,.9-3.8l-1,1.8a5.9,5.9,0,0,1-6.6,3.1A1.9,1.9,0,0,1,36.4,63c.1-.5.9-1.3,1.4-1.2,2.7.1,3.7-1.7,4.2-3.7,1.4-5.6,5-5.7,9.2-4.7a17.6,17.6,0,0,1,3,1c4.7,2.3,5.5,4.4,4.1,8.6-.7,2.2-1.2,4.3,1.3,5.8.4.2.2,1.2.3,1.9s-1.5.4-2.1.1a5.5,5.5,0,0,1-3.2-6.2,12.3,12.3,0,0,0,.2-1.9Z"/><path class="cls-2" d="M55.5,53.9a19.6,19.6,0,0,0,7.4-10.2,1.8,1.8,0,0,1,1.2-1l6.4-1a14.8,14.8,0,0,1-4.7,11.4,1,1,0,0,1-.5.4,22.5,22.5,0,0,1-4.7,2.8C58.3,57.2,58,54,55.5,53.9Z"/><path class="cls-2" d="M49.6,51.3l-4.2.5a1.4,1.4,0,0,1-1-.5c-3.8-3.9-3.7-13.3.5-17.7,1.5,1.5,3.1,2.9,4.5,4.5a1.9,1.9,0,0,1,.2,1.8C48.4,44.8,48.3,46.1,49.6,51.3Z"/><path class="cls-2" d="M59.5,31.7c2.9,4.4,2.9,11.2.1,14.8-2.7-4.2-4.5-4.8-8.8-2.9C50.5,39.2,54.6,33.7,59.5,31.7Z"/><path class="cls-2" d="M70,50.7,75.2,54c-2.3,4.6-9.5,7.1-14,6.1-.3,0-.7-.6-.8-1a1.2,1.2,0,0,1,.7-1A19.3,19.3,0,0,0,70,50.7Z"/><path class="cls-2" d="M33.6,40.6l6.2.4a19.1,19.1,0,0,0,3,11.1c.2.3,0,1-.2,1.4a1.8,1.8,0,0,1-1.3.2C37.2,52.3,33.1,45.6,33.6,40.6Z"/><path class="cls-2" d="M57.9,49.8a4.1,4.1,0,0,1-5.3,2.6,4.3,4.3,0,0,1,3-8.1A4.2,4.2,0,0,1,57.9,49.8Z"/><path class="cls-2" d="M36.7,34.2l3.1,4.6-.8.6-3-4.7Z"/><path class="cls-2" d="M76.7,47.9l-5.1,1.9-.3-.6c1.5-1.3,3.4-1.6,5.1-2.2Z"/><path class="cls-2" d="M50.2,35c-.1-1.6-.1-3.3-.2-4.9h.9c0,1.7.1,3.3.1,5Z"/><path class="cls-2" d="M68,35.9l-3,3.9-.7-.5,2.9-4Z"/><path class="cls-2" d="M33.3,19.5a1.2,1.2,0,0,1-.6-.6,1.1,1.1,0,0,1-.1-.8,2.3,2.3,0,0,1,.3-1.1l.3-.5.4-.4.3-.3.8.4-.6.6-.5.6a.8.8,0,0,0-.2.6c-.1.2,0,.3,0,.4s.2.2.3.3h.4l.5-.2.6-.4.5-.4.5-.2h.5l.6.2c.3.1.4.3.6.5a2.5,2.5,0,0,1,.1.8,1.9,1.9,0,0,1-.3,1l-.5.6-.6.6-.5-.6.6-.5.3-.5c.1-.2.2-.3.2-.5a.6.6,0,0,0-.1-.4.2.2,0,0,0-.2-.2c-.2-.1-.3-.2-.5-.1H36l-.6.5-.7.4a.8.8,0,0,1-.7.2A1.1,1.1,0,0,1,33.3,19.5Z"/><path class="cls-2" d="M35.5,23.8a1.9,1.9,0,0,1-1.1,1.1,1.5,1.5,0,0,1-1.3-.1l-.5-.4a2.1,2.1,0,0,1-.4-.6V23a6.9,6.9,0,0,1,.4-1l.3-.5-1.8-1,.4-.8,4.8,2.7Zm-.6-.4.3-.6-1.7-.9-.2.4L33,23a.7.7,0,0,0,.1.5l.4.5a1.1,1.1,0,0,0,.8,0C34.5,24,34.7,23.7,34.9,23.4Z"/><path class="cls-2" d="M29.2,23.9,34,26.5l-.4.8-4.8-2.6Z"/><path class="cls-2" d="M32.1,29.9a2,2,0,0,1-.7,1,1.1,1.1,0,0,1-.8.3,1,1,0,0,1-.9-.2l-.5-.5A.8.8,0,0,1,29,30a.6.6,0,0,1,0-.6H26.1l.5-.8h2.5l.5-.8-2-1.1.5-.8,4.8,2.7Zm-.6-.4.3-.5-1.6-.9-.3.6c-.2.4-.3.7-.2.9s.2.4.5.6.5.2.7,0A1.4,1.4,0,0,0,31.5,29.5Z"/><path class="cls-2" d="M25.7,30.2l4.8,2.7-.4.8L25.3,31Z"/><path class="cls-2" d="M23.6,34l.5-.8,4.1,2.3L29,34l.7.4-2,3.6-.7-.3.8-1.5Z"/><path class="cls-2" d="M25.2,42.5l-3.1-1.7a1.9,1.9,0,0,1-.8-.7,1.7,1.7,0,0,1-.3-1,1.9,1.9,0,0,1,.4-1.2,1.9,1.9,0,0,1,2.8-.9l3.1,1.7-.4.8-3.1-1.7a1.3,1.3,0,0,0-1-.2,1.3,1.3,0,0,0-.8.7,2.5,2.5,0,0,0-.2.7,1.4,1.4,0,0,0,.2.6c.1.2.3.3.6.5l3,1.6Z"/><path class="cls-2" d="M18,44.1l1.6.3,1.1-1.9-1.1-1.2.4-.8,3.9,4.4-.5.9-5.8-.9Zm2.4.4,1.6.3h1l-.3-.2c-.1-.1-.2-.2-.2-.3l-.2-.2-1.1-1.2Z"/><path class="cls-2" d="M17.2,45.6,22,48.2l-.4.8-4.1-2.3-1.2,2.1-.6-.4Z"/><path class="cls-2" d="M15.2,49.2,20,51.9l-.4.8L14.8,50Z"/><path class="cls-2" d="M13.1,52.9l.5-.8,4.1,2.3.8-1.4.7.4-2,3.6-.7-.4.8-1.4Z"/><path class="cls-2" d="M13.8,57.9l1.6,2.3-.5.9-2-3.2L11,56.8l.4-.8,1.9,1.1h3.8l-.5.9Z"/></svg>