<svg id="Layer_1" data-name="Layer 1" xmlns="http://www.w3.org/2000/svg" viewBox="0 0 100 100"><defs><style>.cls-1{fill:#b80259;}.cls-2{fill:#f7f7f7;}.cls-3{fill:#fff;}</style></defs><path class="cls-1" d="M71.5,94.7,11.9,98a213.4,213.4,0,0,1,22-96L88.1,26.8A153.5,153.5,0,0,0,71.5,94.7Z"/><path class="cls-2" d="M29.1,47.9a1.3,1.3,0,0,1,1.6-.6h.8c0-.4.1-.7.1-1.1a1.7,1.7,0,0,1,2-1.5l1.6.2c0-.1.1-.2.1-.3s.1-1.1.2-1.7a1.6,1.6,0,0,1,1.8-1.2l1.3.2A1.6,1.6,0,0,1,40,43.6a1.7,1.7,0,0,1-.1.7c-.1,1.3-.3,2.7-.5,4l13.5,1.8c0-.1.1-.3.1-.4s.3-2.6.5-3.9a1.7,1.7,0,0,1,2.1-1.7h.9A1.8,1.8,0,0,1,58,46.3a10,10,0,0,1-.2,1.6l1.6.2a1.7,1.7,0,0,1,1.6,2,3.1,3.1,0,0,0-.1,1h.8A1.3,1.3,0,0,1,63,52.3l-.2,1.6c-.4.6-.9.9-1.5.7h-.9c0,.4-.1.7-.1,1.1a1.8,1.8,0,0,1-2,1.5l-1.6-.2a7.8,7.8,0,0,0-.2,1.6,1.9,1.9,0,0,1-.9,1.4l-.7.2-1.8-.2A1.9,1.9,0,0,1,52,57.6c.2-1.3.3-2.5.5-3.7v-.4L39,51.8v.4c-.2,1.3-.3,2.6-.5,3.9a1.6,1.6,0,0,1-1.1,1.5l-.5.2L35,57.6a1.9,1.9,0,0,1-1.1-2.3c.1-.5.1-.9.2-1.3l-1.5-.2a1.7,1.7,0,0,1-1.7-2.1c.1-.3.1-.6.2-1h-.9a1.2,1.2,0,0,1-1.3-1Z"/><path class="cls-1" d="M54.4,47.4v.4c-.4,3.4-.9,6.7-1.3,10.1v.2c-.1.4.1.6.5.7h1c.4.1.7-.1.7-.6l1.2-8.9a1.7,1.7,0,0,0-1-1.8Z"/><path class="cls-1" d="M36.4,45.2v.3c-.4,3.4-.8,6.7-1.3,10.1v.2a.7.7,0,0,0,.5.7h.9c.6.1.8-.1.9-.7.4-2.9.7-5.8,1.1-8.7A1.7,1.7,0,0,0,36.4,45.2Z"/><path class="cls-1" d="M52.8,51.2,39.3,49.5l-.2,1.1,13.5,1.7Z"/><path class="cls-1" d="M32.5,48.1c-.1,1.3-.3,2.6-.5,3.9a.7.7,0,0,0,.6.7h.9c.5,0,.7-.1.8-.6l.3-2.1A1.8,1.8,0,0,0,32.5,48.1Z"/><path class="cls-1" d="M57.4,51.3h0c-.2,1.3-.3,2.6-.5,3.9s.1.6.5.6l.9.2c.6,0,.8-.1.9-.7s.1-1.3.2-2A1.7,1.7,0,0,0,57.4,51.3Z"/><path class="cls-1" d="M36.5,44a3.5,3.5,0,0,1,2.2.8,4.5,4.5,0,0,0,.1-1.1c.1-.4-.1-.6-.5-.6l-1-.2a.7.7,0,0,0-.7.5C36.6,43.6,36.5,43.8,36.5,44Z"/><path class="cls-1" d="M54.6,46.3a3.7,3.7,0,0,1,2.2.8c0-.4.1-.8.1-1.2a.5.5,0,0,0-.4-.5l-1.2-.2a.6.6,0,0,0-.6.5A1.3,1.3,0,0,0,54.6,46.3Z"/><path class="cls-1" d="M59.7,51c.1-.5.1-.8.2-1.2a.6.6,0,0,0-.5-.6H58.2a.4.4,0,0,0-.5.3,1.7,1.7,0,0,0-.1.7A3.3,3.3,0,0,1,59.7,51Z"/><path class="cls-1" d="M32.7,46.9a3.5,3.5,0,0,1,1.1.3l1.1.5c0-.3.1-.7.1-1s-.1-.6-.5-.7H33.4c-.3,0-.6.1-.6.5A.7.7,0,0,0,32.7,46.9Z"/><path class="cls-1" d="M31.2,49.6V48.5H30.2v1.1Z"/><path class="cls-1" d="M60.7,52.3v1l1.1.2V52.4Z"/><path class="cls-2" d="M42.3,25.2a5.9,5.9,0,0,1,3.6,2l1.9,2.6a1.1,1.1,0,0,0,1.7.2l2.3-1.8a5.6,5.6,0,0,1,9.1,4.2,5.8,5.8,0,0,1-2.3,4.7L51.1,43l-4.2,3.2c-.3.3-.4.3-.7,0L37.1,34.3a5.7,5.7,0,0,1,3-8.9A5.3,5.3,0,0,1,42.3,25.2Z"/><path class="cls-1" d="M46.4,35.2c.1.6.3,1.3.4,2a.9.9,0,0,0,.6.6.8.8,0,0,0,1.1-.5l.7-1.6.3.8a.7.7,0,0,0,.7.6l3.2.4.5-.2c.3-.3.1-.8-.4-.9l-2.4-.3a.7.7,0,0,1-.8-.6,2.5,2.5,0,0,0-.2-.7.8.8,0,0,0-.8-.7c-.5-.1-.7.2-.9.7l-.6,1.3a20.9,20.9,0,0,1-.5-2.1c-.2-.6-.4-.8-.8-.9a1.1,1.1,0,0,0-1,.7,7.5,7.5,0,0,1-.7,1.2c-.1.2-.2.3-.4.2l-2-.2a.6.6,0,0,0-.8.5q0,.4.6.6l2.4.3a.9.9,0,0,0,1.1-.5"/><path class="cls-3" d="M27.9,77.8H26.5V74h-4V78H21.1l-.2-8.6h1.4v3.5h3.9V69.3h1.4Z"/><path class="cls-3" d="M35,77.6l-4.9.2-.2-8.6h4.8v1.2H31.3v2.3h3.2v1.2H31.4v2.6h3.4Z"/><path class="cls-3" d="M42.1,77.4l-.9-2.3H37.9l-.7,2.4H35.7l2.9-8.7h1.6l3.4,8.5Zm-1.3-3.5-.9-2.4a.8.8,0,0,0-.1-.4l-.2-.5c-.1-.2-.1-.4-.2-.5a1.1,1.1,0,0,1-.1.5c0,.2-.1.4-.1.6a.6.6,0,0,0-.1.4l-.8,2.3Z"/><path class="cls-3" d="M44.8,77.3l-.3-8.5h1.4l.2,7.4h3.7v1.2Z"/><path class="cls-3" d="M54.2,77H52.8l-.2-7.4H50.1V68.6l6.4-.2v1.2H54Z"/><path class="cls-3" d="M64.8,76.7H63.4V72.9h-4l.2,3.9H58l-.2-8.5h1.4v3.5h3.9V68.2h1.4Z"/><path class="cls-3" d="M23,92.4H21.6l-.3-8.5,4.8-.2v1.2H22.7v2.7H26v1.2H22.8Z"/><path class="cls-3" d="M28,92.2l-.3-8.5h1.4l.3,8.6Z"/><path class="cls-3" d="M34.6,92H33.2l-.3-7.4H30.4V83.6l6.4-.2v1.2H34.4Z"/><path class="cls-3" d="M45.5,91.7H43.8l-4.4-6.7h-.1a1.5,1.5,0,0,1,.1.7c0,.3.1.5.1.8v.8l.2,4.5H38.4l-.3-8.5h1.7L44.2,90h.1c0-.2-.1-.5-.1-.7v-.8a2.5,2.5,0,0,1-.1-.8V83.2h1.3Z"/><path class="cls-3" d="M52.6,91.5H47.8l-.3-8.5,4.9-.2v1.2H49v2.3h3.3v1.2H49.1v2.7h3.5Z"/><path class="cls-3" d="M59.3,89a1.9,1.9,0,0,1-.3,1.3c-.2.4-.6.6-1,.9a4.3,4.3,0,0,1-1.7.3h-.9l-.8-.2-.7-.2V89.8l1.2.4h1.3l.9-.2a1,1,0,0,0,.5-.4,1.4,1.4,0,0,0,.2-.6c-.1-.3-.1-.5-.3-.6a1,1,0,0,0-.6-.5L56,87.5l-.8-.3-.7-.5L54,86a2.4,2.4,0,0,1-.2-.9,2.8,2.8,0,0,1,.3-1.3,3.9,3.9,0,0,1,1-.8,3.3,3.3,0,0,1,1.5-.3h1.3l1.1.3-.4,1.2-1-.3H55.8c-.2.1-.3.3-.4.4a1.4,1.4,0,0,0-.2.6.8.8,0,0,0,.2.6l.6.5,1,.4,1.3.6a1.6,1.6,0,0,1,.7.7A2.1,2.1,0,0,1,59.3,89Z"/><path class="cls-3" d="M65.9,88.8a2.8,2.8,0,0,1-.3,1.3c-.2.4-.6.6-1,.9a4.3,4.3,0,0,1-1.7.3H62l-.8-.2-.7-.2V89.6l1.1.4H63l.9-.2a1,1,0,0,0,.5-.4.7.7,0,0,0,.1-.6.8.8,0,0,0-.2-.7l-.6-.4-1.1-.5-.8-.3-.7-.5-.5-.7a2.9,2.9,0,0,1-.2-.9,2.8,2.8,0,0,1,.3-1.3,3.9,3.9,0,0,1,1-.8,3.3,3.3,0,0,1,1.5-.3h1.3l1.1.3-.4,1.2-1-.3H62.4l-.4.4a1.4,1.4,0,0,0-.2.6.8.8,0,0,0,.2.6l.6.5,1,.4,1.3.6a2.3,2.3,0,0,1,.7.7A2.1,2.1,0,0,1,65.9,88.8Z"/></svg>