<svg id="Layer_1" data-name="Layer 1" xmlns="http://www.w3.org/2000/svg" viewBox="0 0 100 100"><defs><style>.cls-1{fill:#fe8f00;}.cls-2{fill:#fff;}</style></defs><path class="cls-1" d="M80.2,83.4a159.5,159.5,0,0,0-68.3-4L1.3,19.5a219,219,0,0,1,97.4,5.9Z"/><path class="cls-2" d="M57.2,54.8a2.2,2.2,0,0,0-2.7.8,4.9,4.9,0,0,1-1.9,1.6,2.6,2.6,0,0,0-3.7-.8,3.4,3.4,0,0,0-3.5-1.7,3.3,3.3,0,0,0-2.8,2.6,5.9,5.9,0,0,1-3.9-1.5A16.5,16.5,0,1,1,64.3,43.6a17,17,0,0,1-3,8.1c-.2.2-.3.4-.7.4a3.2,3.2,0,0,0-3.3,2.2C57.3,54.5,57.2,54.6,57.2,54.8ZM35.4,38.4a12.3,12.3,0,1,0,22.7-5.8,11.9,11.9,0,0,0-11-5.7,10.4,10.4,0,0,1-.6,20.7A10.5,10.5,0,0,1,35.4,38.4Zm17.4-5.5c-.2.8-.4,1.5-1.4,1.5a5.3,5.3,0,0,1,1,.6,4.2,4.2,0,0,1,.4,1,2.1,2.1,0,0,1,1.4-1.6C53.2,34.4,53,33.7,52.8,32.9ZM48,44a1.8,1.8,0,0,1,1.3,1.5c.2-.7.4-1.3,1.2-1.5-.9,0-1-.7-1.3-1.4S48.9,44,48,44ZM44.1,29.6a.8.8,0,0,0-.8-.7c-.4-.1-.7.3-.7.7a.8.8,0,0,0,.7.8C43.7,30.4,44,30,44.1,29.6Zm-4.8,8.5a1.8,1.8,0,0,1,1.2,1.3,1.2,1.2,0,0,1,1.1-1.2c-.8-.4-.8-.4-1.2-1.3C40.3,37.6,40.1,38.1,39.3,38.1Zm5.2,6.2V44c-.2-.2-.4-.5-.6-.5a.5.5,0,0,0-.7.5c0,.2.3.6.5.6S44.2,44.4,44.5,44.3ZM48,36.1c-.2.2-.4.4-.4.5l.4.4c.2-.1.4-.3.4-.4S48.2,36.3,48,36.1Z"/><path class="cls-2" d="M28.3,34.2c0,.2,0,.2.1.3a3.3,3.3,0,0,0,.4,1.4c.3.3.9.3,1.5.5a2.4,2.4,0,0,0-2,2.3c-.3-1.2-.8-2-2-2.2s0-.2.1-.2,1.6-.6,1.7-1.7S28.2,34.4,28.3,34.2Z"/><path class="cls-2" d="M34.4,27.3a1.7,1.7,0,0,0-1.3,1.4c-.2-.7-.4-1.3-1.3-1.4a1.3,1.3,0,0,0,1.3-1.4C33.3,26.6,33.4,27.3,34.4,27.3Z"/><path class="cls-2" d="M57.2,24.5a.8.8,0,0,1-.8.7.6.6,0,0,1-.6-.7.6.6,0,0,1,.7-.7C56.9,23.8,57.1,24.1,57.2,24.5Z"/><path class="cls-2" d="M30.9,66.8a5.4,5.4,0,0,1-.7,2.7A3.4,3.4,0,0,1,28.4,71a7.9,7.9,0,0,1-2.8.4L23,71.2l.5-9.4h2.9a6.1,6.1,0,0,1,2.5.7,4.1,4.1,0,0,1,1.6,1.6A4.5,4.5,0,0,1,30.9,66.8Zm-1.6,0a3.7,3.7,0,0,0-.2-1.9A2.2,2.2,0,0,0,28,63.7a3.8,3.8,0,0,0-1.7-.5H25L24.6,70h1.1a3.4,3.4,0,0,0,2.6-.8A3.2,3.2,0,0,0,29.3,66.8Z"/><path class="cls-2" d="M35.9,62.4l2,.4a4,4,0,0,1,1.2,1,3.8,3.8,0,0,1,.3,1.6,3.4,3.4,0,0,1-.4,1.2,1.8,1.8,0,0,1-.7.8l-.9.4,2.5,4.4H38.1l-2.1-4H34.5l-.2,3.8H32.7l.5-9.5Zm-.2,1.3h-1v3.1h1a1.9,1.9,0,0,0,1.6-.3c.4-.2.5-.6.6-1.1s-.1-1-.5-1.2A2.7,2.7,0,0,0,35.7,63.7Z"/><path class="cls-2" d="M46.6,72.5l-5.4-.3.5-9.4,5.4.2v1.4l-3.8-.3v2.6l3.5.2v1.3L43,68l-.2,3,3.9.2Z"/><path class="cls-2" d="M54.5,73l-.8-2.7-3.6-.2L49,72.7H47.4l4-9.4h1.8l3,9.8Zm-1.1-4.1-.8-2.6a1.1,1.1,0,0,0-.1-.5l-.2-.6a3.5,3.5,0,0,0-.1-.6,1.4,1.4,0,0,1-.2.6l-.2.6-.2.4-1,2.6Z"/><path class="cls-2" d="M61.5,73.3l-2.3-8h-.1V68l-.3,5.2H57.4l.5-9.5,2.2.2,2.2,7.7h.1L65.5,64l2.2.2-.5,9.5H65.7l.3-5.3v-.9a3.8,3.8,0,0,0,.1-1c0-.3.1-.5.1-.7h-.1l-3.2,7.7Z"/></svg>