<svg id="Layer_1" data-name="Layer 1" xmlns="http://www.w3.org/2000/svg" viewBox="0 0 100 100"><defs><style>.cls-1{fill:#0076b4;}.cls-2{fill:#fff;}</style></defs><path class="cls-1" d="M98,66.7A204.5,204.5,0,0,1,2,84.2l3.7-56A147.4,147.4,0,0,0,75.3,15.4Z"/><path class="cls-2" d="M28.9,71.8a1.7,1.7,0,0,0-.1-.7L24.9,50.8c-.1-.3-.1-.5-.2-.6l11.9-2.3.4,2.7,8.2-1.5A18.2,18.2,0,0,1,48,35.3a17.9,17.9,0,0,1,8.6-7A18.5,18.5,0,0,1,78,34.1a18,18,0,0,1,3.9,13,18.5,18.5,0,0,1-5.8,12.2c.6.8,1.4,1.5,1.9,2.3A5.4,5.4,0,0,1,75,69l-1.4.3L60.1,71.9a10.9,10.9,0,0,1-8.9-1.8l-7.9-5.3a1.2,1.2,0,0,0-1-.2l-2.4.4.9,4.5h-.7L29.6,71.7h-.7ZM58.2,45.4,60.7,47c.2.2.4.3.3.7a.9.9,0,0,0,.6,1,.8.8,0,0,0,1.1-.4.8.8,0,0,0-.1-1.1l-.5-.5a4.1,4.1,0,0,1-1.4-4.5A4,4,0,0,1,64.3,39c1-.1,1.9,0,2.2-1.2l3,2-.5.6a.9.9,0,0,0-.1,1.1,3.4,3.4,0,0,1,.4,2.6,18.9,18.9,0,0,1-.6,1.8l-2.4-1.6c-.3-.2-.6-.4-.5-.8s-.1-.8-.5-1a.9.9,0,0,0-1.1.3.9.9,0,0,0,0,1.2l.6.4A4.5,4.5,0,0,1,65,51a4.2,4.2,0,0,1-3.5,1.2c-.6-.1-.7.5-.9.8s.2.4.4.6l1.8,1.2a5.5,5.5,0,0,1,2.5,3.5c.1.6.1,1.2.2,1.8l2.9-.6a4.7,4.7,0,0,0,1.7-.4,14.6,14.6,0,0,0,8.2-11,14.8,14.8,0,0,0-4.7-13.6,15,15,0,0,0-16.3-2.7,14.7,14.7,0,0,0-8.8,12.1,10.2,10.2,0,0,0,.2,4.6,12.2,12.2,0,0,1,8.8,2.7c.7-.8.7-.8.3-1.7A4.6,4.6,0,0,1,58.2,45.4ZM50.1,59,52,56.1l.6.4,6.1,4.1.7.4a1.9,1.9,0,0,0,2.2-.5,1.8,1.8,0,0,0,0-2.1l-.6-.6c-2.3-1.5-4.6-3-6.8-4.6a7.4,7.4,0,0,0-5.8-1.1l-10.1,2h-.4l1.4,7.4,3.7-.7a1.5,1.5,0,0,1,1.1.2l9.1,6.2A7.5,7.5,0,0,0,59,68.6l14.5-2.8A1.8,1.8,0,0,0,75,63.7a1.9,1.9,0,0,0-2.2-1.5L61.2,64.5a4.6,4.6,0,0,1-3.6-.5l-7.3-4.8A.2.2,0,0,0,50.1,59ZM29,52.9l2.8,14.6,4.7-.9L33.7,52Z"/><path class="cls-2" d="M11.3,34.6V33.3l8.1.4-.3,4.5H18.1l.2-3.2-2.5-.2-.2,3.1H14.5l.2-3Z"/><path class="cls-2" d="M11.1,39.3l8.1.4V41L11,40.6Z"/><path class="cls-2" d="M10.6,49.5V47.9l6.6-3.7H15.1L10.9,44V42.8l8.1.4v1.6l-6.6,3.6h2.2l4.2.2v1.2Z"/><path class="cls-2" d="M10.3,56.6l2.2-.7.2-3.1-2.2-.9V50.5l7.9,3.4v1.5L10.2,58Zm3.4-1,2.2-.6h.4l.6-.2h0l-.6-.2-.3-.2-2.2-.8Z"/><path class="cls-2" d="M9.8,65.8V64.2l6.6-3.7H14.3l-4.2-.2V59.1l8.1.4v1.6l-6.6,3.6h2.2l4.2.2v1.2Z"/><path class="cls-2" d="M16.6,71.7a1.6,1.6,0,0,0-.2-1,1.6,1.6,0,0,0-.5-.8,3.3,3.3,0,0,0-1-.6l-1.2-.2a3.9,3.9,0,0,0-1.6.2A1.8,1.8,0,0,0,11,70a2.1,2.1,0,0,0-.4,1.4,3.4,3.4,0,0,0,0,1c.1.3.1.7.2,1H9.7a4.3,4.3,0,0,1-.2-1.1,3.7,3.7,0,0,1-.1-1.1,4,4,0,0,1,.7-2A2.6,2.6,0,0,1,11.6,68a6.9,6.9,0,0,1,2.2-.3l1.6.4a3.5,3.5,0,0,1,1.3.8,3.6,3.6,0,0,1,.8,1.2,4.4,4.4,0,0,1,.2,1.7,6.8,6.8,0,0,1-.6,2.2L16,73.5a3.6,3.6,0,0,0,.4-.9A2.9,2.9,0,0,0,16.6,71.7Z"/><path class="cls-2" d="M9.1,79.6l.3-4.5,8,.4L17.2,80H16.1V76.7H14.1l-.2,3.1H12.8v-3H10.4v3.2Z"/></svg>