<svg id="Layer_1" data-name="Layer 1" xmlns="http://www.w3.org/2000/svg" viewBox="0 0 100 100"><defs><style>.cls-1{fill:#f6ca17;}.cls-2{fill:#fff;}</style></defs><path class="cls-1" d="M98,53.1,57.8,92.8A156.9,156.9,0,0,0,41,79.7,148.7,148.7,0,0,0,2,61L19.1,7.2A201,201,0,0,1,72.6,32.9,201.1,201.1,0,0,1,98,53.1Z"/><path class="cls-2" d="M40.1,60.5l-.9-18.8a12.3,12.3,0,0,1,9.9-12.8,11.5,11.5,0,0,1,6.1.5h.5l2.4,1.3L59.5,32a12,12,0,0,1-.4,17.6,23.5,23.5,0,0,1-3.2,2.3l-15,8.8c-.1,0-.1.1-.2.2Zm1.1-1.3.5-.3,14.1-8.2,2.6-2a10.1,10.1,0,0,0,3.2-10.8A10,10,0,0,0,54,30.2,11,11,0,0,0,40.3,41.5c.2,5.7.5,11.4.8,17.2A1.1,1.1,0,0,0,41.2,59.2Z"/><path class="cls-2" d="M58.8,44.3a8.2,8.2,0,0,1-4.7,4.1c-.3.1-1,0-1.1-.2s.3-.7.7-.9a7.2,7.2,0,0,0,5-6.9,7.3,7.3,0,0,0-4.8-6.8,7.2,7.2,0,0,0-8.3,2.3,7.3,7.3,0,0,0,3.3,11.4h.2l.6.7c-.3.1-.7.4-.9.3A9.4,9.4,0,0,1,46,46.9a8.4,8.4,0,1,1,13.3-3.7Z"/><path class="cls-2" d="M54.7,41.4a3.1,3.1,0,0,1-2,2l-1.5.7c-2.2,1.1-3.6.4-4.1-2h-.6a1.6,1.6,0,0,1-1.4-1.5,1.6,1.6,0,0,1,1.2-1.7l2.9-.6h.1c1.5-1,2.9,0,4.3.3s2-1.4,3.1-.8a2,2,0,0,1,.8,2.4C57.1,41.2,56.3,41.6,54.7,41.4ZM48,40.5c.1.4.1.7.2,1a2.8,2.8,0,0,0,.1.9,1.2,1.2,0,0,0,1.8,1L53,42a1.2,1.2,0,0,0,.5-1.7,3.9,3.9,0,0,0-2.8-1.5l-.5.4a1.1,1.1,0,0,0,.2.6c.1.2.4.2.6.4l-1.5.8-.2-1.7a16.7,16.7,0,0,0-2.6.6c-.2,0-.3.4-.4.7s.4.3.7.2Zm6.8-.3c.8.3,1.2.1,1.5-.4a.8.8,0,0,0-.4-1.2c-.5-.3-1.1-.2-1.2.4S54.7,39.8,54.8,40.2Z"/><path class="cls-2" d="M52,48.8c-.5,0-.8.1-1,0s-.2-.5-.1-.6a.6.6,0,0,1,.7-.1C51.8,48.1,51.8,48.5,52,48.8Z"/><path class="cls-2" d="M11.7,49.9l1.8,1a4.5,4.5,0,0,1,1.6,1.3,1.6,1.6,0,0,1-.1,1.5c-.1.3-.3.4-.5.6l-.6.2c-.2.1-.4,0-.7-.1h0l.5.6a1.4,1.4,0,0,1,.2.7,1.6,1.6,0,0,1-.3.8,2,2,0,0,1-.8.8,2,2,0,0,1-1.1.2,3.1,3.1,0,0,1-1.2-.5L8.3,55.9Zm-.9,3.8L9.7,55.6l1.1.6c.5.3.8.4,1.1.3a1.3,1.3,0,0,0,.7-.6c.1-.2.2-.3.2-.5a.9.9,0,0,0-.3-.6c-.1-.2-.4-.3-.7-.5Zm.5-.8.9.5a2.1,2.1,0,0,0,1.1.4,1.5,1.5,0,0,0,.6-.5.8.8,0,0,0,.1-.8,3.6,3.6,0,0,0-.9-.8l-.9-.5Z"/><path class="cls-2" d="M13.9,59l3.4-6,1,.6-3.5,6Z"/><path class="cls-2" d="M21.6,55.4a2.7,2.7,0,0,1,1.1,1,1.4,1.4,0,0,1,.5,1,2.6,2.6,0,0,1-.3,1.1l-.6.7-.8.2a.9.9,0,0,1-.7,0l.2,3.7-1.1-.6V59.2l-1-.5-1.4,2.4-1-.6,3.5-6Zm-.6.8-.6-.3-1.1,1.9.6.4a1.5,1.5,0,0,0,1.2.3c.3,0,.5-.2.7-.5s.3-.7.1-1A2.4,2.4,0,0,0,21,56.2Z"/><path class="cls-2" d="M23.9,64.8l-1-.6,3-5.2-1.8-1,.5-.8,4.5,2.5-.5.9-1.7-1Z"/><path class="cls-2" d="M31.4,69l-1-.6,1.5-2.7-2.8-1.6-1.5,2.7-1-.5,3.4-6,1,.5-1.4,2.5,2.8,1.6,1.4-2.5,1,.6Z"/><path class="cls-2" d="M40.3,66.1a2.9,2.9,0,0,1,1.5,1.4,2.1,2.1,0,0,1-.3,1.7,1.8,1.8,0,0,1-.5.7l-.8.4h-.9a3.1,3.1,0,0,1-1.2-.5l-.7-.4-1.2,2.3-1-.6,3.4-6Zm-.5.8-.7-.4-1.2,2.1.5.3.9.4H40l.5-.5c.2-.4.3-.7.1-1A1.5,1.5,0,0,0,39.8,66.9Z"/><path class="cls-2" d="M40.4,74.1l3.4-6,1,.5-3,5.2,2.6,1.5-.5.8Z"/><path class="cls-2" d="M48.7,78.8l.4-2-2.4-1.3-1.5,1.3-1-.6,5.6-4.7,1.1.6-1.2,7.3Zm.6-3,.3-2a.4.4,0,0,0,.1-.3c0-.2.1-.3.1-.5a.8.8,0,0,0,.1-.4l-.3.3-.3.3-.3.3-1.5,1.3Z"/><path class="cls-2" d="M56.1,76l-.9-.2a1.2,1.2,0,0,0-.8.1l-.8.5a5.6,5.6,0,0,0-1.1,2.2,1.4,1.4,0,0,0,.2,1.1,2.2,2.2,0,0,0,.8.9l.8.3.9.2-.5.9-.9-.2-.9-.5a3,3,0,0,1-1.3-1.2,4.1,4.1,0,0,1-.3-1.6,4.5,4.5,0,0,1,.7-1.8,2.7,2.7,0,0,1,.9-1.2,2.4,2.4,0,0,1,1.1-.6,2.5,2.5,0,0,1,1.2-.2,3.9,3.9,0,0,1,1.4.5l.8.6a2.7,2.7,0,0,1,.7.8l-.8.6-.5-.6Z"/><path class="cls-2" d="M59.3,84.8l-3.4-1.9,3.4-6,3.4,1.9-.4.8-2.5-1.3-.9,1.6,2.3,1.3-.5.8-2.3-1.3-1,1.9L59.8,84Z"/></svg>