<svg id="Layer_1" data-name="Layer 1" xmlns="http://www.w3.org/2000/svg" viewBox="0 0 100 100"><defs><style>.cls-1{fill:#eb1c19;}.cls-2{fill:#fff;}</style></defs><path class="cls-1" d="M97.6,65.7A151.2,151.2,0,0,0,37.7,91L2.4,45.5A209.5,209.5,0,0,1,87.6,9Z"/><path class="cls-2" d="M33.3,50.3a29.5,29.5,0,0,0,5.5-4.4,9.3,9.3,0,0,0,2.7-6.5,15.1,15.1,0,0,1,7.9-13.2c4.1-2.4,8.3-1.9,12.3.4a15.7,15.7,0,0,1,6.9,7.7,13.9,13.9,0,0,1-.7,12.1,2.3,2.3,0,0,1-1.1,1.1,3.1,3.1,0,0,0-1.6,2.7,21.2,21.2,0,0,1-.6,4.3c-.3,1.3-.7,1.4-1.9.9l-.6-.3c-.8-.5-1-.4-1.3.5s-.1.2-.1.3-.3.9-1.3.7-.1,1-1.2,1.1a2.8,2.8,0,0,0-.9.6,5.9,5.9,0,0,0-.6,1.4,2,2,0,0,1-3.3.8c-.7-.5-1.3-1.2-2-1.8s-.3-.4-.5-.5a1,1,0,0,0-1.7,0l-2.7,2.4a.5.5,0,0,1-.8.1L33.4,50.5C33.4,50.4,33.3,50.4,33.3,50.3ZM47.6,37.8l-1,2.2c-.4.7-.7,1.4-1.1,2a.8.8,0,0,0,.2.9c.3.2.5.4.9.1l3-1.7a2,2,0,0,1,2-.1,6.1,6.1,0,0,0,1.7.7,2.2,2.2,0,0,0,1.6.1,1.9,1.9,0,0,1,1.5-.2,1.5,1.5,0,0,1,.9.6l1.4.8.7.4a2.7,2.7,0,0,0,2.6,1,.9.9,0,0,1,.7,0,2.3,2.3,0,0,0,2-.6l.8-.5a2.4,2.4,0,0,0,1.4-3.4c0-.2-.1-.4,0-.5s.2-1.4-.6-2a2.7,2.7,0,0,0-1.4-3.2,1.1,1.1,0,0,1-.2-.6,2.7,2.7,0,0,0-1.8-2.3c-.1,0-.3-.3-.4-.5a2,2,0,0,0-1.3-1.5,2.5,2.5,0,0,1-1.9-.9l-.4-.2a7.2,7.2,0,0,1-2.5-.7,8.1,8.1,0,0,0-2.7-.1,5.8,5.8,0,0,0-1.8.4A13.2,13.2,0,0,0,49,29.5a1,1,0,0,0-.4.5l-.6.6a3.6,3.6,0,0,0-1.8,3.6c0,.2.1.3.1.5A2.3,2.3,0,0,0,47.6,37.8Z"/><path class="cls-2" d="M51.1,76.8l-4.7-5.6h0a1.6,1.6,0,0,1,.3.6l.3.8.3.8L49,77.6l-1.2.4-3-7.7,1.8-.6L51.1,75h0V68l1.8-.7L55.7,75l-1.2.5-1.6-4.3-.3-.8-.3-.8c-.1-.2-.1-.4-.2-.6h0v7.3Z"/><path class="cls-2" d="M57.7,74.2l-2.9-7.7L56,66l3,7.7Z"/><path class="cls-2" d="M67.5,70.5l-1.6.6-6.1-4.7h-.1l.3.6.3.7.3.8,1.6,4-1.2.4-2.9-7.6,1.5-.6,6.1,4.6h.1l-.3-.6-.3-.7-.3-.7-1.6-4.1,1.2-.4Z"/><path class="cls-2" d="M74.2,63.4a4.9,4.9,0,0,1,.4,2.3,3.7,3.7,0,0,1-.9,1.9,6.9,6.9,0,0,1-2.1,1.3l-2.1.8-3-7.7,2.4-.9a6,6,0,0,1,2.2-.4,3,3,0,0,1,1.8.8A3.4,3.4,0,0,1,74.2,63.4Zm-1.3.5a2.8,2.8,0,0,0-.9-1.4,2.3,2.3,0,0,0-1.2-.6,2.7,2.7,0,0,0-1.5.3l-1.1.4,2.1,5.6.9-.4A3.5,3.5,0,0,0,73,66.3,2.9,2.9,0,0,0,72.9,63.9Z"/></svg>