<svg id="Layer_1" data-name="Layer 1" xmlns="http://www.w3.org/2000/svg" viewBox="0 0 100 100"><defs><style>.cls-1{fill:#eedd3a;}.cls-2{fill:#fff;}</style></defs><path class="cls-1" d="M96,81.2,40.9,98A149.3,149.3,0,0,0,4,42.4L44.9,2A206.6,206.6,0,0,1,96,81.2Z"/><path class="cls-2" d="M48.8,39.8A10.8,10.8,0,0,1,60.9,38a1.9,1.9,0,1,1-1.6,3.4,7,7,0,0,0-9.8,4.5,6.8,6.8,0,0,0,3.2,7.8l.5.3a1.9,1.9,0,0,1,.7,2.6,1.9,1.9,0,0,1-2.5.8,10.6,10.6,0,0,1-5.2-5.8,9.7,9.7,0,0,1-.8-4.1c0-.1.2-.3.3-.4A4.7,4.7,0,0,0,48.9,40C48.8,39.9,48.8,39.9,48.8,39.8Z"/><path class="cls-2" d="M56.1,66.8a4.8,4.8,0,0,0-7.8.4c-.2.3-.3.3-.6.2a10.9,10.9,0,0,1-7.3-9.5,2,2,0,0,1,1.8-2.1,2,2,0,0,1,2,1.8,6.9,6.9,0,0,0,3.9,5.8,7,7,0,0,0,10.1-6.6,1.8,1.8,0,0,1,1.7-2A1.9,1.9,0,0,1,62,56.6a10.6,10.6,0,0,1-5.7,10.1Z"/><path class="cls-2" d="M63.7,46.1a10.1,10.1,0,0,1,3.7,1.4.4.4,0,0,1,.3.6,4.7,4.7,0,0,0,4.2,6.2c.5,0,.6.1.7.6a11.1,11.1,0,0,1-4.7,10.9,2,2,0,0,1-2.2-.1,1.8,1.8,0,0,1-.7-2.1,2.4,2.4,0,0,1,.9-1.1,7,7,0,0,0-7.7-11.6,1.9,1.9,0,0,1-3-1.1,2,2,0,0,1,.8-2.1A11.8,11.8,0,0,1,63.7,46.1Z"/><path class="cls-2" d="M68.5,49.1a3.7,3.7,0,0,1,4.1-3.3,3.8,3.8,0,0,1,3.3,4.1,3.6,3.6,0,0,1-4.1,3.3A3.6,3.6,0,0,1,68.5,49.1Z"/><path class="cls-2" d="M48.5,42.9a3.9,3.9,0,0,1-4.2,3.3,3.8,3.8,0,1,1,4.2-3.3Z"/><path class="cls-2" d="M51.9,73.4a3.7,3.7,0,0,1-3.3-4.1,3.8,3.8,0,0,1,7.5.9A3.7,3.7,0,0,1,51.9,73.4Z"/><path class="cls-2" d="M26.2,45.2a3,3,0,0,0-.8-.8,2.1,2.1,0,0,0-1-.4,2.4,2.4,0,0,0-1.2,0,7.5,7.5,0,0,0-1.3.6,4.2,4.2,0,0,0-1.4,1.2,2.1,2.1,0,0,0-.5,1.3,2.1,2.1,0,0,0,.4,1.5l.6.9.9.8-1.1.7a6,6,0,0,1-.8-.8,10.5,10.5,0,0,1-.8-1.1,4,4,0,0,1-.7-2.2,4.8,4.8,0,0,1,.7-2,6,6,0,0,1,1.9-1.6,4.5,4.5,0,0,1,1.8-.7,2.9,2.9,0,0,1,1.6-.1,3.5,3.5,0,0,1,1.5.7,4.4,4.4,0,0,1,1.3,1.4,6.1,6.1,0,0,1,.5,1.2l.3,1.3-1.4.2a4.1,4.1,0,0,0-.1-1.1A4.2,4.2,0,0,0,26.2,45.2Z"/><path class="cls-2" d="M32.8,54.3l-5,3a4.9,4.9,0,0,1-1.6.5,2.8,2.8,0,0,1-1.7-.5,3.9,3.9,0,0,1-1.3-1.5,3.6,3.6,0,0,1-.6-2.7,3.5,3.5,0,0,1,1.6-2l5-2.9.8,1.2-4.9,2.9a2.5,2.5,0,0,0-1.2,1.3,2,2,0,0,0,.4,1.6,1.8,1.8,0,0,0,.8.9,1.2,1.2,0,0,0,1,.2,3,3,0,0,0,1.1-.4L32.1,53Z"/><path class="cls-2" d="M26.2,60.8,34,56.3l.7,1.3-6.6,3.9L30,64.8l-1.1.6Z"/><path class="cls-2" d="M31.3,69.4l-.8-1.3,6.7-3.9L35.9,62l1-.7,3.5,5.8-1.1.7L38,65.5Z"/><path class="cls-2" d="M44.6,74.4l-5,2.9a3.3,3.3,0,0,1-1.6.5,2.3,2.3,0,0,1-1.6-.4A3.4,3.4,0,0,1,35,75.9a3.6,3.6,0,0,1-.6-2.7,3.2,3.2,0,0,1,1.6-2l5-3,.8,1.3-4.9,2.9a2.2,2.2,0,0,0-1.2,1.3,2.1,2.1,0,0,0,.4,1.6,2.4,2.4,0,0,0,.8.9,1.6,1.6,0,0,0,1,.2L39,76l4.9-2.9Z"/><path class="cls-2" d="M47.1,78.5a6,6,0,0,1,.7,1.8,2.2,2.2,0,0,1-.2,1.4,2.6,2.6,0,0,1-1,1.1l-1.1.4-1-.2-.9-.5-2.1,4.2-.9-1.4,2-3.7-.7-1.3-3.1,1.9-.7-1.3,7.7-4.6Zm-1.1.6-.5-.9L43,79.7l.5.9a2.3,2.3,0,0,0,1.1,1.1,1.4,1.4,0,0,0,1.2-.2,1.4,1.4,0,0,0,.7-1A3,3,0,0,0,46,79.1Z"/><path class="cls-2" d="M44.7,92.2l-2.6-4.4,7.8-4.5,2.5,4.3-1,.7-1.9-3.1-2.1,1.2,1.8,2.9-1.1.6L46.4,87,44,88.5l1.8,3.1Z"/></svg>