<svg id="Layer_1" data-name="Layer 1" xmlns="http://www.w3.org/2000/svg" viewBox="0 0 1080 1080"><defs><style>.cls-1{fill:#4c0148;}.cls-2{fill:#26005d;}.cls-3{fill:#040b8a;}.cls-4{fill:#0076b4;}.cls-5{fill:#025f6d;}.cls-6{fill:#026c3b;}.cls-7{fill:#018b2f;}.cls-8{fill:#eb1c19;}.cls-9{fill:#b4010e;}.cls-10{fill:#b80259;}.cls-11{fill:#eedd3a;}.cls-12{fill:#fe8f00;}.cls-13{fill:#f6ca17;}.cls-14{fill:#fff;}.cls-15{fill:#f8f8f8;}.cls-16{fill:#f7f7f7;}</style></defs><path class="cls-1" d="M294.6,628.9l-91,54.3A382.9,382.9,0,0,1,158,510.6l105.8-5.8A278.4,278.4,0,0,0,294.6,628.9Z"/><path class="cls-2" d="M330.4,821.5l-3.9-2.6A380.4,380.4,0,0,1,206.6,688.7l90.9-54.2a275.6,275.6,0,0,0,88.2,96.7Z"/><path class="cls-3" d="M509.8,883.1a380.7,380.7,0,0,1-174.1-58.2L391,734.6a274.5,274.5,0,0,0,125.8,42.9Z"/><path class="cls-4" d="M697.1,850.6a384.2,384.2,0,0,1-181,32.9l7-105.6a276.1,276.1,0,0,0,131.1-24.1Z"/><path class="cls-5" d="M844.8,732.9a379.1,379.1,0,0,1-142,115l-42.9-96.8a273.6,273.6,0,0,0,101.9-84Z"/><path class="cls-6" d="M857.1,715.6c-2.8,4.2-5.6,8.2-8.5,12.2l-83-65.8,3.8-5.5a276.5,276.5,0,0,0,44.4-114.8l104,19.7A377.9,377.9,0,0,1,857.1,715.6Z"/><path class="cls-7" d="M917.8,555.6,813.9,534.8a277.1,277.1,0,0,0-12.5-125.6L903,379.3A384,384,0,0,1,917.8,555.6Z"/><path class="cls-8" d="M491.2,229.9a278.9,278.9,0,0,0-110.5,46.6l-65-84a385.1,385.1,0,0,1,157.1-67.3Z"/><path class="cls-9" d="M311,347.5a281.3,281.3,0,0,0-14.8,24.6L199.8,328A384.6,384.6,0,0,1,310.5,196.4l64.8,83.7A275.6,275.6,0,0,0,311,347.5Z"/><path class="cls-10" d="M263.8,498.5l-105.9,5.8A380.2,380.2,0,0,1,197,333.7l96.3,44A274.8,274.8,0,0,0,263.8,498.5Z"/><path class="cls-11" d="M900,373,798.6,404a274.2,274.2,0,0,0-67.9-102.3l75.2-74.5A381,381,0,0,1,900,373Z"/><path class="cls-12" d="M615.5,236a274.9,274.9,0,0,0-118.8-6.9L478.2,124.8a383.3,383.3,0,0,1,169.4,10.3Z"/><path class="cls-13" d="M801.3,222.9,726,297.4a271.4,271.4,0,0,0-31.3-24.6,276.2,276.2,0,0,0-73.2-35l32.1-100.9a381.7,381.7,0,0,1,100.2,48.2A368.3,368.3,0,0,1,801.3,222.9Z"/><path class="cls-14" d="M692.8,236.9c-.5-11.8-1.1-23.6-1.6-35.3s7.2-21.8,18.6-23.9a22.1,22.1,0,0,1,11.4.8l.9.2,4.6,2.5,2.5,2.3a22.3,22.3,0,0,1-.8,32.9,39.6,39.6,0,0,1-5.9,4.2c-9.3,5.6-18.7,11-28,16.5l-.5.4Zm2.1-2.5,1.1-.5,26.3-15.5a30.8,30.8,0,0,0,5-3.7c6-5.5,7.9-12.4,5.9-20.2A18.9,18.9,0,0,0,718.9,180c-13.4-3.5-26.2,7.1-25.7,21.2.4,10.7,1,21.4,1.6,32.1A4.5,4.5,0,0,0,694.9,234.4Z"/><path class="cls-14" d="M727.9,206.4a15.3,15.3,0,0,1-8.9,7.7c-.5.1-1.7,0-1.9-.4s.6-1.3,1.3-1.6a13.5,13.5,0,0,0,9.3-13,13.7,13.7,0,0,0-24.5-8.4c-5.9,7.2-2.7,18,6.2,21.4l.4.2,1.1,1.3c-.6.2-1.3.7-1.8.5a31,31,0,0,1-5.1-2.7c-6.4-5.1-7.6-14-3-21.1a15.8,15.8,0,0,1,27.9,14.1A12.3,12.3,0,0,1,727.9,206.4Z"/><path class="cls-14" d="M720.3,201c-.6,2-2.2,3-3.9,3.7l-2.7,1.4c-4.2,2.1-6.8.8-7.7-3.9h-1.2a2.9,2.9,0,0,1-2.5-2.8,2.8,2.8,0,0,1,2.1-3.1c1.9-.5,3.7-.7,5.6-1.1h.2c2.7-1.9,5.3-.1,7.9.5,2.2-2.2,3.9-2.7,5.8-1.4a3.7,3.7,0,0,1,1.6,4.3C724.8,200.6,723.2,201.4,720.3,201Zm-12.5-1.6c.1.7.1,1.2.2,1.8s.1,1.2.2,1.7,1.7,2.6,3.4,1.9a54.4,54.4,0,0,0,5.4-2.7,2.1,2.1,0,0,0,.9-3.2c-.6-1.3-3.6-2.9-5.1-2.7a1.4,1.4,0,0,0-.9.8,1.5,1.5,0,0,0,.3,1.1,3.4,3.4,0,0,0,1.2.6l-3,1.5-.2-3.2-5,1.1c-.4.1-.5.9-.8,1.4s.9.5,1.4.5Zm12.6-.5c1.4.4,2.3.1,2.8-.8a1.7,1.7,0,0,0-.7-2.4,1.5,1.5,0,0,0-2.3.8C719.9,197.2,720.3,198.1,720.4,198.9Z"/><path class="cls-14" d="M715.1,214.9c-.8.1-1.4.3-1.7.1a1.3,1.3,0,0,1-.2-1.3,1.5,1.5,0,0,1,1.3-.2C714.8,213.6,714.8,214.2,715.1,214.9Z"/><path class="cls-14" d="M813.1,296.9a20.4,20.4,0,0,1,7.5-4.4,19.5,19.5,0,0,1,14.8,1,3.5,3.5,0,0,1,1.8,4.8,3.6,3.6,0,0,1-4.8,1.6c-7.6-3.4-15.8.3-18.1,8.2a12.8,12.8,0,0,0,6.1,14.4l.8.4a3.6,3.6,0,0,1,1.4,4.8,3.6,3.6,0,0,1-4.7,1.5,19.7,19.7,0,0,1-11-18.2,1.2,1.2,0,0,1,.5-.7,8.8,8.8,0,0,0,5.8-13.2A.3.3,0,0,0,813.1,296.9Z"/><path class="cls-14" d="M826.6,346.5a8.8,8.8,0,0,0-14.4.8c-.3.5-.5.6-1.1.4a20,20,0,0,1-13.4-17.6,3.5,3.5,0,0,1,3.2-3.7,3.4,3.4,0,0,1,3.8,3.2c.5,4.9,2.7,8.5,7.1,10.7a12.7,12.7,0,0,0,18.5-12.1,3.6,3.6,0,1,1,7.1-.4q.1,12.4-10.5,18.6Z"/><path class="cls-14" d="M840.6,308.5a21.2,21.2,0,0,1,6.8,2.5c.5.3.6.5.4,1.1a8.8,8.8,0,0,0,7.8,11.4c.9,0,1.1.3,1.3,1.1,1.3,7.7-2.1,15.9-8.6,20a3.4,3.4,0,0,1-4.1,0,3.6,3.6,0,0,1-1.3-3.9,5,5,0,0,1,1.7-2.1,12.8,12.8,0,0,0,1.1-20.2,13.1,13.1,0,0,0-15.4-1.1,3.5,3.5,0,0,1-5.5-2,3.6,3.6,0,0,1,1.6-3.8C830.1,309,834.9,307.9,840.6,308.5Z"/><path class="cls-14" d="M849.4,314a6.8,6.8,0,0,1,7.5-6.1,6.9,6.9,0,0,1-1.5,13.7A6.8,6.8,0,0,1,849.4,314Z"/><path class="cls-14" d="M812.5,302.5a6.8,6.8,0,0,1-13.6-1.6,6.9,6.9,0,0,1,7.6-6A6.7,6.7,0,0,1,812.5,302.5Z"/><path class="cls-14" d="M818.9,358.7a6.8,6.8,0,0,1-6.1-7.5,6.9,6.9,0,0,1,13.7,1.5A6.7,6.7,0,0,1,818.9,358.7Z"/><path class="cls-14" d="M896.8,487.6l-4.6-11.3h-.3l3,9.9-8.8-.2c-2.9-.1-5.4.6-6.8,3.3s-.7,5,1.3,7.4h-2.7c.1-4.5.1-9,.3-13.5.3-6.8-2.5-11.6-8.9-14.2l2.7-6.7c7.2,6.1,14.5,6.4,21.9.5,3.2,1.8,4.9,4.7,6.3,8,2.7,6.3,5.3,12.7,7.9,19.2,1.7,4.1-.6,7.4-5,7.3l-18.3-.3a4.9,4.9,0,0,1-4.5-7,4.6,4.6,0,0,1,4.7-2.6h11.8Z"/><path class="cls-14" d="M883.6,437.2A14.2,14.2,0,0,1,897,448.1a14.4,14.4,0,0,1-7.1,16,14,14,0,0,1-16.9-2.8,7.4,7.4,0,0,1-1.2-2.7c-.7-1.9-1.3-3.9-1.9-5.9a8.9,8.9,0,0,1-.6-3.5A14.1,14.1,0,0,1,883.6,437.2Z"/><path class="cls-14" d="M842.6,459.9a14,14,0,1,1,13.7,14.4A14.1,14.1,0,0,1,842.6,459.9Z"/><path class="cls-14" d="M876.6,496.8h-5a14.1,14.1,0,0,1,.1-2.1c0-4.4.1-8.8.2-13.2,0-2.6-.8-3.6-3.4-3.6l-24.5-.5c-2.6,0-3.5,1-3.6,3.6l-.3,15.1h-4.9c0-.5-.1-1-.1-1.5.1-4.5.1-9,.2-13.6s3.3-9.6,8-10.9a2.2,2.2,0,0,1,1.9.4c7,7,16,6.9,23-.3,4.6,1,8.5,5.1,8.7,9.8S876.7,491,876.6,496.8Z"/><path class="cls-14" d="M867.9,501l-35.7-.6a5.3,5.3,0,0,1-1.8-.1,2.3,2.3,0,0,1-1.1-1.5,2.2,2.2,0,0,1,1.1-1.6,6,6,0,0,1,1.9,0l71,1.3c.6,0,1.3-.2,1.7.1a2.5,2.5,0,0,1,1.3,1.6c-.1.5-.8,1.1-1.4,1.5s-1,0-1.5,0Z"/><path class="cls-14" d="M881.4,636.3l-7-.4-30.8-1.5a5.8,5.8,0,0,1-4.1-1.8l-30.8-32.2c-.9-1-1.7-1.9-1.1-3.3s1.9-1.5,3.2-1.4l45.1,2.2a5.6,5.6,0,0,1,3,1.4c10.5,10.8,20.8,21.7,31.2,32.6,1,.9,1.7,2,1,3.4s-1.8,1.5-3.1,1.3-2.4.3-3.1,1.8c-3.1,7.1-6.4,14.1-9.6,21.1a2,2,0,0,0,.1,2.2,5.2,5.2,0,0,1,.5,5.5l-4.2,9.3c-.7,1.4-1.6,1.8-3,1.2l-6.3-2.9a2,2,0,0,1-1.1-3c1.4-3.2,2.9-6.3,4.3-9.4a5.6,5.6,0,0,1,4.6-3.2,2.4,2.4,0,0,0,1.3-.9c3.3-7.1,6.5-14.2,9.8-21.4A1.8,1.8,0,0,1,881.4,636.3Z"/><path class="cls-14" d="M873.1,638.5c-2.5,5.4-4.8,10.6-7.3,15.7a7.2,7.2,0,0,1-6,4.1c-20.7,2.7-37.5-4.9-49.1-22.4a7.6,7.6,0,0,1-.8-7.4c2.2-5.2,4.6-10.3,7.1-15.6l3.3,3.3,18.6,19.4a4.5,4.5,0,0,0,3,1.2c9.7.6,19.4,1.1,29.2,1.5Z"/><path class="cls-15" d="M789.3,768.9a18.5,18.5,0,0,1-9.9,6.9c.7,1.9,1.4,3.6,2.2,5.3s1.7,3.2,2.6,4.8.8,1.9-.8,2.7L748.7,808l-3.6,2c-1.5.8-1.8.7-2.7-.8l-19.2-34.5-16.4-29.6c-1-1.7-.9-2,.8-2.9,12.7-7.1,25.4-14.2,38.2-21.2,1.5-.9,1.9-.8,2.8.8s2.1,3.9,3.3,5.9c2.3-1.2,4.5-2.4,6.6-3.7s2.3-.8,2.8,1.3.6,2.9,1,4.6l3.3-1.9c1.3-.7,1.9-.4,2.2,1.1a35.9,35.9,0,0,1-1.6,21,16.5,16.5,0,0,1-.7,2l1.9-1.4a15.7,15.7,0,0,1,9.3-3.5l.8-.2h-.1l.9.3c7.5,1,12.2,6,12.9,13.6,0,.2.1.4.1.7h.1l-2.2,7.5ZM731.1,772a55.7,55.7,0,0,1,14,25.2l10.6-5.9,21.2-11.8c.5-.3,1-.7,1-1.1s-.6-2.2-2.1-2.5a1.8,1.8,0,0,1-1-.2c-3.8-1.5-7.3-.5-10.7,1.3-.5.3-.8.9-1.2,1.3s-1,1.6-1.6,1.7-3.4.3-5.1.6a20.9,20.9,0,0,1-2.5-.1,6.2,6.2,0,0,1-5.8-3.2,5.8,5.8,0,0,1,.9-6.4c.2-.3.6-.5.6-.7,0-2.3,2.5-2.9,3.1-4.8a2.4,2.4,0,0,1,2-.9c1.5.4,2.4-.4,3.5-1,3.8-2.2,5.5-5.7,6.2-9.9Zm15.4-49-1.2.7-35.4,19.7c-1.1.6-1.1,1.1-.5,2.1l13.8,24.8a12.7,12.7,0,0,1,.7,1.2l.4-.4a23.8,23.8,0,0,0,.5-2.6,81.8,81.8,0,0,0,.4-24.2,2.2,2.2,0,0,1,1.3-2.5c7.3-4,14.6-8,21.8-12.1l1.5-.8Zm15.8,52.4,3-1.3c2.6-1.1,5.5-1.9,8.3-.9s6.3.5,9.3-1.3a12.1,12.1,0,0,0,5.9-12.6,12.3,12.3,0,0,0-9.8-9.8c-5.1-1-12.9,2.8-13.7,8.3-.4,2.7-2.3,4.6-4.4,6.2s-2.3,1.7-3.5,2.5l1.8,3.3h.5l14-7.8a1.8,1.8,0,0,0,.6-1.3c.2-1.5.1-3.1.2-4.6a2.1,2.1,0,0,1,1.1-1.3c.8-.1,1.1.6,1.1,1.4s0,2.9-.1,4.4a1.6,1.6,0,0,0,1,1.8l3.7,2.1c.6.4,1.2.9.8,1.7s-1.2.6-1.9.2-2.5-1.4-3.6-2.2a1.8,1.8,0,0,0-2.1,0c-4.3,2.5-8.6,4.8-12.9,7.2l-1.1.7Zm-36.5-.5.7,1.4c5.7,10.1,11.3,20.2,16.9,30.3.6,1.1,1.1,1.2,2.2.6l35.2-19.6,1.2-.7-3.2-5.9-1.6.8L746,799.3c-.4.2-.9.6-1.2.5a2.1,2.1,0,0,1-1.5-.7c-.3-.2-.2-.8-.3-1.2a50.8,50.8,0,0,0-13.2-24,1.7,1.7,0,0,0-1.3-.5A25.2,25.2,0,0,0,725.8,774.9Zm40-44.4-.7.3-30.2,16.8a1.3,1.3,0,0,0-.8,1.6,45,45,0,0,1-2.3,18.6c-.1.3-.1.7-.2,1.1l.5-.2,30.6-17a3.2,3.2,0,0,0,1-1.3,32.9,32.9,0,0,0,2.4-18.3Zm-39.2,41.2.3.2a9.1,9.1,0,0,0,1.8-2.1,42,42,0,0,0,3.2-21.3,1.9,1.9,0,0,1,1.2-2.4c2.2-1.1,4.3-2.4,6.4-3.6l19.6-10.9c.4-.2,1-.7,1-1s-.5-2.9-.8-4.4l-.7.3-30.4,16.9c-.8.4-.7,1-.7,1.7.8,8.8,1,17.5-1,26.2C726.5,771.4,726.6,771.5,726.6,771.7Zm31.4.5-2.6-4.5c-.2-.4-.7-.6-1.1-1a6.8,6.8,0,0,0,.2,1.5c1.6,2.9,3.2,5.9,4.9,8.8a3.6,3.6,0,0,0,1.1,1,8.8,8.8,0,0,0-.2-1.6C759.5,775,758.7,773.6,758,772.2Zm-7.5.4a3.3,3.3,0,0,0-.3,4.2,2.8,2.8,0,0,0,3.3,1.2Zm3.5,1.5c.7,1.2,1.3,2.4,2,3.5a3.1,3.1,0,0,0,.9.7c0-.4.2-.9,0-1.2l-3.9-7c-.2-.3-.6-.4-.9-.6a4.8,4.8,0,0,0,0,1.2Z"/><path class="cls-15" d="M792.3,751.6c.7-.3,1.3-.9,2-1s1.1.2,1.6.4-.2,1.2-.5,1.4a33,33,0,0,1-4.1,2.3c-.4.2-1-.2-1.5-.3a3.4,3.4,0,0,1,.5-1.6A9.6,9.6,0,0,1,792.3,751.6Z"/><path class="cls-15" d="M791.3,761.6a2.1,2.1,0,0,1,2.2-1.2h3.6c.5.1,1.3.7,1.3,1.1s-.6,1.1-1.4,1.1-2.4-.1-3.6,0a2,2,0,0,1-2-1.2Z"/><path class="cls-15" d="M777.5,747c-.4-.4-1-.9-1.1-1.3a21.6,21.6,0,0,1,.1-4.4c0-.4.7-.8,1.1-1.2s.9.8,1,1.3a19.7,19.7,0,0,1-.1,4.2c0,.5-.7.9-1.1,1.4Z"/><path class="cls-15" d="M789.2,769a1.5,1.5,0,0,1,2.4-.4l3.3,2c.7.4,1.1,1,.6,1.6a2,2,0,0,1-1.7.2,27.7,27.7,0,0,1-3.7-2.2,2.9,2.9,0,0,1-.8-1.3Z"/><path class="cls-15" d="M784.1,748.4c.1-.2.1-.6.2-.9s1.5-2.7,2.4-3.9,1-.4,1.5-.6.5,1.3.3,1.7-1.5,2.6-2.3,3.8A1.2,1.2,0,0,1,784.1,748.4Z"/><path class="cls-15" d="M744.7,780.6c1.3,3.7,2.6,7.2,3.8,10.8.2.7.4,1.6-.6,1.9s-1.3-.5-1.6-1.4a39.1,39.1,0,0,0-10.1-18.2c-.6-.6-1-1.3-.3-2s1.4-.2,1.8.4C740.1,774.9,742.4,777.8,744.7,780.6Z"/><path class="cls-15" d="M743.4,761.4c-.3,0-.8.1-1.1-.1s-.4-.7-.5-1.1a4.7,4.7,0,0,1,.3-.9,23,23,0,0,0,1.4-13.7c0-.2-.1-.3,0-.4a10.9,10.9,0,0,1,.8-1.5c.5.4,1.2.7,1.3,1.1a24.6,24.6,0,0,1-1.6,15.8A3.3,3.3,0,0,1,743.4,761.4Z"/><path class="cls-15" d="M740.4,746.8l.4,1.5a24.7,24.7,0,0,1-1.6,14.7c-.3.7-.7,1.6-1.7,1.2s-.7-1.3-.4-2.1a22.5,22.5,0,0,0,1.4-13.8,2.9,2.9,0,0,1,.6-1.7C739.3,746.4,740,746.8,740.4,746.8Z"/><path class="cls-15" d="M760.4,735.9a6.8,6.8,0,0,0,.3,1.2,24.3,24.3,0,0,1-1.7,14.8c-.3.8-.7,1.5-1.7,1.1s-.6-1.2-.3-1.9a22.5,22.5,0,0,0,1.4-14,2.1,2.1,0,0,1,.7-1.6C759.3,735.4,760,735.8,760.4,735.9Z"/><path class="cls-15" d="M750.3,741.4a4.1,4.1,0,0,1,.3,1.2,23.1,23.1,0,0,1-1.6,14.9c-.3.8-.7,1.4-1.6,1s-.7-1.1-.4-1.8a21.8,21.8,0,0,0,1.5-14,2,2,0,0,1,.6-1.6C749.3,740.9,750,741.3,750.3,741.4Z"/><path class="cls-15" d="M755.3,738.6a9.7,9.7,0,0,1,.3,1.1,24.5,24.5,0,0,1-1.6,15.1c-.3.7-.7,1.3-1.6.9s-.7-1.1-.4-1.8a21.8,21.8,0,0,0,1.5-14,2,2,0,0,1,.6-1.6C754.3,738.1,755,738.5,755.3,738.6Z"/><path class="cls-14" d="M566.8,860.1c0-.4-.1-.8-.1-1.2l-7.5-38.5-.3-1,22.4-4.4.7,5.3,15.5-3.1a34.5,34.5,0,0,1,5.3-25.9,33.4,33.4,0,0,1,16.3-13.1,35,35,0,0,1,36.6,58.3,29.6,29.6,0,0,1,3.6,4.5c2.9,5-.1,12.1-5.6,13.8a24.4,24.4,0,0,1-2.6.6l-25.5,5a21.3,21.3,0,0,1-16.8-3.4l-14.9-10.1a2.6,2.6,0,0,0-1.9-.4c-1.5.4-3,.6-4.5.9l1.7,8.3-1.2.3-19.9,3.9-1.1.3Zm55.3-49.8,4.6,3c.5.4.9.7.7,1.5a1.5,1.5,0,0,0,1.1,1.8,1.6,1.6,0,0,0,2-.7,1.7,1.7,0,0,0-.2-2.2l-.9-.8a8,8,0,0,1-2.7-8.5,7.9,7.9,0,0,1,6.9-6.1c1.8-.2,3.6,0,4.1-2.3l5.6,3.7a6.2,6.2,0,0,1-.8,1.2,1.7,1.7,0,0,0-.2,2.1,7.6,7.6,0,0,1,.7,4.9c-.3,1.1-.8,2.2-1.2,3.4-1.7-1.2-3.1-2.2-4.6-3.1s-1-.7-.7-1.5a1.5,1.5,0,0,0-1.2-1.8,1.6,1.6,0,0,0-2,.6,1.5,1.5,0,0,0,.1,2.1,4.1,4.1,0,0,0,1,.9,8.4,8.4,0,0,1,.5,12.4,7.9,7.9,0,0,1-6.6,2.3c-1.3-.1-1.3.9-1.8,1.5s.4.8.7,1.1l3.6,2.4a9.7,9.7,0,0,1,4.6,6.5c.2,1.1.2,2.2.4,3.4l5.4-1.1a10.7,10.7,0,0,0,3.2-.8c8.6-4.3,14-11.3,15.5-20.8s-1.4-18.6-8.7-25.6a28.6,28.6,0,0,0-30.8-5.1c-9.7,4.6-15.3,12.3-16.8,22.9a25.1,25.1,0,0,0,.5,8.6c6.3-.8,11.7,1.4,16.5,5.2,1.4-1.7,1.4-1.7.7-3.3A8.7,8.7,0,0,1,622.1,810.3Zm-15.3,25.6,3.6-5.4,1.1.8L623,839a5.7,5.7,0,0,0,1.3.8,3.5,3.5,0,0,0,4.1-.9,3.5,3.5,0,0,0,.1-4,6,6,0,0,0-1.2-1.1l-12.8-8.7a14.3,14.3,0,0,0-11-2.1l-19,3.7-.7.2c.9,4.7,1.8,9.3,2.7,14.1l6.8-1.4a2.3,2.3,0,0,1,2.1.4l17.2,11.6a14.4,14.4,0,0,0,11,2.5l27.3-5.4a3.3,3.3,0,0,0,2.9-3.9,3.4,3.4,0,0,0-4.2-2.7l-21.8,4.4a9.3,9.3,0,0,1-6.9-1.1c-4.6-2.9-9.1-6-13.7-9.1ZM567,824.4c1.7,9.3,3.5,18.6,5.3,27.6l8.9-1.7c-1.8-9.1-3.6-18.4-5.4-27.6Z"/><path class="cls-14" d="M434,832.7c-.5,3.8-1.3,7.7-1.5,11.6-.1.8,1.4,2,2.5,2.7s3.1,1.5,4.6,2.4,4,3.4,3.2,6.4-3.5,4.2-6.4,3.8-6.7-1.3-9.5-2.9-6.2-4.7-9.2-7.2-3-2.5-5.1-3.1l5.1,5.7c-5.2,1.1-15-1.4-18.3-5.1a7.1,7.1,0,0,1-1.4-5.7c.4-1.5,2.7-2.6,4.5-3.3a6.4,6.4,0,0,1,4.3.2c4.5,1.9,6.9-.2,8.6-4a18.6,18.6,0,0,0,1.7-7.2,37.9,37.9,0,0,0-2,3.4c-2.2,4.5-7.7,7.3-12.4,5.9-1-.3-2.4-1.8-2.3-2.7a3.7,3.7,0,0,1,2.6-2.4c5.1.3,7-3.1,8-7,2.7-10.6,9.4-10.8,17.5-8.9a29.7,29.7,0,0,1,5.7,2c9,4.2,10.5,8.2,7.8,16.3-1.3,4.1-2.3,8.1,2.5,11.1.7.4.4,2.3.6,3.5-1.4.1-2.9.8-4,.3-4.9-2.4-6.9-6.6-6.1-11.9.2-1.2.3-2.4.4-3.6Z"/><path class="cls-14" d="M436.7,816.2c7.4-5.6,11.8-11.7,14-19.4A3.1,3.1,0,0,1,453,795c3.9-.8,7.8-1.3,12.2-1.9.3,9.2-3.2,15.9-8.9,21.7a2.4,2.4,0,0,1-.9.8c-3,1.8-5.8,4-9,5.2S441.5,816.5,436.7,816.2Z"/><path class="cls-14" d="M425.4,811.4c-2.8.3-5.3.7-7.9.8a2.7,2.7,0,0,1-2-.8c-7.2-7.6-7-25.5.9-33.8,3,2.9,6,5.6,8.8,8.7.6.6.6,2.2.3,3.3C423.1,799,423,801.5,425.4,811.4Z"/><path class="cls-14" d="M444.2,774.1c5.5,8.2,5.6,21.3.3,28-5.2-7.9-8.5-9-16.7-5.5C427.2,788.4,434.9,777.8,444.2,774.1Z"/><path class="cls-14" d="M464.3,810.2l9.9,6.3c-4.3,8.6-18.1,13.5-26.6,11.6a2.1,2.1,0,0,1-.3-3.9C454.4,821.6,459.7,816.7,464.3,810.2Z"/><path class="cls-14" d="M394.9,791l12,.8c-.1,7.9,1.5,14.8,5.5,21a3.3,3.3,0,0,1-.3,2.7,2.5,2.5,0,0,1-2.4.4C401.9,813.3,394.1,800.5,394.9,791Z"/><path class="cls-14" d="M441.2,808.4a7.8,7.8,0,0,1-10,5.1,8,8,0,0,1-4.4-10.7,7.7,7.7,0,0,1,10.1-4.8A8,8,0,0,1,441.2,808.4Z"/><path class="cls-14" d="M401,778.8l5.9,8.8-1.6,1.1-5.8-8.9Z"/><path class="cls-14" d="M477.1,804.8l-9.8,3.7-.5-1.1c2.7-2.5,6.4-3,9.7-4.2Z"/><path class="cls-14" d="M426.5,780.3l-.3-9.4h1.7l.3,9.4Z"/><path class="cls-14" d="M460.6,782l-5.8,7.5-1.4-1.1,5.6-7.5Z"/><path class="cls-14" d="M217,610a3.8,3.8,0,0,1-2.4-4.9l4.5-11.9a2.8,2.8,0,0,0,0-1.8,1.6,1.6,0,0,0-1.7-.9,1.8,1.8,0,0,0-1.6,1.2l-2.1,5.6-2.7,7.1-.3.8-.3.8a4,4,0,0,1-2,2.2,3.6,3.6,0,0,1-2.9,0,4,4,0,0,1-2.2-5l.2-.8h.1c.5-1.2,1-2.4,1.4-3.7l3.6-9.5a1.8,1.8,0,1,0-3.3-1.3l-3.6,9.5c-.4,1.1-.9,2.2-1.2,3.3a3.6,3.6,0,0,1-5.4,1.9,3.8,3.8,0,0,1-1.7-4.7c1.5-4.2,3.1-8.3,4.7-12.5a3,3,0,0,0,.2-1,1.7,1.7,0,0,0-1.3-1.8,1.8,1.8,0,0,0-2.1,1.2l-3,7.7c-.4,1.3-.9,2.5-1.4,3.7a3.8,3.8,0,0,1-7.2-1.6,3,3,0,0,1,.2-1c6.1-16.5,12.1-33,18.3-49.4,3.5-9.1,10.5-14.5,20.2-15.8s17.5,2,23.3,9.7,6.3,14.3,3.8,22.5c-.1.1-.1.3-.3.6l-5-2-15.2-5.7a8.6,8.6,0,0,0-11.5,9.7,8.3,8.3,0,0,0,5.5,6.2l14.5,5.5.8.3c-1,.9-1.8,1.8-2.8,2.6a11.3,11.3,0,0,0-3.9,5.7c-3.1,8.4-6.3,16.7-9.4,25.1A3.8,3.8,0,0,1,217,610Z"/><path class="cls-14" d="M240.8,576.5c1,2.1,2.1,4.1,3.1,6.2s.8,1.7,1.3,2.6a1.7,1.7,0,0,0,2.4.8,1.9,1.9,0,0,0,.8-2.5l-5.6-11.1c-.1-.3-.5-.5-.8-.6l-17.9-6.7a5,5,0,0,1-3.5-4.4,4.8,4.8,0,0,1,6.4-5l11.4,4.3c4.5,1.7,9.1,3.2,13.6,5.2a24.6,24.6,0,0,1,13.3,30.3A25.2,25.2,0,0,1,231.7,611l-6.4-2.6c.5-1.5,1.1-2.8,1.6-4.2,2.8-7.5,5.6-14.9,8.5-22.4a.7.7,0,0,1,.3-.6C237.3,579.6,239,578.1,240.8,576.5Z"/><path class="cls-14" d="M187.2,572.4c-1,2.3-1.9,4.6-2.8,6.9-1.7-.7-3.6-1.2-5.4-2a3.7,3.7,0,0,1-1.7-4.7,3.6,3.6,0,0,1,4.4-2.3Z"/><path class="cls-14" d="M194.9,551.6l-2.8,6.8-4.6-1.8a3.5,3.5,0,0,1-2.2-2.1,3.5,3.5,0,0,1,.4-3.8,3.3,3.3,0,0,1,3.6-1.4C191.2,549.9,193,550.8,194.9,551.6Z"/><path class="cls-14" d="M191,561.9c-.9,2.3-1.8,4.6-2.8,7-1.7-.7-3.7-1.4-5.5-2.3a3.7,3.7,0,0,1-1.4-4.7,3.8,3.8,0,0,1,4.5-2.1Z"/><path class="cls-14" d="M180.4,589.8l-3.5-1.3a3.9,3.9,0,0,1-1.9-4.8,3.7,3.7,0,0,1,4.7-2.2c1.1.3,2.3.9,3.4,1.3Z"/><path class="cls-16" d="M188.5,415.3a2.2,2.2,0,0,1,2.7-1.2l1.5.2.3-1.8a3,3,0,0,1,3.5-2.8l2.9.3v-.5c.2-.9.3-1.9.5-2.9a3,3,0,0,1,3.2-2.2l2.2.3a2.9,2.9,0,0,1,2.5,3,4.5,4.5,0,0,1-.1,1.1l-.9,7.3,24,3c0-.2.1-.4.1-.6l.9-7a3.1,3.1,0,0,1,3.8-2.9l1.5.2a3,3,0,0,1,2.8,3.5c-.1,1-.3,2-.4,2.9l2.9.3a3,3,0,0,1,2.7,3.6,13.7,13.7,0,0,1-.2,1.9l1.5.2a2.2,2.2,0,0,1,2.3,1.8l-.4,3a2.4,2.4,0,0,1-2.7,1.2l-1.5-.2c-.1.7-.1,1.3-.2,1.9a3.1,3.1,0,0,1-3.6,2.7l-2.8-.4c-.1.9-.3,1.9-.4,2.9a2.9,2.9,0,0,1-1.6,2.4l-1.2.4-3.2-.4c-1.8-.8-2.3-2.2-2-4.1s.6-4.3.9-6.5v-.7l-24-3v.7l-.9,7a2.9,2.9,0,0,1-1.9,2.7l-.9.2-3.2-.4c-1.8-.8-2.3-2.2-2-4.1a16.6,16.6,0,0,0,.3-2.2l-2.7-.3a3.2,3.2,0,0,1-2.9-3.8,8.8,8.8,0,0,0,.2-1.7l-1.4-.2a2.2,2.2,0,0,1-2.4-1.8Z"/><path class="cls-10" d="M233.5,414.3v.8c-.8,6-1.5,11.9-2.3,17.9v.4a.9.9,0,0,0,.9,1.2l1.7.2c.9.1,1.3-.2,1.4-1,.7-5.3,1.4-10.6,2-15.8a2.8,2.8,0,0,0-1.8-3.2Z"/><path class="cls-10" d="M201.4,410.4v.6c-.8,6-1.5,11.9-2.3,17.9v.5a.9.9,0,0,0,.9,1.1l1.6.2c1,.1,1.4-.1,1.5-1.2.7-5.1,1.3-10.3,2-15.4C205.3,411.8,203.8,410.3,201.4,410.4Z"/><path class="cls-10" d="M230.5,421.2l-23.9-3.1-.3,2,24,3Z"/><path class="cls-10" d="M194.6,415.6l-.9,7c-.1.6.3,1,1,1.1l1.7.2c.8.1,1.2-.2,1.3-1s.4-2.5.5-3.7A3.1,3.1,0,0,0,194.6,415.6Z"/><path class="cls-10" d="M238.8,421.3h-.1c-.3,2.3-.6,4.6-.8,6.9a.9.9,0,0,0,.9,1.1l1.6.2c1,.1,1.4-.2,1.5-1.2s.3-2.3.5-3.5A3.1,3.1,0,0,0,238.8,421.3Z"/><path class="cls-10" d="M201.6,408.3a6.1,6.1,0,0,1,3.9,1.5c.1-.8.2-1.4.3-2a1,1,0,0,0-.9-1.1l-1.9-.3a1,1,0,0,0-1.2.9C201.7,407.6,201.7,407.9,201.6,408.3Z"/><path class="cls-10" d="M233.8,412.4a6.1,6.1,0,0,1,3.8,1.5q.2-1.2.3-2.1a1,1,0,0,0-.8-1l-2.1-.3a1,1,0,0,0-1.1.8A4.1,4.1,0,0,0,233.8,412.4Z"/><path class="cls-10" d="M242.9,420.7a15,15,0,0,0,.2-2,.9.9,0,0,0-.8-1.1l-2.1-.3a1,1,0,0,0-1,.7c-.1.3-.1.8-.2,1.2A6.1,6.1,0,0,1,242.9,420.7Z"/><path class="cls-10" d="M194.9,413.5a6.5,6.5,0,0,1,2,.5,15.1,15.1,0,0,1,1.8.9l.3-1.8a1.1,1.1,0,0,0-.9-1.2l-2-.2a.9.9,0,0,0-1.1.8A3.4,3.4,0,0,0,194.9,413.5Z"/><path class="cls-10" d="M192.2,418.3l.2-2-1.9-.2-.3,1.9Z"/><path class="cls-10" d="M244.7,423l-.3,1.9,1.9.3.3-1.9Z"/><path class="cls-16" d="M212,374.9a9.4,9.4,0,0,1,6.2,3.7c1.2,1.4,2.4,3,3.5,4.5a1.9,1.9,0,0,0,3,.3l4.2-3.2a9.8,9.8,0,0,1,16,7.5,9.8,9.8,0,0,1-4,8.4l-13.3,10.4-7.5,5.8c-.5.5-.8.4-1.2-.1l-16.1-21.1a10.1,10.1,0,0,1,5.1-15.9A13.7,13.7,0,0,1,212,374.9Z"/><path class="cls-10" d="M219.2,392.7c.3,1.1.5,2.3.8,3.5a1.5,1.5,0,0,0,1,1.2,1.4,1.4,0,0,0,1.9-.9c.5-.9.8-1.9,1.3-2.9l.5,1.5a1.6,1.6,0,0,0,1.3,1l5.6.7a1.3,1.3,0,0,0,1-.4c.5-.6.1-1.4-.8-1.6l-4.3-.5c-.7-.1-1.2-.3-1.3-1.1l-.4-1.2a1.6,1.6,0,0,0-1.5-1.3c-.7-.1-1.2.3-1.6,1.2s-.7,1.5-1,2.4a34.2,34.2,0,0,1-.9-3.8c-.3-.9-.7-1.4-1.4-1.5a1.6,1.6,0,0,0-1.7,1.1l-1.3,2.3c-.1.3-.3.4-.7.4l-3.6-.5c-.8-.1-1.3.2-1.4.9s.4,1,1.1,1.1l4.2.5a1.5,1.5,0,0,0,1.9-.9"/><path class="cls-14" d="M308.2,320.4l-4.8-.8a63.3,63.3,0,0,1-14.8-4.5l-.5-.2,1.5-3.3a13.5,13.5,0,0,0,1.5-4.4,10.6,10.6,0,0,0-3.3-9.2l-.5-.4a8.6,8.6,0,0,0,5.7-5.4,8.8,8.8,0,0,0-1-7.7v-.2a22.2,22.2,0,0,1,3.7.9c3.9,1.7,7.9,3.4,11.7,5.4s8,9.3,6.9,14.9a26.1,26.1,0,0,1-.6,2.7Z"/><path class="cls-14" d="M284.1,280.8a8.7,8.7,0,0,0-7.1,12.1,10.6,10.6,0,0,0-11.3,5.7c-.8,1.6-1.5,3.2-2.3,4.9l-.6-.3a71.1,71.1,0,0,1-16.1-11.1c-.4-.3-.5-.5-.2-1,1.6-3.4,3.1-6.9,4.8-10.3a14.6,14.6,0,0,1,16.7-8.3l2.8,1,10,4.7A11.5,11.5,0,0,1,284.1,280.8Z"/><path class="cls-14" d="M275.6,274.8a11.5,11.5,0,1,1,9.7-20.8,11.5,11.5,0,1,1-9.7,20.8Z"/><path class="cls-14" d="M302,287a11.5,11.5,0,1,1,9.7-20.8A11.5,11.5,0,1,1,302,287Z"/><path class="cls-14" d="M263.8,306.3c1.3-2.7,2.3-5.5,3.8-8.1a8.8,8.8,0,0,1,10.6-3.5,46.1,46.1,0,0,1,7.4,3.6,8.7,8.7,0,0,1,3.5,10.9c-1,2.3-2.1,4.5-3.1,6.8a.6.6,0,0,1-.7.4,21.5,21.5,0,0,1-6.7-1.2,38.2,38.2,0,0,1-14.6-8.7A.2.2,0,0,1,263.8,306.3Z"/><path class="cls-14" d="M288,282.9a7.2,7.2,0,0,1,3.3,9.5,7,7,0,0,1-9.5,3.3,7.1,7.1,0,0,1,6.2-12.8Z"/><path class="cls-14" d="M372.5,201.4a45.9,45.9,0,0,0,10.3-8.2,17.3,17.3,0,0,0,5.1-11.9c.2-10.8,5.3-19.1,14.5-24.4,7.6-4.5,15.3-3.6,22.7.8,5.7,3.4,10.3,7.9,12.7,14.1a26.5,26.5,0,0,1-1.3,22.5,5.5,5.5,0,0,1-2,2,5.1,5.1,0,0,0-2.9,4.9,42.9,42.9,0,0,1-1.2,8c-.5,2.3-1.3,2.5-3.4,1.6l-1.2-.6c-1.5-.8-1.8-.7-2.4.9a1.4,1.4,0,0,0-.2.6c-.6,1.7-.6,1.7-2.3,1.3-.2,2-.2,2-2.3,2.1a2.6,2.6,0,0,0-1.7,1.2,17.5,17.5,0,0,0-1.1,2.4c-1.3,2.7-3.7,3.4-6,1.6a29.8,29.8,0,0,1-3.7-3.4l-1-1a2.2,2.2,0,0,0-3.2,0l-4.9,4.6a.9.9,0,0,1-1.4.1l-22.7-18.9Zm26.5-23-1.9,3.9c-.6,1.3-1.2,2.6-1.9,3.9a1,1,0,0,0,.3,1.5c.6.4,1,.7,1.8.2l5.4-3.2a3.8,3.8,0,0,1,3.7-.1,18.3,18.3,0,0,0,3.2,1.4,4.5,4.5,0,0,0,2.8,0,4.1,4.1,0,0,1,2.9-.2,3.7,3.7,0,0,1,1.7,1,16.4,16.4,0,0,0,2.6,1.6,4.7,4.7,0,0,1,1.2.7,5,5,0,0,0,4.8,1.8H427a4,4,0,0,0,3.7-1.2,2.9,2.9,0,0,1,1.3-.8,4.5,4.5,0,0,0,2.7-6.3,1.7,1.7,0,0,1-.1-1c.6-1.9.5-2.4-1.1-3.6.5-2.6-.1-4.6-2.5-6a3,3,0,0,1-.4-1,5.2,5.2,0,0,0-3.2-4.2,1.6,1.6,0,0,1-.8-1c-.4-1.3-1.1-2.5-2.5-2.7s-2.7-.6-3.5-1.8a1.2,1.2,0,0,0-.8-.4c-1.6.1-3-.7-4.5-1.2s-3.3-.1-4.9-.1a14.5,14.5,0,0,0-3.5.7,22.1,22.1,0,0,0-5.3,2.7,7.3,7.3,0,0,0-.8.9,3.8,3.8,0,0,1-1.1,1.1,6.5,6.5,0,0,0-3.2,6.7c0,.3.1.6,0,.8C395.6,175.2,396.6,177.1,399,178.4Z"/><path class="cls-14" d="M575.3,186.2c-1.8-.5-3.6-.3-4.6,1.3a6.4,6.4,0,0,1-3.3,2.8c-1.7-2.2-3.9-2.7-6.5-1.3a5.8,5.8,0,0,0-6.1-2.9,5.6,5.6,0,0,0-4.8,4.5c-2.8.2-4.8-1.3-6.9-2.6a28.6,28.6,0,1,1,44.6-21.2,29,29,0,0,1-5.1,13.9,1.2,1.2,0,0,1-1.3.7,6,6,0,0,0-5.7,4Zm-37.7-28.5a21,21,0,0,0,12.8,20.7A21.3,21.3,0,0,0,577,147.6c-5.1-8.1-14-10.7-19.1-10a18.2,18.2,0,0,1,15.8,19.3,18.1,18.1,0,0,1-36.1.8Zm30.2-9.5c-.3,1.3-.7,2.6-2.5,2.5a7.1,7.1,0,0,1,1.7,1.1,4.8,4.8,0,0,1,.7,1.8,3.4,3.4,0,0,1,2.5-2.8C568.5,150.7,568.1,149.6,567.8,148.2Zm-8.4,19.3a2.9,2.9,0,0,1,2.2,2.5c.4-1.2.8-2.2,2.2-2.6-1.7.1-1.8-1.2-2.2-2.3C561.4,166.4,561,167.4,559.4,167.5Zm-6.9-25.1a1.2,1.2,0,0,0-1.2-1.3,1.4,1.4,0,0,0-1.4,1.3,1.3,1.3,0,0,0,2.6,0Zm-8.2,14.8a2.5,2.5,0,0,1,2,2.2,2.4,2.4,0,0,1,1.9-2.1c-1.3-.6-1.3-.6-2-2.2C546,156.3,545.7,157.2,544.3,157.2Zm9,10.7v-.5c-.3-.3-.7-.8-1.1-.9a.9.9,0,0,0-1.1,1,1.2,1.2,0,0,0,.9,1C552.4,168.6,552.9,168.1,553.3,167.9Zm6.1-14.3c-.3.5-.7.8-.7,1s.5.5.8.7.5-.5.5-.8S559.7,154,559.4,153.6Z"/><path class="cls-14" d="M525.1,150.4c.1.3.1.4.2.5s.2,1.8.8,2.4,1.4.6,2.6,1c-2.4.4-3.2,1.9-3.6,3.9-.4-2-1.3-3.5-3.5-3.8.1-.2.1-.3.2-.3a3,3,0,0,0,3.1-3A2.5,2.5,0,0,1,525.1,150.4Z"/><path class="cls-14" d="M535.7,138.3c-1.4.4-1.8,1.4-2.2,2.5-.4-1.1-.7-2.2-2.2-2.4a2.1,2.1,0,0,0,2.1-2.4C533.8,137.1,534,138.4,535.7,138.3Z"/><path class="cls-14" d="M575.3,133.5a1.2,1.2,0,1,1-2.4,0,1.1,1.1,0,0,1,1.2-1.2A1.1,1.1,0,0,1,575.3,133.5Z"/><path class="cls-14" d="M322.3,745.9a4.4,4.4,0,0,0,1-3.8,3.9,3.9,0,0,1,1.1-3.7c1.2-1.2,2.2-2.5,3.4-3.7s.3-.2.5-.3h.3l.9-1a.5.5,0,0,0-.1-.8l-2.5-2.2c-.3-.3-.5-.3-.8,0l-.8.9-.2.3c.2.4-.1.6-.3.8l-3.3,3.7a3.7,3.7,0,0,1-3,1.5,6.5,6.5,0,0,0-3.1.5,1.6,1.6,0,0,0-.7.9,9,9,0,0,1-1.7,3,10.8,10.8,0,0,1-3.6,3.1,4,4,0,0,0-1.6,1.2l-3.2,3.6.5,8.9.3.4,2,1.6a1.3,1.3,0,0,0,2-.2l9.8-11Zm-9.9,9.4-5.4-4.8,7.2-8,5.3,4.8Z"/><path class="cls-14" d="M287.9,711.9c0-.5-.1-1-.1-1.4s-.6-.9-.9-.6a1,1,0,0,0-.2.7c0,1.3.1,2.5.2,3.7l-6,.4v-1.8c-.1-.4-.2-.6-.7-.6a.6.6,0,0,0-.6.6,14.8,14.8,0,0,0,.1,2.1c0,1.1.1,2.3.2,3.5s.3.8.7.7.6-.2.6-.8-.1-1-.2-1.5l6-.4c.1,1.3.2,2.6.2,3.8a.5.5,0,0,0,.6.6c.4,0,.6-.2.5-.6v-1.1l8.8-.5v.7h0L296,696.3c.2,5,.5,9.9.7,15Zm9.1,5.8h-.6a19.4,19.4,0,0,1-.2-2.4c0-.3,0-.5-.4-.5s-.4.3-.3.5a19.3,19.3,0,0,0,.1,2.4h-1.9c0-.6-.1-1.3-.1-2a.4.4,0,0,0-.1-.3.8.8,0,0,0-.4-.4c-.1.2-.2.3-.2.5v2.2h-1.5c0-.6-.1-1.2-.1-1.9v-.4c0-.3-.1-.5-.5-.5s-.3.3-.3.5.1,1.4.1,2.1.1.2.1.3h-2.5c-.1-1.7-.2-3.5-.3-5.5l8.8-.3C296.8,714,296.9,715.9,297,717.7Z"/><path class="cls-14" d="M298.8,751.1h0v.2c.2,3.7.4,7.5.7,11.3v.5l-.6-12Z"/><path class="cls-14" d="M335.5,749a39,39,0,0,0,4.5-25.9,38.2,38.2,0,0,0-11.3-21.7,39.5,39.5,0,0,0-9-6.8,38.9,38.9,0,0,0-33.3-2.3,37.7,37.7,0,0,0-13.8,8.9,38.3,38.3,0,0,0-7.7,10.7,39.2,39.2,0,0,0-3.4,24.1,39.9,39.9,0,0,0,12.8,23.2,44.9,44.9,0,0,0,7.6,5.3,39.9,39.9,0,0,0,26.7,4A39,39,0,0,0,330,756.7,34.9,34.9,0,0,0,335.5,749Zm-11.4,4.9a32.2,32.2,0,0,1-18.8,8.9l-5.8.3A34.1,34.1,0,0,1,267.1,731,33.2,33.2,0,0,1,296,696.3l5.7-.3,2.2.2a33.1,33.1,0,0,1,12.6,3.9,30.3,30.3,0,0,1,7.6,5.7,32.7,32.7,0,0,1,9.6,18.2,33.4,33.4,0,0,1-4.2,23.1A35.1,35.1,0,0,1,324.1,753.9Z"/><path class="cls-14" d="M295.8,723.2a18.1,18.1,0,0,1-7.7,10.1l.6-.3.6-.2a12.8,12.8,0,0,1,7.5-.1c.2,0,.5,0,.4.3s.2.7-.3.9a12.6,12.6,0,0,1-6.6,1.2h-2a9.9,9.9,0,0,1,5.1,4.2,9.3,9.3,0,0,1-6.3-3.1l.7,3.3a3.6,3.6,0,0,1-1.7-1.8,20.2,20.2,0,0,1-.7-2.3l-1.4,1.5c-.1-.5-.2-.8.1-1.1l.9-1c-1.7-.1-3.3-.2-4.5-1.8l3.3.3a9.6,9.6,0,0,1-3.6-5.8,10,10,0,0,1,4.7,4.6,19.4,19.4,0,0,1-.5-6.8l.6-2.4.7-1.2a19.4,19.4,0,0,1,1.4,5.1,18,18,0,0,1-.5,5.2,17.9,17.9,0,0,1,3.8-5.2A14.4,14.4,0,0,1,295.8,723.2Z"/><path class="cls-14" d="M312.6,740.8a8.3,8.3,0,0,0,1.7-3.2c.1-.3,0-.5-.3-.8l-2.8-2.5-2.7-2.4c-.7-.7-.9-.7-1.8-.3a14.4,14.4,0,0,0-2.5,1.8l.2,2.4a1,1,0,0,1,.4-.5.8.8,0,0,0-.4-.4,9.6,9.6,0,0,1,2.9-2.4h.4l5.3,4.7c.1.1.1.4.1.5a9.2,9.2,0,0,1-2,3.1l-5.6-5.1-1.1,1.2.4,6.8h.2a6.3,6.3,0,0,0,5.2-.7A10.5,10.5,0,0,0,312.6,740.8Z"/><path class="cls-14" d="M297.4,755.5l-1-1.9a2.1,2.1,0,0,1,.4-2.5l1.5-1.6v-2l-2.5,2.9a2.7,2.7,0,0,1-1.2.6,3.6,3.6,0,0,1-1.4-.2l-1.7-.7a.7.7,0,0,0-.7.2c-.3.1-.1.4.1.5a1,1,0,0,0,.4.5l5.1,4.5.6.5.6-.2C297.6,756,297.5,755.7,297.4,755.5Z"/><path class="cls-14" d="M281.8,739.5l7.5,6.7a4,4,0,0,1,1,2.4.3.3,0,0,1-.1.2c-.5.5-.9,1.1-1.4,1.5a1.7,1.7,0,0,1-1,.3,2.6,2.6,0,0,1-2-.8L271.4,737a2,2,0,0,1-.4-3,3.7,3.7,0,0,1,1.2-1.3,1.5,1.5,0,0,1,2,0l6.5,5.8,1.1,1Zm-6-4-2,2.2,10.2,9.1,2-2.2Zm11,9.8-2,2.2.4.4,2-2.2Z"/><path class="cls-14" d="M315.7,713l5.2-.4,4.1-.3h.3c.1.1.4.3.4.4a.4.4,0,0,1-.4.4l-3.1.2-6.4.4c-.3.8-.4.9-1.2,1l-1.6.2c-.1.4-.2.8-.6.7s-.5-.5-.5-.9h-1.2v1.5c-.1.8-.4,1.2-1.2,1.2l-5.7.4c-.2,0-.4,0-.4-.3s-.1-3-.2-4.5.1-.4.4-.4l4.7-.4c.4,0,.5.2.5.5s.1,2.2.2,3.2v.5h.7l-.4-5.1-6.2.4v-.9l2.2-.2,3.9-.2c.9-.1,1.1.1,1.3,1s.1.8.1,1.1h1.2c0-.4-.1-.9.5-.9s.6.3.6.8l1.1-.2H315C315.4,712.3,315.7,712.4,315.7,713Z"/><path class="cls-14" d="M326.9,717.6a1.9,1.9,0,0,1,.6,2.1,2,2,0,0,1-1.8,1.5l-6.3.5a1.8,1.8,0,0,1-2.2-1.8,2,2,0,0,1,1.9-2.2l5-.4,1.5-.2A1.7,1.7,0,0,1,326.9,717.6Zm-5.6.5-2.3.3a1.3,1.3,0,0,0-1.1,1.5,1.2,1.2,0,0,0,1.4,1.2h1.9c.3,0,.5-.2.4-.5Zm5.1.5c.1-.5-.1-.7-.4-.7a.9.9,0,0,0-.7,0l-2.5.2c-.6,0-.7.1-.6.5Z"/><path class="cls-14" d="M317.5,734.2a1.9,1.9,0,0,1-1.6.3,13.1,13.1,0,0,1-4.7-2,1.8,1.8,0,0,1-.6-2.1,1.7,1.7,0,0,1,1.9-1.1,12.6,12.6,0,0,1,4.8,2C318.3,732,318.4,733.1,317.5,734.2Zm-2.9-3.4h-.3l-.7,2.2h.2Z"/><path class="cls-14" d="M329.4,727.6a4.9,4.9,0,0,1-3.6,1.5,2.4,2.4,0,0,1-2.2-1.5,2,2,0,0,1,.6-2.3,4.3,4.3,0,0,1,4.3-1.3,2.1,2.1,0,0,1,1,.4c1.1.7.8,2,.2,2.9Zm-2.8-2.9h-.3c-.1.1-.2.3-.1.4a23.3,23.3,0,0,0,1.1,2.8l.3.2a.2.2,0,0,0,.2-.2c.1-.2,0-.3,0-.4s-.7-1.7-1.1-2.5S326.6,724.8,326.6,724.7Z"/><path class="cls-14" d="M271.8,732.2c-.7-1.7.6-3.9,2.2-4.6l1.3-.5a4.8,4.8,0,0,0,3.5-4.6.1.1,0,0,1,.1-.1,4.5,4.5,0,0,1,0,3.6,4.4,4.4,0,0,1-3.4,2.8l-1.1.4A3.8,3.8,0,0,0,271.8,732.2Z"/><path class="cls-14" d="M311.6,721a2.3,2.3,0,0,1,2.3-.6,1.6,1.6,0,0,1,1.4,1.5,5.8,5.8,0,0,1-.1,3.2,2.5,2.5,0,0,1-2.4,1.5,1.9,1.9,0,0,1-1.7-1.5,5.6,5.6,0,0,1,.2-3.6Zm3.1,3.1-3-1.1a3,3,0,0,0,.3,2.3c.1.2.2.4.4.4a1.4,1.4,0,0,0,1.6-.2A1.5,1.5,0,0,0,314.7,724.1Zm.1-.7a3.1,3.1,0,0,1-.1-.9,1.5,1.5,0,0,0-2.4-1.3l-.5.7c0,.2.3.4.5.5Z"/><path class="cls-14" d="M308.6,721.4a2.4,2.4,0,0,1,1,2,4.6,4.6,0,0,1-.8,2.8,2,2,0,0,1-2,.9,2,2,0,0,1-1.9-1.4,4,4,0,0,1,.9-4A2.2,2.2,0,0,1,308.6,721.4Zm.2,2.5h-2.3c-1.1.1-1.2.2-1,1.3a1.8,1.8,0,0,0,1.1,1,1.2,1.2,0,0,0,1.4-.4A3.9,3.9,0,0,0,308.8,723.9Zm-.1-.7c.1-.9-.3-1.4-1.2-1.4a1.6,1.6,0,0,0-1.8,1.7Z"/><path class="cls-14" d="M321,728.1a3.1,3.1,0,0,1-4.1.1,2.4,2.4,0,0,1,.3-3.4,3.1,3.1,0,0,1,2.1-.7,2,2,0,0,1,2.1,1.3A2.6,2.6,0,0,1,321,728.1Zm-1.5.1a1.9,1.9,0,0,0,1.3-1.7,1.6,1.6,0,0,0-1.3-1.7c-.2,0-.5-.1-.5.3A28.7,28.7,0,0,1,319.5,728.2Zm-1.3-3.2a1.8,1.8,0,0,0-1.1,2.1,1.6,1.6,0,0,0,1.7,1.1Z"/><path class="cls-14" d="M305.3,762.8l-5.8.3-.6-12.7v-4.8L296,696.3l5.7-.3,2,38,.2,2.3v1.2l.4,6.8.3,5.5.5,8.9H305Z"/><path class="cls-14" d="M305.3,762.8l-.3-4.1h.1Z"/><path class="cls-14" d="M529.7,207.1a8.9,8.9,0,0,1-1.3,4.6,6.8,6.8,0,0,1-3.1,2.7,12.1,12.1,0,0,1-4.8.7l-4.6-.3.9-16.5,5.1.3a9.4,9.4,0,0,1,4.3,1.2,6.3,6.3,0,0,1,2.8,2.8A9.3,9.3,0,0,1,529.7,207.1Zm-2.8,0a7,7,0,0,0-.5-3.4,3.9,3.9,0,0,0-1.7-2.1,8.2,8.2,0,0,0-3-.8h-2.3l-.7,12h1.9a6,6,0,0,0,4.6-1.3A6.2,6.2,0,0,0,526.9,207.1Z"/><path class="cls-14" d="M538.4,199.5a11.4,11.4,0,0,1,3.5.7,4,4,0,0,1,1.9,1.7,4.5,4.5,0,0,1,.6,2.7,4.7,4.7,0,0,1-.6,2.1,5.3,5.3,0,0,1-1.2,1.4l-1.7.8,4.3,7.5-3-.2-3.7-6.8h-2.6l-.4,6.6-2.7-.2.9-16.5Zm-.3,2.3h-1.8L536,207h1.9a4.5,4.5,0,0,0,2.8-.5,2.5,2.5,0,0,0,.9-2,2.1,2.1,0,0,0-.8-2.1A4.8,4.8,0,0,0,538.1,201.8Z"/><path class="cls-14" d="M556.9,217.1l-9.3-.6.9-16.5,9.3.6v2.2l-6.6-.3-.3,4.5,6.2.3v2.3l-6.2-.4-.3,5.2,6.7.4Z"/><path class="cls-14" d="M570.7,217.8l-1.4-4.7-6.3-.3-1.8,4.5-2.9-.2,7.1-16.2,3,.2,5.2,16.9Zm-1.9-7-1.4-4.6a5.1,5.1,0,0,0-.2-.9,3.6,3.6,0,0,1-.2-1.1l-.3-.9-.3,1-.4,1a3.4,3.4,0,0,1-.3.8l-1.8,4.4Z"/><path class="cls-14" d="M582.9,218.5l-4-14.1h-.1v3c0,.6-.1,1.2-.1,1.8l-.5,9h-2.4l.9-16.5,3.8.2,3.8,13.4h.1l5.4-12.9,3.8.2-.9,16.5h-2.6l.5-9.2a9.1,9.1,0,0,0,.1-1.7c.1-.5.1-1.1.2-1.6a6.6,6.6,0,0,0,.1-1.3h-.1l-5.6,13.5Z"/><path class="cls-14" d="M639.7,216.9l3.4,1.9a7.4,7.4,0,0,1,2.9,2.5,2.6,2.6,0,0,1-.1,2.8c-.3.4-.5.8-.9,1a1.6,1.6,0,0,1-1.1.5,3.3,3.3,0,0,1-1.4-.1h0a4.4,4.4,0,0,1,.9,1.1,2,2,0,0,1,.4,1.3,3.7,3.7,0,0,1-.5,1.6,3.4,3.4,0,0,1-3.6,1.8,7.9,7.9,0,0,1-2.3-.8l-4.1-2.3Zm-1.6,7.2-2.1,3.6,2,1.1a3.2,3.2,0,0,0,2.1.5,2,2,0,0,0,1.3-1.1,1.9,1.9,0,0,0,.3-1,1.8,1.8,0,0,0-.4-1,5.7,5.7,0,0,0-1.4-1.1Zm.8-1.5,1.8,1a3.7,3.7,0,0,0,2,.6,1.5,1.5,0,0,0,1.1-1,1.2,1.2,0,0,0,.1-1.5,3.7,3.7,0,0,0-1.6-1.3l-1.6-.9Z"/><path class="cls-14" d="M643.7,234.1l6.5-11.3,1.8,1-6.4,11.3Z"/><path class="cls-14" d="M658.2,227.3a8.2,8.2,0,0,1,2.2,1.8,3.6,3.6,0,0,1,.8,1.8,4.2,4.2,0,0,1-.6,2.1,3.6,3.6,0,0,1-1.1,1.3,3.4,3.4,0,0,1-1.4.5h-1.4l.4,6.8-2.1-1.1-.2-6.1-1.8-1-2.6,4.5-1.8-1.1,6.4-11.3Zm-1,1.5-1.2-.7-2.1,3.7,1.3.7a3.1,3.1,0,0,0,2.1.6,1.9,1.9,0,0,0,1.4-1.1,1.7,1.7,0,0,0,.1-1.7A3.9,3.9,0,0,0,657.2,228.8Z"/><path class="cls-14" d="M662.6,244.8l-1.9-1.1,5.6-9.7-3.3-1.9.8-1.6,8.5,4.9-.9,1.5-3.3-1.8Z"/><path class="cls-14" d="M676.5,252.7l-1.8-1.1,2.9-5.1-5.2-2.9-2.9,5.1-1.9-1.1,6.4-11.3,1.9,1.1-2.6,4.6,5.2,3,2.6-4.7,1.9,1.1Z"/><path class="cls-14" d="M693.3,247.3A5,5,0,0,1,696,250a3.5,3.5,0,0,1-.4,3.1,4,4,0,0,1-1,1.2,3.9,3.9,0,0,1-1.4.8h-1.8a6.1,6.1,0,0,1-2.3-.9l-1.2-.7-2.4,4.3-1.9-1.1,6.5-11.3Zm-1,1.5L691,248l-2.2,4,1,.6,1.6.6a2.8,2.8,0,0,0,1.3-.1,2.4,2.4,0,0,0,1-1,2.4,2.4,0,0,0,.2-1.8A2.6,2.6,0,0,0,692.3,248.8Z"/><path class="cls-14" d="M693.4,262.2l6.4-11.3,1.8,1.1-5.5,9.7,4.8,2.7L700,266Z"/><path class="cls-14" d="M709,271.1l.7-3.8-4.4-2.4-2.9,2.5-1.9-1.1,10.6-9,2.1,1.2L711,272.2Zm1.1-5.6.7-3.7a2,2,0,0,1,.1-.7c.1-.3.1-.6.2-.9a6.4,6.4,0,0,1,.2-.7,1.7,1.7,0,0,0-.6.6l-.7.6-.4.4-2.8,2.5Z"/><path class="cls-14" d="M722.9,265.9a3.7,3.7,0,0,0-1.6-.5,2.9,2.9,0,0,0-1.6.2,3.3,3.3,0,0,0-1.4,1,7,7,0,0,0-1.3,1.6,6.9,6.9,0,0,0-.9,2.5,3.9,3.9,0,0,0,.3,2.1,4.9,4.9,0,0,0,1.6,1.6l1.5.6,1.7.4-.9,1.6-1.7-.4-1.7-.8a5.9,5.9,0,0,1-2.4-2.3,5.1,5.1,0,0,1-.6-3,9.9,9.9,0,0,1,1.2-3.4,7.4,7.4,0,0,1,1.7-2.1,5.7,5.7,0,0,1,2.1-1.3,4.4,4.4,0,0,1,2.3-.2,6.5,6.5,0,0,1,2.6.8,8.8,8.8,0,0,1,1.5,1.2,8.6,8.6,0,0,1,1.3,1.4L725,268a4.8,4.8,0,0,0-.9-1.1Z"/><path class="cls-14" d="M728.9,282.4l-6.4-3.6,6.4-11.3,6.4,3.6-.9,1.5-4.5-2.5-1.8,3,4.3,2.5-.9,1.5-4.3-2.4-2,3.5,4.6,2.6Z"/><path class="cls-14" d="M394.5,750.9a3.4,3.4,0,0,1-1.2-1.2,2.9,2.9,0,0,1-.2-1.6,5.6,5.6,0,0,1,.6-2l.6-.9.7-.8.6-.6,1.5.8-1.2,1a6.4,6.4,0,0,0-1,1.3,2.6,2.6,0,0,0-.3,1.1,1.1,1.1,0,0,0,.1.8,1.2,1.2,0,0,0,.5.5,1.5,1.5,0,0,0,.9.2,2,2,0,0,0,.8-.4l1.2-.8.8-.6,1-.5h1l1.1.4a2.9,2.9,0,0,1,1.1,1.1,2.2,2.2,0,0,1,.3,1.6,3.2,3.2,0,0,1-.6,1.7,3.8,3.8,0,0,1-.9,1.3l-1.1,1-.9-1.2.9-.8.8-1a4.6,4.6,0,0,1,.3-.9,1.1,1.1,0,0,0-.2-.8,1.2,1.2,0,0,0-.5-.5l-.8-.2-.8.4a5.9,5.9,0,0,0-1.1.8,5.5,5.5,0,0,1-1.4.9l-1.2.4A4.3,4.3,0,0,1,394.5,750.9Z"/><path class="cls-14" d="M398.7,759a4.1,4.1,0,0,1-2.1,2.2,3.7,3.7,0,0,1-2.5-.3l-1-.8a4.7,4.7,0,0,1-.7-1.2,3.3,3.3,0,0,1,0-1.4,5.6,5.6,0,0,1,.7-1.9l.5-.9-3.4-1.9.9-1.5,9.1,5Zm-1.2-.8.6-1.1-3.2-1.7-.5.8a3.8,3.8,0,0,0-.4,1.3,1.1,1.1,0,0,0,.1,1,1.5,1.5,0,0,0,.8.8,1.8,1.8,0,0,0,1.4.2A2.2,2.2,0,0,0,397.5,758.2Z"/><path class="cls-14" d="M386.7,759.1l9.1,5.1-.8,1.5-9.1-5.1Z"/><path class="cls-14" d="M392.3,770.7a7,7,0,0,1-1.4,1.8,3.4,3.4,0,0,1-1.5.7,3.7,3.7,0,0,1-1.7-.5,2.4,2.4,0,0,1-1.1-.9,3.6,3.6,0,0,1-.4-1.1v-1.1l-5.5.3,1-1.7h4.8l.9-1.5-3.7-2,.8-1.5,9.2,5Zm-1.3-.8.6-1-3-1.6-.6,1a2.4,2.4,0,0,0-.4,1.7,1.8,1.8,0,0,0,.9,1.2,1.7,1.7,0,0,0,1.4.1A2.7,2.7,0,0,0,391,769.9Z"/><path class="cls-14" d="M380,771.2l9.1,5.1-.8,1.5-9.1-5Z"/><path class="cls-14" d="M376.1,778.3l.8-1.5,7.9,4.4,1.5-2.7,1.2.7-3.8,6.9-1.2-.7,1.4-2.7Z"/><path class="cls-14" d="M379,794.7l-5.9-3.3a3.4,3.4,0,0,1-1.5-1.4,3,3,0,0,1-.5-1.9,4.9,4.9,0,0,1,.6-2.2,4.4,4.4,0,0,1,2.5-2.2,3.8,3.8,0,0,1,2.9.4l5.9,3.3-.8,1.5-5.8-3.2a2.5,2.5,0,0,0-2-.4,2.9,2.9,0,0,0-1.4,1.3,2.5,2.5,0,0,0-.4,1.4,1.7,1.7,0,0,0,.4,1.1,3.5,3.5,0,0,0,1.1.9l5.7,3.2Z"/><path class="cls-14" d="M365.4,797.6l3.1.5,1.9-3.5-2.1-2.3.9-1.6,7.3,8.5-.9,1.7-11.1-1.7Zm4.5.8,3,.5.6.2h1.3l-.5-.4-.5-.5c-.1-.2-.3-.3-.3-.4l-2.1-2.3Z"/><path class="cls-14" d="M363.9,800.4l9.1,5.1-.8,1.5-7.9-4.4-2.1,3.9-1.3-.7Z"/><path class="cls-14" d="M360,807.4l9.2,5-.9,1.5-9.1-5Z"/><path class="cls-14" d="M356.1,814.5l.8-1.6,7.9,4.4,1.5-2.7,1.3.7-3.8,6.9-1.3-.7,1.5-2.7Z"/><path class="cls-14" d="M357.4,823.9l3,4.4-.9,1.7-4-6.2-3.5-1.9.8-1.5,3.5,1.9h7.4l-1,1.6Z"/><path class="cls-14" d="M771.5,306.8a5.7,5.7,0,0,0-1.5-1.6,4,4,0,0,0-1.8-.7,5.5,5.5,0,0,0-2.2.2,8.2,8.2,0,0,0-2.4,1,8,8,0,0,0-2.6,2.1,4.9,4.9,0,0,0-1,2.5,5.2,5.2,0,0,0,.8,2.8,10.4,10.4,0,0,0,1.2,1.7l1.5,1.5-2,1.1L760,316a17.4,17.4,0,0,1-1.3-2,7.6,7.6,0,0,1-1.3-4.1,6.9,6.9,0,0,1,1.3-3.7,11.7,11.7,0,0,1,3.5-3,12.7,12.7,0,0,1,3.2-1.3,8.1,8.1,0,0,1,3.1,0,6.6,6.6,0,0,1,2.7,1.2,8.4,8.4,0,0,1,2.3,2.6,14.7,14.7,0,0,1,1,2.2,10,10,0,0,1,.4,2.4l-2.4.3-.3-1.9A10.7,10.7,0,0,0,771.5,306.8Z"/><path class="cls-14" d="M783.7,323.5l-9.2,5.5a5.8,5.8,0,0,1-3,.9,4.6,4.6,0,0,1-3-.8,7.9,7.9,0,0,1-2.6-2.8,6.4,6.4,0,0,1-1-5,6.3,6.3,0,0,1,3-3.7l9.1-5.4,1.4,2.4-8.9,5.3a4.5,4.5,0,0,0-2.2,2.4,4.1,4.1,0,0,0,.7,3,3.9,3.9,0,0,0,1.5,1.6,3.4,3.4,0,0,0,1.8.4,8,8,0,0,0,2.1-.8l8.9-5.3Z"/><path class="cls-14" d="M771.6,335.6l14.2-8.4,1.4,2.3L775,336.7l3.5,6.1-2,1.1Z"/><path class="cls-14" d="M780.9,351.3l-1.4-2.3,12.3-7.2-2.5-4.2,2-1.2,6.3,10.7-2,1.2-2.5-4.2Z"/><path class="cls-14" d="M805.4,360.5l-9.2,5.4a5.8,5.8,0,0,1-3,.9,4.9,4.9,0,0,1-3-.8,8.4,8.4,0,0,1-2.6-2.7,7,7,0,0,1-1-5.1,5.8,5.8,0,0,1,3-3.6l9.2-5.4,1.4,2.3-9,5.3a3.9,3.9,0,0,0-2.1,2.4,3.5,3.5,0,0,0,.6,3,3.9,3.9,0,0,0,1.5,1.6,2.7,2.7,0,0,0,1.8.4,6,6,0,0,0,2.1-.8l9-5.3Z"/><path class="cls-14" d="M809.9,368.1a9.1,9.1,0,0,1,1.4,3.3,5.3,5.3,0,0,1-.3,2.6,5.5,5.5,0,0,1-2,2,4.1,4.1,0,0,1-2,.6,3.1,3.1,0,0,1-1.9-.3,4.6,4.6,0,0,1-1.5-.9l-4,7.8-1.5-2.7,3.7-6.8-1.4-2.2-5.7,3.3-1.4-2.3,14.3-8.4Zm-2,1-.9-1.5-4.6,2.7.9,1.6a3.8,3.8,0,0,0,2,2,2.2,2.2,0,0,0,2.2-.3,2.3,2.3,0,0,0,1.3-1.8A6,6,0,0,0,807.9,369.1Z"/><path class="cls-14" d="M805.6,393.3l-4.8-8.1,14.3-8.4,4.7,8.1-1.9,1.2-3.4-5.8-3.9,2.3,3.2,5.4-2,1.1-3.1-5.3-4.5,2.6,3.4,5.7Z"/><path class="cls-14" d="M243.4,690.2a7.8,7.8,0,0,1,1.4,4.1,6,6,0,0,1-.9,3.7,9.9,9.9,0,0,1-3.3,3.1l-3.6,2.2-8.1-12.9,4-2.5a8.8,8.8,0,0,1,3.9-1.4,6.3,6.3,0,0,1,3.6.7A8.6,8.6,0,0,1,243.4,690.2Zm-2.2,1.4a9.6,9.6,0,0,0-2.1-2.3,5.3,5.3,0,0,0-2.4-.6,6,6,0,0,0-2.7,1l-1.8,1.2,5.8,9.3,1.5-.9a5.6,5.6,0,0,0,2.8-3.4A6.2,6.2,0,0,0,241.2,691.6Z"/><path class="cls-14" d="M245.8,679.8a9.4,9.4,0,0,1,3-1.3,3.8,3.8,0,0,1,2.4.2,6.4,6.4,0,0,1,1.9,1.8,3.5,3.5,0,0,1,.6,1.9,3.3,3.3,0,0,1-.2,1.7,6.4,6.4,0,0,1-.8,1.4l7.3,3.4-2.4,1.5-6.4-3.2-2.1,1.3,3.3,5.2-2.1,1.3-8.1-12.9Zm1,1.9-1.4.9,2.6,4.2,1.5-1a3.8,3.8,0,0,0,1.8-1.8,2.6,2.6,0,0,0-.3-2.1,2.2,2.2,0,0,0-1.8-1.1A5.1,5.1,0,0,0,246.8,681.7Z"/><path class="cls-14" d="M263.8,668.5l5.3,8.4a7.2,7.2,0,0,1,.9,2.7,4.6,4.6,0,0,1-.6,2.8,7.2,7.2,0,0,1-2.5,2.4,6,6,0,0,1-4.6,1.1,5.6,5.6,0,0,1-3.5-2.6l-5.2-8.3,2.1-1.4,5.1,8.1c.7,1.1,1.4,1.8,2.3,1.9a3.6,3.6,0,0,0,2.7-.6,4.1,4.1,0,0,0,1.5-1.4,2.6,2.6,0,0,0,.3-1.7,5.2,5.2,0,0,0-.8-1.9l-5.1-8.1Z"/><path class="cls-14" d="M276,669.1l4.8-3,4.1,6.4a10.7,10.7,0,0,1-1.8,1.9,15.3,15.3,0,0,1-2.3,1.7,7.5,7.5,0,0,1-3.8,1.3,5.7,5.7,0,0,1-3.5-1,9.9,9.9,0,0,1-3-3.1,9.6,9.6,0,0,1-1.4-4,6,6,0,0,1,.9-3.7,8.4,8.4,0,0,1,3.1-3.1,9.1,9.1,0,0,1,2.2-1.1,8.3,8.3,0,0,1,2.1-.6l.4,2.2-1.8.5a5.8,5.8,0,0,0-1.8.8,5,5,0,0,0-2,2.1,4,4,0,0,0-.5,2.6,6.3,6.3,0,0,0,1,2.9,6.7,6.7,0,0,0,2.1,2.3,4.1,4.1,0,0,0,2.4.8,3.8,3.8,0,0,0,2.7-.9,6.2,6.2,0,0,0,1.2-.8l.9-.8-2.1-3.3-2.7,1.7Z"/><path class="cls-14" d="M293.6,663a3.8,3.8,0,0,1,.6,2.3,4.3,4.3,0,0,1-.8,2.3,7.2,7.2,0,0,1-2.2,2l-1.4.7-1.3.6-1.3.2-1.3-2,2.2-.4a13.6,13.6,0,0,0,2.1-1,2.6,2.6,0,0,0,1.2-1.1,1.6,1.6,0,0,0,.5-1.1,1.7,1.7,0,0,0-.4-1.1,1.8,1.8,0,0,0-.9-.8,2.9,2.9,0,0,0-1.4-.1l-2,.3h-1.5a3.5,3.5,0,0,1-1.5-.1,3.5,3.5,0,0,1-1.4-.6,6.8,6.8,0,0,1-1.2-1.2,4.9,4.9,0,0,1-.6-2.2,4.4,4.4,0,0,1,.7-2.2,5.9,5.9,0,0,1,2-1.8l2-1,2.2-.5.4,2.1-1.9.5-1.6.7a2.4,2.4,0,0,0-1,1,1.3,1.3,0,0,0-.4,1,1.9,1.9,0,0,0,.3,1,1.8,1.8,0,0,0,.9.8,2.7,2.7,0,0,0,1.3.1l1.9-.2a10.6,10.6,0,0,1,2.4-.2,3.8,3.8,0,0,1,1.9.4A5.3,5.3,0,0,1,293.6,663Z"/><path class="cls-14" d="M826,524.6l-2-12.8h-.1a4.5,4.5,0,0,1-.1,1.1c-.1.5-.1,1-.2,1.5l-.3,1.6-1.4,7.9-2.2-.4,2.7-14.4,3.3.6,1.9,12.2h.1l6.2-10.7,3.3.6-2.6,14.4-2.3-.4,1.5-8,.3-1.5.3-1.4a8.1,8.1,0,0,1,.3-1.1h-.1L828.1,525Z"/><path class="cls-14" d="M846.6,528.4l-8.2-1.5,2.6-14.4,8.2,1.5-.3,2-5.9-1.1-.7,3.9,5.5,1-.4,2-5.4-1-.9,4.5,5.8,1.1Z"/><path class="cls-14" d="M861.7,531.2l-2.9-.5-4.9-12.9h-.1c-.1.4-.1.8-.2,1.3a126.9,126.9,0,0,0-.4,2.7l-1.4,7.6-2.1-.4,2.6-14.5,2.9.6,5,12.7h.1c0-.3.1-.7.1-1.1s.1-.9.2-1.4a6.8,6.8,0,0,0,.2-1.4l1.4-7.6,2.2.4Z"/><path class="cls-14" d="M870.5,532.8l-2.3-.4,2.2-12.5-4.2-.7.4-2.1,10.8,2-.4,2-4.2-.7Z"/><path class="cls-14" d="M891.1,529.1a8.3,8.3,0,0,1-1,2.9,6.2,6.2,0,0,1-1.7,2.2,5.5,5.5,0,0,1-2.3,1.1,8.1,8.1,0,0,1-3.1,0,7.6,7.6,0,0,1-2.9-1.1,4.7,4.7,0,0,1-1.8-1.9,5.7,5.7,0,0,1-.8-2.6,8.2,8.2,0,0,1,.1-3.1,12.1,12.1,0,0,1,1.4-3.8,6.2,6.2,0,0,1,2.8-2.2,7.2,7.2,0,0,1,3.9-.2,7.5,7.5,0,0,1,3.6,1.6,5.8,5.8,0,0,1,1.8,3A9.4,9.4,0,0,1,891.1,529.1Zm-11-2a9.7,9.7,0,0,0-.1,2.9,4.2,4.2,0,0,0,1.1,2.2,4.5,4.5,0,0,0,2.3,1.1,4.1,4.1,0,0,0,2.5-.2,4,4,0,0,0,1.7-1.7,7.1,7.1,0,0,0,1-2.8,6.8,6.8,0,0,0-.3-4.1,3.7,3.7,0,0,0-2.9-2.1,4.4,4.4,0,0,0-2.6.3,3.3,3.3,0,0,0-1.7,1.6A6.6,6.6,0,0,0,880.1,527.1Z"/><path class="cls-14" d="M899.6,523.2a10.5,10.5,0,0,1,3,1,4.2,4.2,0,0,1,1.6,1.7,5.2,5.2,0,0,1,.1,2.5,3.6,3.6,0,0,1-.7,1.8,4.1,4.1,0,0,1-1.3,1,4.4,4.4,0,0,1-1.5.5l2.9,7.2-2.6-.5-2.5-6.4-2.3-.4-1,5.7-2.4-.4,2.6-14.4Zm-.5,2-1.6-.3-.8,4.7,1.6.3a3.9,3.9,0,0,0,2.5-.2,2.1,2.1,0,0,0,1.1-1.7,2.1,2.1,0,0,0-.5-1.9A4.6,4.6,0,0,0,899.1,525.2Z"/><path class="cls-14" d="M914.9,536.9a4.3,4.3,0,0,1-1.1,2.1,4.3,4.3,0,0,1-2,1.1,9.6,9.6,0,0,1-2.9-.1l-1.5-.3-1.3-.5a4.1,4.1,0,0,1-1.1-.7l.4-2.2,1.9,1.1a12.9,12.9,0,0,0,2.1.7,4.3,4.3,0,0,0,1.6,0l1-.5a1.9,1.9,0,0,0,.5-1,2.5,2.5,0,0,0-.1-1.2l-.9-1-1.6-1.1-1.3-.9a5.2,5.2,0,0,1-1-1.1,8.1,8.1,0,0,1-.6-1.3,4.3,4.3,0,0,1,0-1.6,4.2,4.2,0,0,1,1-2,3.5,3.5,0,0,1,1.9-1,5.7,5.7,0,0,1,2.6,0,6.5,6.5,0,0,1,2.1.6l1.9,1-1.1,1.8a7,7,0,0,0-1.7-.9,4.3,4.3,0,0,0-1.6-.5h-1.3a1.9,1.9,0,0,0-.9.5,1.9,1.9,0,0,0-.5,1,2,2,0,0,0,.1,1.1,3.2,3.2,0,0,0,.8.9,11.1,11.1,0,0,0,1.6,1.1l1.8,1.5a3.3,3.3,0,0,1,1.1,1.5A4.3,4.3,0,0,1,914.9,536.9Z"/><path class="cls-14" d="M200.7,656.2a5.6,5.6,0,0,1,1.9-.7,2.4,2.4,0,0,1,1.5.2,2.6,2.6,0,0,1,1.1,1.2,5.6,5.6,0,0,1,.4,1.2,3.6,3.6,0,0,1-.2,1l-.6.9,4.4,2.4-1.5.9-3.9-2.3-1.3.8,1.8,3.3-1.3.8-4.7-8.4Zm.5,1.2-.9.5,1.5,2.7,1-.5A2.6,2.6,0,0,0,204,659a1.6,1.6,0,0,0-.2-1.3,1.3,1.3,0,0,0-1-.8A4.7,4.7,0,0,0,201.2,657.4Z"/><path class="cls-14" d="M215.2,659.1l-4.8,2.6-4.6-8.3,4.7-2.7.7,1.2-3.4,1.9,1.3,2.2,3.1-1.7.7,1.1-3.2,1.8,1.5,2.6,3.3-1.9Z"/><path class="cls-14" d="M217,658.1l-4.7-8.4,1.4-.7,4,7.2,3.5-2,.7,1.2Z"/><path class="cls-14" d="M228.5,651.7l-2.1-1.9-3.2,1.8.5,2.8-1.5.8-1.5-10.1,1.5-.9,7.8,6.7Zm-3.1-2.9-2.1-1.8-.3-.3-.5-.5-.4-.4c0,.2.1.4.1.6s.1.4.2.6a.7.7,0,0,0,.1.5l.4,2.7Z"/><path class="cls-14" d="M234,648.7l-1.4.7-4-7.2-2.4,1.4-.7-1.2,6.3-3.5.6,1.2-2.4,1.4Z"/><path class="cls-14" d="M237.7,646.6l-4.7-8.4,1.4-.7,4.7,8.3Z"/><path class="cls-14" d="M246.4,636.3a7.3,7.3,0,0,1,.7,1.9,5.4,5.4,0,0,1,0,1.8,3.4,3.4,0,0,1-.7,1.5,5.3,5.3,0,0,1-1.6,1.3,4.7,4.7,0,0,1-1.9.6,3.3,3.3,0,0,1-1.7-.2,6,6,0,0,1-1.5-.9,12.5,12.5,0,0,1-1.2-1.7,8.1,8.1,0,0,1-.8-2.5,3.4,3.4,0,0,1,.5-2.2,4.6,4.6,0,0,1,1.9-1.7,4.7,4.7,0,0,1,2.4-.7,3.7,3.7,0,0,1,2.2.8A5.8,5.8,0,0,1,246.4,636.3Zm-6.4,3.5a4,4,0,0,0,1.2,1.6,3.5,3.5,0,0,0,1.4.6,2.5,2.5,0,0,0,1.6-.4,2.3,2.3,0,0,0,1.2-1.2,2.4,2.4,0,0,0,.2-1.5,4.5,4.5,0,0,0-.7-1.8,5.1,5.1,0,0,0-1.8-2,2.6,2.6,0,0,0-2.4.2,3.4,3.4,0,0,0-1.2,1.2,2.5,2.5,0,0,0-.2,1.5A4.5,4.5,0,0,0,240,639.8Z"/><path class="cls-14" d="M257.5,635.6l-1.7.9-7.8-4.3h-.1l.5.7.4.7a5.6,5.6,0,0,0,.5.8l2.4,4.4-1.2.7-4.7-8.4,1.7-.9,7.8,4.4h0l-.4-.6c-.1-.3-.3-.5-.4-.8a3.5,3.5,0,0,1-.5-.8l-2.4-4.4,1.2-.6Z"/><path class="cls-14" d="M263.2,629.4a2.8,2.8,0,0,1,.4,1.5,3.5,3.5,0,0,1-.6,1.4,4.4,4.4,0,0,1-1.5,1.2l-.9.4a1.6,1.6,0,0,1-.9.3l-.8.2-.7-1.3,1.4-.3,1.4-.5.8-.6.3-.7a1.4,1.4,0,0,0-.2-.7.8.8,0,0,0-.5-.5l-.9-.2h-3.2l-.9-.5a2.8,2.8,0,0,1-.6-.8,2.5,2.5,0,0,1-.4-1.4,3.1,3.1,0,0,1,.6-1.3,3.6,3.6,0,0,1,1.3-1.1l1.3-.5,1.3-.3.2,1.4-1.2.2-1,.4-.7.6a1.1,1.1,0,0,0-.2.6.7.7,0,0,0,.1.6.8.8,0,0,0,.5.5l.8.2h2.8l1.1.4A2,2,0,0,1,263.2,629.4Z"/><path class="cls-14" d="M272.7,627.2l-1.4.7-2.1-3.8-3.8,2.2,2.1,3.8-1.4.7-4.7-8.3,1.4-.8,1.9,3.4,3.9-2.1-1.9-3.4,1.3-.8Z"/><path class="cls-14" d="M274.9,625.9l-4.7-8.3,1.4-.8,4.7,8.4Z"/><path class="cls-14" d="M276.2,614.2a3.9,3.9,0,0,1,2.8-.6,3,3,0,0,1,1.8,1.4,5.6,5.6,0,0,1,.4,1.2,4.5,4.5,0,0,1-.1,1.1,3.7,3.7,0,0,1-.7,1.2,5.7,5.7,0,0,1-1.4,1.1l-.9.5,1.7,3.1-1.3.7-4.7-8.3Zm.6,1.2-1,.6,1.7,2.9.7-.4a4.4,4.4,0,0,0,1-.8.9.9,0,0,0,.4-.8,1.2,1.2,0,0,0-.2-1,1.6,1.6,0,0,0-1.1-.9A3.4,3.4,0,0,0,276.8,615.4Z"/><path class="cls-14" d="M783.9,661.7l-5.3-4.1,7.3-9.4,5.3,4.1-1,1.3-3.8-2.9-2,2.5L788,656l-1,1.3-3.6-2.8-2.3,3,3.8,2.9Z"/><path class="cls-14" d="M797.3,664.4a6.5,6.5,0,0,1-2.6,2.2,5.2,5.2,0,0,1-3,.3,6.6,6.6,0,0,1-3.1-1.6l-2.7-2,7.4-9.4,2.9,2.2a9.6,9.6,0,0,1,2.1,2.5,4.6,4.6,0,0,1,.4,2.8A5.9,5.9,0,0,1,797.3,664.4Zm-1.6-1.2a5.7,5.7,0,0,0,1.1-2.2,3.1,3.1,0,0,0-.2-1.9,4.7,4.7,0,0,0-1.5-1.7l-1.3-1-5.3,6.8,1.1.9a3.8,3.8,0,0,0,6.1-.9Z"/><path class="cls-14" d="M810.3,667.1l-4.7,6.1a4.3,4.3,0,0,1-1.8,1.5,3.3,3.3,0,0,1-2.2.2,6,6,0,0,1-2.5-1.1,5.2,5.2,0,0,1-2-3.1,4.6,4.6,0,0,1,1-3.3l4.7-6.1,1.6,1.2-4.6,6a2.9,2.9,0,0,0-.8,2.1,3.1,3.1,0,0,0,1.2,1.9,3.4,3.4,0,0,0,1.5.7,1.6,1.6,0,0,0,1.3-.3,3.5,3.5,0,0,0,1.2-1l4.6-6Z"/><path class="cls-14" d="M815.8,673.3a3.7,3.7,0,0,0-1.4-.7,3.3,3.3,0,0,0-1.4,0,3.7,3.7,0,0,0-1.4.7,5.7,5.7,0,0,0-1.4,1.3,10.8,10.8,0,0,0-1.1,2.1,3.4,3.4,0,0,0,0,2,3.1,3.1,0,0,0,1.2,1.6,4.6,4.6,0,0,0,1.3.8,3.5,3.5,0,0,0,1.4.6l-1,1.4-1.4-.6-1.5-1a5.4,5.4,0,0,1-1.9-2.4,4.5,4.5,0,0,1-.1-2.8,8.9,8.9,0,0,1,1.5-2.9,15.3,15.3,0,0,1,1.8-1.8,6,6,0,0,1,2.1-.8,4.2,4.2,0,0,1,2.2.1,6.5,6.5,0,0,1,2.2,1.1,13.6,13.6,0,0,1,1.2,1.2l1,1.5-1.6.8a7.5,7.5,0,0,0-.7-1.2A4.7,4.7,0,0,0,815.8,673.3Z"/><path class="cls-14" d="M819.6,689.5l1.1-3.4-3.6-2.8-2.9,1.9-1.7-1.2,10.9-6.8,1.7,1.4-3.8,12.1Zm1.8-5,1.1-3.3a3.9,3.9,0,0,1,.2-.6l.3-.7a2.5,2.5,0,0,0,.2-.7l-.6.5-.6.4-.5.4-2.9,1.9Z"/><path class="cls-14" d="M825.8,694.3l-1.6-1.3,6.3-8.1-2.7-2.1,1-1.3,7,5.5-1,1.3-2.7-2.2Z"/><path class="cls-14" d="M830,697.5l7.3-9.4,1.5,1.2-7.3,9.4Z"/><path class="cls-14" d="M846,702.4a7.7,7.7,0,0,1-1.8,1.8,7.2,7.2,0,0,1-2,.9,5,5,0,0,1-2.1-.1,6.4,6.4,0,0,1-2.3-1.2,5.3,5.3,0,0,1-1.6-1.8,4.2,4.2,0,0,1-.6-2.1,5.8,5.8,0,0,1,.3-2.2,10.5,10.5,0,0,1,1.3-2.2,9.6,9.6,0,0,1,2.5-2.1,4.3,4.3,0,0,1,2.7-.6,5.9,5.9,0,0,1,3,1.4,5.3,5.3,0,0,1,2,2.5,4.4,4.4,0,0,1,.1,2.8A6.7,6.7,0,0,1,846,702.4Zm-7.2-5.6a8.5,8.5,0,0,0-1.1,2.1,2.8,2.8,0,0,0-.1,2,3.2,3.2,0,0,0,1.3,1.6,3.1,3.1,0,0,0,1.9.8,2.5,2.5,0,0,0,1.8-.5,7,7,0,0,0,1.8-1.7,5.5,5.5,0,0,0,1.3-3.1,2.9,2.9,0,0,0-1.3-2.5,3.4,3.4,0,0,0-1.9-.8,2.6,2.6,0,0,0-1.9.5A6.5,6.5,0,0,0,838.8,696.8Z"/><path class="cls-14" d="M852.2,714.8l-1.9-1.5,1.3-11.1h-.1l-.6.8-.6.9a8.6,8.6,0,0,1-.7,1l-3.8,4.9-1.4-1.1,7.3-9.4,1.9,1.5-1.2,11h0l.6-.7.6-.9.7-.9,3.8-5,1.5,1.1Z"/><path class="cls-14" d="M186.3,468.5h-2.5l-.2-6.8-7,.2.2,6.9h-2.5l-.5-15.2h2.5l.2,6.3,7-.2-.2-6.3h2.5Z"/><path class="cls-14" d="M198.9,468.1l-8.6.2-.4-15.2,8.6-.2V455l-6.1.2v4.1l5.8-.2v2.1l-5.7.2v4.8l6.2-.2Z"/><path class="cls-14" d="M211.6,467.7l-1.6-4.2-5.8.2-1.4,4.3h-2.6l5.2-15.4h2.8l6.1,15.1Zm-2.3-6.3-1.6-4.1a3.1,3.1,0,0,0-.2-.8,10.4,10.4,0,0,1-.4-1l-.3-.8a3.7,3.7,0,0,1-.2.9,4.4,4.4,0,0,0-.2,1,4.1,4.1,0,0,0-.2.7l-1.4,4.2Z"/><path class="cls-14" d="M216.3,467.6l-.5-15.3h2.5l.4,13.1,6.5-.2v2.1Z"/><path class="cls-14" d="M233.1,467h-2.5l-.4-13.1-4.4.2V452l11.4-.3v2.1l-4.4.2Z"/><path class="cls-14" d="M251.9,466.5h-2.5l-.2-6.8-7,.2.2,6.9h-2.5l-.5-15.2h2.5l.2,6.3,7-.2-.2-6.3h2.5Z"/><path class="cls-14" d="M177.6,494.3h-2.5l-.5-15.2,8.6-.3V481l-6.1.2V486l5.7-.2v2.1l-5.7.2Z"/><path class="cls-14" d="M186.4,494.1l-.4-15.3h2.5l.4,15.2Z"/><path class="cls-14" d="M198.2,493.7h-2.5l-.4-13.1h-4.4v-2.1l11.4-.3v2.1h-4.5Z"/><path class="cls-14" d="M217.7,493.1h-3.1l-7.8-11.9h-.1c0,.4.1.8.1,1.3s.1.9.1,1.4.1,1,.1,1.5l.2,7.9H205l-.5-15.2h3.1l7.8,11.8h0a5.7,5.7,0,0,0-.1-1.2,6.6,6.6,0,0,0-.1-1.4V486l-.3-8h2.3Z"/><path class="cls-14" d="M230.3,492.7l-8.6.3-.5-15.2,8.6-.3v2.1l-6.1.2v4.1h5.7v2l-5.8.2.2,4.8,6.1-.2Z"/><path class="cls-14" d="M242.2,488.2a4.8,4.8,0,0,1-.6,2.4,4.5,4.5,0,0,1-1.8,1.5,6.7,6.7,0,0,1-3,.6h-1.5l-1.5-.2-1.2-.5v-2.3l2.1.7a9,9,0,0,0,2.3.2,3.5,3.5,0,0,0,1.6-.3,2,2,0,0,0,1-.7,1.6,1.6,0,0,0,.2-1.2,1.5,1.5,0,0,0-.4-1.1,2.4,2.4,0,0,0-1.1-.8l-1.8-.8-1.5-.6-1.2-.9a2.7,2.7,0,0,1-.9-1.2,4.3,4.3,0,0,1-.4-1.7,4,4,0,0,1,.6-2.2,5,5,0,0,1,1.7-1.5,6.7,6.7,0,0,1,2.6-.5,8.7,8.7,0,0,1,2.3.1l2.1.7-.8,2-1.8-.5a5.5,5.5,0,0,0-1.8-.2,2.5,2.5,0,0,0-1.3.3,1.1,1.1,0,0,0-.8.7,1.7,1.7,0,0,0-.3,1,1.5,1.5,0,0,0,.4,1.1,2.1,2.1,0,0,0,1,.8l1.8.8a9,9,0,0,1,2.2,1,4.4,4.4,0,0,1,1.4,1.3A4.2,4.2,0,0,1,242.2,488.2Z"/><path class="cls-14" d="M253.9,487.9a3.1,3.1,0,0,1-.6,2.3,4,4,0,0,1-1.8,1.6,11.4,11.4,0,0,1-2.9.6H247l-1.5-.2-1.2-.4v-2.4a10.3,10.3,0,0,0,2.1.7,9.9,9.9,0,0,0,2.4.3l1.5-.3a2.1,2.1,0,0,0,1-.8,2,2,0,0,0,.3-1.1,2.8,2.8,0,0,0-.4-1.1l-1.2-.9-1.8-.8a5.9,5.9,0,0,1-2.7-1.5,2.7,2.7,0,0,1-.9-1.2,6.2,6.2,0,0,1-.4-1.6,4.4,4.4,0,0,1,.6-2.3,3.9,3.9,0,0,1,1.7-1.4,5.5,5.5,0,0,1,2.6-.6,8.6,8.6,0,0,1,2.3.2l2.1.6-.7,2.1-1.9-.6-1.8-.2a2.8,2.8,0,0,0-1.3.3,1.9,1.9,0,0,0-.8.7,1.9,1.9,0,0,0-.3,1,2.1,2.1,0,0,0,.4,1.2l1,.7,1.8.8a9,9,0,0,1,2.2,1.1,3.5,3.5,0,0,1,1.4,1.3A3.9,3.9,0,0,1,253.9,487.9Z"/><path class="cls-14" d="M696.1,765.7l-15.5,2.8-1.1-2.4,7.2-6.2.6-.5.8-.6.7-.5.5-.4-.6.2-.9.2-.9.2-.8.2-9.3,1.5-1.2-2.5,12.2-10,1,2.3-7.1,5.8-.8.6-.8.6-.8.5-.7.5.8-.2,1-.3,1-.2.8-.2,9.2-1.5,1,2.2-7.1,6.1-.7.6-.8.6-.8.6-.7.4,1.2-.3,1.3-.3,1.2-.3,9.1-1.7Z"/><path class="cls-14" d="M683.2,774.1l13.8-6.4,1.1,2.3-13.8,6.4Z"/><path class="cls-14" d="M693.4,786.2a4.1,4.1,0,0,1-2.4.4,3.6,3.6,0,0,1-2.1-1.1,6.1,6.1,0,0,1-1.7-2.4,4.7,4.7,0,0,1-.6-1.5,10.3,10.3,0,0,1-.4-1.4,6.2,6.2,0,0,1-.1-1.3l2.1-1c.1.7.1,1.4.2,2.2a14.2,14.2,0,0,0,.7,2.2,5.6,5.6,0,0,0,.9,1.4,1.8,1.8,0,0,0,1.1.5,2,2,0,0,0,1.1-.1,2,2,0,0,0,.9-.9,2.5,2.5,0,0,0,.3-1.3,6.7,6.7,0,0,0,0-2v-1.6l.3-1.5a5.7,5.7,0,0,1,.8-1.3,5,5,0,0,1,1.4-1,3.7,3.7,0,0,1,2.3-.3,3.5,3.5,0,0,1,2,1,5.3,5.3,0,0,1,1.5,2.2,9,9,0,0,1,.8,2.1,15,15,0,0,1,.2,2.2h-2.2a11.1,11.1,0,0,0-.2-1.9,8.4,8.4,0,0,0-.5-1.7,2.4,2.4,0,0,0-.8-1.1,1.4,1.4,0,0,0-1-.5,1.2,1.2,0,0,0-1,.2,1.6,1.6,0,0,0-.9.7,2.5,2.5,0,0,0-.3,1.3v2a17.7,17.7,0,0,1-.1,2.4,3.6,3.6,0,0,1-.7,1.8A3.4,3.4,0,0,1,693.4,786.2Z"/><path class="cls-14" d="M703.1,798.6a8.8,8.8,0,0,1-4.3.9,6.4,6.4,0,0,1-3.5-1.4,11.1,11.1,0,0,1-2.6-3.6l-1.8-3.9,13.8-6.4,2,4.3a8.9,8.9,0,0,1,.9,4,6.1,6.1,0,0,1-1.1,3.5A9.3,9.3,0,0,1,703.1,798.6Zm-1.1-2.4a7,7,0,0,0,2.5-1.8,3.5,3.5,0,0,0,.9-2.3,7.4,7.4,0,0,0-.6-2.8l-.9-1.9L693.8,792l.8,1.6a5.9,5.9,0,0,0,3,3.2A6,6,0,0,0,702,796.2Z"/><path class="cls-14" d="M710.1,813.9a13.4,13.4,0,0,1-3.1.9,6.5,6.5,0,0,1-2.8-.2,4.7,4.7,0,0,1-2.4-1.3,9.1,9.1,0,0,1-2.6-5.7,4.9,4.9,0,0,1,.5-2.7,5.1,5.1,0,0,1,1.7-2.2,9.1,9.1,0,0,1,2.7-1.8,10.7,10.7,0,0,1,4.1-1,5.9,5.9,0,0,1,3.4,1,8.5,8.5,0,0,1,3.4,7.2,7.1,7.1,0,0,1-1.5,3.3A10,10,0,0,1,710.1,813.9Zm-4.9-10.6a10.6,10.6,0,0,0-2.6,1.7,4.2,4.2,0,0,0-1.1,2.2,4.1,4.1,0,0,0,.4,2.6,3.8,3.8,0,0,0,1.7,2,3.9,3.9,0,0,0,2.4.5,9.6,9.6,0,0,0,3-.8,7.2,7.2,0,0,0,3.3-2.8,4,4,0,0,0,0-3.7,4.9,4.9,0,0,0-1.7-2,3.9,3.9,0,0,0-2.4-.5A7.1,7.1,0,0,0,705.2,803.3Z"/><path class="cls-14" d="M707.3,826l9.7-9.3h-.1l-1,.5-1.4.8-1.4.7-7.6,3.5-1-2.1,13.8-6.4,1.5,3.2-9.2,8.9h0l12.9-1.2,1.4,3.2-13.8,6.4-1-2.1,7.7-3.6,1.4-.6,1.4-.6,1.1-.4h-.1L708.2,828Z"/><path class="cls-14" d="M226,329.4l-2.3-1,5.9-14,7.9,3.3-.8,2-5.6-2.4-1.9,4.4,5.3,2.2-.8,1.9-5.3-2.2Z"/><path class="cls-14" d="M242.9,336.5l.2-4.5-5.3-2.3-3,3.4-2.5-1.1,11.2-11.9,2.5,1.1-.7,16.3Zm.5-6.7.3-4.4v-.8a4.1,4.1,0,0,0,.1-1.1,2.8,2.8,0,0,0,.1-.9,3.3,3.3,0,0,1-.6.8l-.6.8-.5.6-3,3.2Z"/><path class="cls-14" d="M253.2,340.8l.9-13.4H254l-.4,1.1a12.1,12.1,0,0,1-.5,1.4,11.6,11.6,0,0,1-.6,1.5l-3.2,7.7-2.1-.8,5.9-14.1,3.2,1.4-.8,12.8h.1l8.7-9.5,3.2,1.4-5.9,14-2.2-.9,3.3-7.8.6-1.4.6-1.4.5-1h0l-9.1,10Z"/><path class="cls-14" d="M265.3,345.9l5.9-14.1,2.3,1-5.9,14Z"/><path class="cls-14" d="M271.3,348.4l5.9-14.1,2.3,1-5.1,12.1,6,2.5-.8,1.9Z"/><path class="cls-14" d="M289.2,346.9l6-5,2.5,1-8.3,6.6-2.3,5.5-2.3-1,2.3-5.3L286,338l2.5,1.1Z"/><path class="cls-14" d="M533.7,790v-2.5l15.2.8-.4,8.6h-2.1l.3-6.1-4.8-.3-.3,5.7h-2.1l.3-5.7Z"/><path class="cls-14" d="M533.2,798.9l15.2.7v2.5l-15.2-.7Z"/><path class="cls-14" d="M532.3,818.1V815l12.5-6.9h-4.2l-7.9-.4v-2.2l15.2.7v3.1L535.6,816h4l8,.4v2.3Z"/><path class="cls-14" d="M531.6,831.5l4.3-1.3.3-5.8-4.1-1.7v-2.6l15,6.4-.2,2.7-15.5,4.9Zm6.5-1.8,4.2-1.3.8-.2,1-.3.9-.2-.9-.3-1-.3-.7-.3-4.1-1.6Z"/><path class="cls-14" d="M530.8,848.8v-3l12.5-6.9h-4.2l-7.9-.4v-2.3l15.2.8v3l-12.4,6.9h4l8,.4v2.3Z"/><path class="cls-14" d="M543.6,859.9a5.8,5.8,0,0,0-.3-1.9,4.2,4.2,0,0,0-1.1-1.5,4,4,0,0,0-1.8-1,7.1,7.1,0,0,0-2.3-.5,9.7,9.7,0,0,0-3.1.4,4.8,4.8,0,0,0-2,1.4,4.1,4.1,0,0,0-.8,2.5,11.5,11.5,0,0,0,.1,1.9,14.2,14.2,0,0,0,.4,2h-2.1a7.2,7.2,0,0,1-.4-1.9,15.5,15.5,0,0,1-.1-2.2,8.6,8.6,0,0,1,1.1-3.9,6.2,6.2,0,0,1,2.9-2.1,10.8,10.8,0,0,1,4.1-.5,8.3,8.3,0,0,1,3.2.6,6.1,6.1,0,0,1,2.4,1.5,7.6,7.6,0,0,1,1.5,2.3,7.8,7.8,0,0,1,.4,3.1,8.5,8.5,0,0,1-.4,2.3,7,7,0,0,1-.8,2l-2-1a7.7,7.7,0,0,0,.7-1.6A5.8,5.8,0,0,0,543.6,859.9Z"/><path class="cls-14" d="M529.5,874.9l.4-8.6,15.2.7-.4,8.7h-2.1l.3-6.2-4.1-.2-.3,5.8h-2.1l.3-5.8-4.8-.2-.3,6.1Z"/><path class="cls-14" d="M405.5,250.2,396.9,240h-.1l.5,1.1.6,1.4.6,1.5,3,7.8-2.1.8-5.5-14.2,3.3-1.3,8.3,9.9h.1l-.3-12.9,3.2-1.2L414,247l-2.2.8-3.1-7.9a12.1,12.1,0,0,0-.5-1.4c-.2-.5-.3-1-.5-1.4a5.3,5.3,0,0,0-.3-1.1h-.1l.3,13.5Z"/><path class="cls-14" d="M417.7,245.5l-5.4-14.2,2.3-.9,5.5,14.2Z"/><path class="cls-14" d="M435.7,238.6l-2.9,1.1-11.3-8.6h-.1l.5,1.2.6,1.3.6,1.4,2.8,7.4-2.1.8L418.3,229l2.9-1.1,11.3,8.6h0c-.1-.4-.3-.7-.4-1.1l-.6-1.4-.6-1.3-2.8-7.4,2.1-.9Z"/><path class="cls-14" d="M448.1,225.5a8,8,0,0,1,.7,4.4,6.5,6.5,0,0,1-1.7,3.4,9.6,9.6,0,0,1-3.8,2.4l-3.9,1.5L433.9,223l4.4-1.7a10.4,10.4,0,0,1,4.1-.7,6.9,6.9,0,0,1,3.4,1.4A7.4,7.4,0,0,1,448.1,225.5Zm-2.4,1a7.2,7.2,0,0,0-1.6-2.6,4.1,4.1,0,0,0-2.3-1.1,6,6,0,0,0-2.8.5l-2,.8,4,10.3,1.6-.7a4.8,4.8,0,0,0,3.1-7.2Z"/></svg>