<svg id="Layer_1" data-name="Layer 1" xmlns="http://www.w3.org/2000/svg" viewBox="0 0 1080 1080"><defs><style>.cls-1{opacity:0.62;}.cls-2{fill:#5f368e;}.cls-3{fill:#2d66a9;}.cls-4{opacity:0.78;}.cls-5{fill:#e046a2;}.cls-6{fill:#d94034;}.cls-7{fill:#f29729;}.cls-8{fill:#ca9d21;}.cls-9{fill:#377e2b;}.cls-10{fill:#2d90ae;}.cls-11{opacity:0.59;}</style></defs><g class="cls-1"><path class="cls-2" d="M733.1,845a230.6,230.6,0,0,1-454.3-42.2,393.7,393.7,0,0,0,257,95c7.8,0,15.6-.2,23.4-.7A392.5,392.5,0,0,0,733.1,845Z"/></g><g class="cls-1"><path class="cls-3" d="M278.8,802.8A399.6,399.6,0,0,1,203,715.6a393.5,393.5,0,0,1-60-171.2A230.6,230.6,0,0,0,444.1,887.1,393.6,393.6,0,0,1,278.8,802.8Z"/></g><g class="cls-4"><path class="cls-5" d="M143,544.4a393.5,393.5,0,0,0,60,171.2,230.7,230.7,0,0,1,20-453.8,394,394,0,0,0-82.1,241.1A407.5,407.5,0,0,0,143,544.4Z"/></g><g class="cls-1"><path class="cls-6" d="M482.5,111.7a392.3,392.3,0,0,0-149.1,52.1A394.9,394.9,0,0,0,150.5,416.1a230.6,230.6,0,0,1,332-304.4Z"/></g><g class="cls-1"><path class="cls-7" d="M779.7,192.4a393.1,393.1,0,0,0-243.9-84.3,395.3,395.3,0,0,0-202.4,55.7,230.7,230.7,0,0,1,446.3,28.6Z"/></g><g class="cls-1"><path class="cls-8" d="M970.4,369.8a230.3,230.3,0,0,1-41.3,97.9A395.1,395.1,0,0,0,779.7,192.4h0A395,395,0,0,0,644,123.1,230.7,230.7,0,0,1,970.4,369.8Z"/></g><g class="cls-1"><path class="cls-9" d="M1038.7,552.5A230.8,230.8,0,0,1,832.2,763.8a392.8,392.8,0,0,0,98.4-260.9c0-11.8-.5-23.6-1.5-35.2a392.9,392.9,0,0,0-45.4-151.5,230.7,230.7,0,0,1,155,236.3Z"/></g><g class="cls-1"><path class="cls-10" d="M942.5,722.2A230.5,230.5,0,0,1,559.2,897.1,392.5,392.5,0,0,0,733.1,845,395.8,395.8,0,0,0,914.7,614.4,229.7,229.7,0,0,1,942.5,722.2Z"/></g><g class="cls-4"><circle class="cls-8" cx="1021.1" cy="231.7" r="36.3"/><circle class="cls-9" cx="1036.2" cy="305.4" r="20.5"/><circle class="cls-10" cx="1021.9" cy="360.3" r="12.6"/></g><g class="cls-11"><circle class="cls-2" cx="685" cy="1019.3" r="36.3"/><circle class="cls-3" cx="619" cy="1055.5" r="20.5"/><circle class="cls-5" cx="562.4" cy="1058" r="12.6"/></g><g class="cls-11"><circle class="cls-6" cx="66" cy="243.7" r="36.3"/><circle class="cls-7" cx="86" cy="171.2" r="20.5"/><circle class="cls-8" cx="123.6" cy="128.8" r="12.6"/></g></svg>