<svg id="Layer_1" data-name="Layer 1" xmlns="http://www.w3.org/2000/svg" viewBox="0 0 100 100"><defs><style>.cls-1{fill:#018b2f;}.cls-2{fill:#fff;}</style></defs><path class="cls-1" d="M80.7,98.2,23.8,86.8A150.5,150.5,0,0,0,17,18.2L72.6,1.8A209.8,209.8,0,0,1,80.7,98.2Z"/><path class="cls-2" d="M69.2,61l-2.5-6.2h-.2l1.7,5.4H63.3A3.5,3.5,0,0,0,59.6,62a3.4,3.4,0,0,0,.7,4H58.9c0-2.5,0-5,.1-7.4a7.3,7.3,0,0,0-4.8-7.8l1.4-3.6c3.9,3.3,7.9,3.5,12,.3A7.7,7.7,0,0,1,71,51.8c1.5,3.5,2.9,7,4.3,10.5s-.2,4.1-2.7,4l-10-.2a2.6,2.6,0,1,1,.1-5.2h6.5Z"/><path class="cls-2" d="M62,33.5a7.6,7.6,0,0,1,7.3,5.9,8,8,0,0,1-3.9,8.8,7.7,7.7,0,0,1-9.2-1.5,4.1,4.1,0,0,1-.7-1.5c-.4-1.1-.7-2.2-1-3.3a6.5,6.5,0,0,1-.4-1.9A7.7,7.7,0,0,1,62,33.5Z"/><path class="cls-2" d="M39.5,45.8a7.7,7.7,0,1,1,15.3.3A7.7,7.7,0,0,1,47,53.8,7.9,7.9,0,0,1,39.5,45.8Z"/><path class="cls-2" d="M58.1,66H55.4V64.8c.1-2.4.1-4.8.2-7.2s-.5-1.9-1.9-2l-13.4-.2c-1.4,0-1.9.5-2,1.9s-.1,5.5-.1,8.3H35.5c0-.3-.1-.6-.1-.8.1-2.5.1-5,.2-7.4a6.2,6.2,0,0,1,4.3-6,1.5,1.5,0,0,1,1.1.2c3.8,3.8,8.7,3.8,12.5-.2a6.1,6.1,0,0,1,4.8,5.4C58.4,59.8,58.2,62.9,58.1,66Z"/><path class="cls-2" d="M53.4,68.4,33.8,68c-.3,0-.7.1-.9-.1a.8.8,0,0,1,0-1.6c.2-.2.7-.1,1-.1l38.8.8h1c.3.2.7.6.7.9s-.5.6-.8.8h-.8Z"/><path class="cls-2" d="M30.5,81.3l-1.1-7h-.1v.7a1.9,1.9,0,0,0-.1.8c-.1.3-.1.6-.2.8l-.8,4.4L27,80.6l1.5-7.9,1.8.4,1,6.7h.1l3.4-5.9,1.8.3-1.4,7.9-1.3-.2.8-4.4c.1-.2.1-.5.2-.8a2.4,2.4,0,0,1,.2-.8c0-.2.1-.4.1-.6h0l-3.6,6.2Z"/><path class="cls-2" d="M41.7,83.3l-4.5-.8,1.5-7.9,4.5.8L43,76.5l-3.2-.6-.4,2.2,3,.5-.2,1.1-3-.5-.5,2.4,3.2.6Z"/><path class="cls-2" d="M50,84.8l-1.6-.2-2.7-7.1h0a1.7,1.7,0,0,0-.1.7,2.2,2.2,0,0,0-.1.8,1.7,1.7,0,0,0-.1.7l-.8,4.2-1.2-.3,1.5-7.9,1.5.3,2.8,7h0c0-.2.1-.4.1-.6s.1-.5.1-.8.1-.5.1-.7l.8-4.2,1.2.2Z"/><path class="cls-2" d="M54.8,85.7l-1.3-.2,1.3-6.8-2.3-.4.2-1.1,5.9,1.1-.2,1.1-2.3-.5Z"/><path class="cls-2" d="M66.1,83.7a4.4,4.4,0,0,1-.6,1.6,2.7,2.7,0,0,1-.9,1.2,3.1,3.1,0,0,1-1.3.6,4.8,4.8,0,0,1-1.7,0,3.4,3.4,0,0,1-1.5-.6,3.6,3.6,0,0,1-1.1-1,6.6,6.6,0,0,1-.4-1.5,5,5,0,0,1,.1-1.7,4,4,0,0,1,.8-2A2.6,2.6,0,0,1,61,79.1a3,3,0,0,1,2.1-.1,3.2,3.2,0,0,1,3,2.5A8.1,8.1,0,0,1,66.1,83.7ZM60,82.6a4.3,4.3,0,0,0,0,1.6A2.1,2.1,0,0,0,61.8,86a3.1,3.1,0,0,0,1.4-.1,2.8,2.8,0,0,0,1-.9,5,5,0,0,0,.5-1.6,4,4,0,0,0-.1-2.2,2.1,2.1,0,0,0-1.7-1.1,2.2,2.2,0,0,0-1.4.1,1.6,1.6,0,0,0-.9.9A5.2,5.2,0,0,0,60,82.6Z"/><path class="cls-2" d="M70.7,80.5a6.9,6.9,0,0,1,1.7.5,2.2,2.2,0,0,1,.9,2.3,3,3,0,0,1-.4,1l-.7.6-.8.3L73,89.1l-1.5-.3-1.3-3.5L68.9,85l-.6,3.2L67,88l1.5-7.9Zm-.3,1h-.8L69.1,84H70a2.1,2.1,0,0,0,1.4-.1q.4-.1.6-.9a.9.9,0,0,0-.3-1C71.5,81.8,71,81.7,70.4,81.5Z"/><path class="cls-2" d="M79.1,87.9a2.3,2.3,0,0,1-.6,1.2,2.4,2.4,0,0,1-1.1.6H75.8l-.8-.2-.7-.3-.6-.3.2-1.3,1,.6,1.2.4a1.1,1.1,0,0,0,.8,0,.6.6,0,0,0,.6-.3l.3-.5a1.3,1.3,0,0,0-.1-.6l-.5-.6-.9-.6-.7-.5-.5-.6-.3-.7a1.4,1.4,0,0,1,0-.9,2.2,2.2,0,0,1,.5-1.1,1.9,1.9,0,0,1,1.1-.5,3.3,3.3,0,0,1,1.4,0,2,2,0,0,1,1.1.3,3.3,3.3,0,0,1,1,.6l-.6.9-.9-.5-.9-.3h-.7l-.5.3c-.1.2-.2.3-.2.5a1.1,1.1,0,0,0,0,.6l.5.6.8.6,1,.7a2.4,2.4,0,0,1,.6.9A3.1,3.1,0,0,1,79.1,87.9Z"/></svg>