<svg id="Layer_1" data-name="Layer 1" xmlns="http://www.w3.org/2000/svg" viewBox="0 0 100 100"><defs><style>.cls-1{fill:#026c3b;}.cls-2{fill:#fff;}</style></defs><path class="cls-1" d="M58.1,92.5l-4.5,6.4L10,64.3c.7-.9,1.3-1.9,2-2.9A144.2,144.2,0,0,0,35.3,1.1L90,11.5A199.9,199.9,0,0,1,58.1,92.5Z"/><path class="cls-2" d="M70.9,50.8l-3.7-.2L51,49.8a2.9,2.9,0,0,1-2.2-.9C43.5,43.2,38,37.6,32.6,32a1.7,1.7,0,0,1-.5-1.8c.3-.7,1-.8,1.7-.7,7.9.4,15.8.7,23.6,1.2a2.2,2.2,0,0,1,1.6.7L75.4,48.5c.5.5.9,1,.6,1.8a1.5,1.5,0,0,1-1.7.7c-.8-.2-1.2.1-1.6.9-1.6,3.8-3.3,7.4-5.1,11.1-.1.5-.2.8.1,1.2A2.8,2.8,0,0,1,68,67c-.8,1.7-1.5,3.3-2.3,4.9s-.8,1-1.5.7l-3.3-1.5a1.1,1.1,0,0,1-.6-1.6c.7-1.7,1.5-3.3,2.3-5a2.9,2.9,0,0,1,2.3-1.7.8.8,0,0,0,.7-.4c1.8-3.7,3.5-7.5,5.2-11.2A.8.8,0,0,1,70.9,50.8Z"/><path class="cls-2" d="M66.5,52c-1.3,2.8-2.5,5.6-3.8,8.2a4,4,0,0,1-3.2,2.2c-10.9,1.4-19.7-2.6-25.8-11.8a3.9,3.9,0,0,1-.4-3.9c1.1-2.7,2.4-5.4,3.7-8.2l1.7,1.8,9.8,10.2a2.8,2.8,0,0,0,1.6.6l15.3.8Z"/><path class="cls-2" d="M19.6,64.2,16.8,62l3.9-5,2.8,2.2-.6.7L21,58.4l-1.1,1.3,1.9,1.5-.6.6-1.8-1.4-1.2,1.5,2,1.6Z"/><path class="cls-2" d="M26.7,65.6a5,5,0,0,1-1.4,1.2,2.9,2.9,0,0,1-1.6.1,4,4,0,0,1-1.6-.8L20.7,65l3.8-4.9,1.6,1.1a6.3,6.3,0,0,1,1.1,1.3,2.6,2.6,0,0,1,.2,1.5A3.3,3.3,0,0,1,26.7,65.6Zm-.9-.6a3.4,3.4,0,0,0,.6-1.2,1.7,1.7,0,0,0-.1-1,3.2,3.2,0,0,0-.8-.9l-.7-.5L22,65l.6.4a2.1,2.1,0,0,0,1.7.6A2.6,2.6,0,0,0,25.8,65Z"/><path class="cls-2" d="M33.5,67,31,70.2a2.3,2.3,0,0,1-.9.8,2.5,2.5,0,0,1-1.2.1,3,3,0,0,1-1.3-.6,2.2,2.2,0,0,1-1-1.6,2.2,2.2,0,0,1,.5-1.7L29.6,64l.8.6L28,67.7a1.5,1.5,0,0,0-.4,1.2,1.2,1.2,0,0,0,.6.9c.3.2.5.4.8.4h.6a1.3,1.3,0,0,0,.7-.6l2.4-3.1Z"/><path class="cls-2" d="M36.4,70.3l-.7-.4a1.1,1.1,0,0,0-.8,0l-.7.4a1.6,1.6,0,0,0-.7.7,4.1,4.1,0,0,0-.7,1.1,1.7,1.7,0,0,0,0,1l.7.9.7.4.7.3-.5.7-.8-.3-.7-.5a2.4,2.4,0,0,1-1-1.3,2.6,2.6,0,0,1-.1-1.5,5.5,5.5,0,0,1,.8-1.5,2.8,2.8,0,0,1,1-.9l1-.5h1.2a2.4,2.4,0,0,1,1.1.6l.7.6a3.5,3.5,0,0,1,.5.8l-.8.4a2.1,2.1,0,0,0-.4-.6Z"/><path class="cls-2" d="M38.4,78.8,39,77l-1.9-1.5-1.6,1-.8-.6,5.7-3.6.9.7-2,6.4Zm.9-2.7.6-1.7a1,1,0,0,0,.1-.3c.1-.1.1-.3.2-.4s.1-.2.1-.3l-.3.2-.4.3h-.2l-1.6,1Z"/><path class="cls-2" d="M41.6,81.3l-.8-.7,3.3-4.2-1.4-1.2.5-.6,3.7,2.8-.5.7L44.9,77Z"/><path class="cls-2" d="M43.8,83l3.9-5,.8.7-3.9,4.9Z"/><path class="cls-2" d="M52.3,85.6l-1,.9-1,.5H49.1a3,3,0,0,1-1.1-.6,2.8,2.8,0,0,1-.9-1,2,2,0,0,1-.3-1.1,1.5,1.5,0,0,1,.2-1.1,2.4,2.4,0,0,1,.6-1.1,4.7,4.7,0,0,1,1.3-1.2,4,4,0,0,1,1.5-.3,3.4,3.4,0,0,1,1.5.7A3.2,3.2,0,0,1,53,82.5a2.6,2.6,0,0,1,.1,1.5A7.9,7.9,0,0,1,52.3,85.6Zm-3.8-3a4.1,4.1,0,0,0-.6,1.1,1.7,1.7,0,0,0,0,1,1.5,1.5,0,0,0,.6.9,1.4,1.4,0,0,0,1,.4,1.2,1.2,0,0,0,1-.2l.9-.9a2.5,2.5,0,0,0,.7-1.6,1.7,1.7,0,0,0-.7-1.4,1.4,1.4,0,0,0-1-.4,1.9,1.9,0,0,0-1,.3A2.2,2.2,0,0,0,48.5,82.6Z"/><path class="cls-2" d="M55.5,92.1l-1-.8.7-5.8h-.1c0,.2-.1.3-.3.5l-.3.5-.4.5-2,2.5-.7-.5,3.8-5,1,.8-.6,5.8h0l.3-.4.4-.5.3-.4,2-2.7.8.6Z"/></svg>