<svg id="Layer_1" data-name="Layer 1" xmlns="http://www.w3.org/2000/svg" viewBox="0 0 100 100"><defs><style>.cls-1{fill:#025f6d;}.cls-2{fill:#f8f8f8;}.cls-3{fill:#fff;}</style></defs><path class="cls-1" d="M99.1,36.9A202.1,202.1,0,0,1,23.7,98L.9,46.6A144.5,144.5,0,0,0,55,2Z"/><path class="cls-2" d="M69.6,56.1a9.6,9.6,0,0,1-5.3,3.6l1.2,2.8A20.1,20.1,0,0,0,66.9,65c.5.9.4,1.1-.4,1.5L48,76.8l-1.9,1.1c-.8.4-.9.4-1.4-.5L34.5,59.1,25.8,43.4c-.5-.9-.5-1,.4-1.5L46.5,30.6c.8-.5,1-.4,1.5.4s1.1,2.1,1.7,3.2l3.6-2c1-.5,1.2-.4,1.4.7s.4,1.5.6,2.4l1.7-.9c.7-.4,1-.3,1.2.5a20.4,20.4,0,0,1-.8,11.2,6.9,6.9,0,0,1-.4,1l1-.7a8.5,8.5,0,0,1,4.9-1.9h.4l.5.2a7.5,7.5,0,0,1,6.8,7.2c0,.1.1.2.1.4h0l-1.1,4ZM38.7,57.7a28.6,28.6,0,0,1,7.4,13.4l5.7-3.2L63,61.7c.3-.2.5-.4.5-.6s-.3-1.2-1.1-1.3h-.5a6.4,6.4,0,0,0-5.7.7,2.2,2.2,0,0,0-.6.7c-.3.3-.6.8-.9.8l-2.7.4H50.7a3.1,3.1,0,0,1-2.6-5.1c.1-.1.3-.2.3-.4s1.4-1.5,1.7-2.5a1,1,0,0,1,1-.5,2.5,2.5,0,0,0,1.9-.5,7.1,7.1,0,0,0,3.3-5.3Zm8.2-26-.6.4L27.4,42.5c-.5.3-.5.6-.2,1.1l7.3,13.2.4.6.2-.2.3-1.3A50.7,50.7,0,0,0,35.6,43a1.1,1.1,0,0,1,.7-1.3l11.6-6.5.7-.4Zm8.4,27.8,1.5-.7a6.5,6.5,0,0,1,4.5-.5,5.7,5.7,0,0,0,4.9-.6A6.5,6.5,0,0,0,69.3,51a6.3,6.3,0,0,0-5.2-5.2c-2.7-.6-6.8,1.4-7.2,4.4a5.2,5.2,0,0,1-2.4,3.3l-1.8,1.3.9,1.7h.3l7.4-4.1a2.5,2.5,0,0,0,.4-.7,20.1,20.1,0,0,1,.1-2.5,1.2,1.2,0,0,1,.5-.7c.5,0,.6.3.6.7a19.3,19.3,0,0,1-.1,2.4.9.9,0,0,0,.6.9l1.9,1.2c.4.2.7.4.5.9a.7.7,0,0,1-1,.1l-2-1.2a.9.9,0,0,0-1.1,0l-6.8,3.8-.6.4Zm-19.4-.3.4.8c3,5.3,6,10.7,8.9,16.1.4.6.6.6,1.2.3,6.2-3.5,12.4-7,18.7-10.4l.6-.4L64,62.5l-.8.4L46.6,72.2l-.6.3a2,2,0,0,1-.8-.4c-.2-.1-.1-.4-.2-.6a27.4,27.4,0,0,0-7-12.8l-.7-.3ZM57.1,35.7h-.4c-5.3,3-10.6,6-16,8.9a.9.9,0,0,0-.4.9,23.7,23.7,0,0,1-1.2,9.9.7.7,0,0,0-.1.5c.1,0,.2,0,.2-.1l16.3-9a1.3,1.3,0,0,0,.5-.7,17.8,17.8,0,0,0,1.3-9.7A2.4,2.4,0,0,0,57.1,35.7ZM36.3,57.5l.2.2a8.7,8.7,0,0,0,.9-1.1,22.4,22.4,0,0,0,1.7-11.4,1.1,1.1,0,0,1,.7-1.3L43.2,42l10.4-5.8c.2-.1.5-.3.5-.5s-.3-1.5-.4-2.3l-.4.2L37.2,42.5c-.4.2-.4.5-.4.9a46.2,46.2,0,0,1-.5,13.9Zm16.7.3-1.4-2.4c-.1-.2-.4-.3-.6-.5s0,.5.1.8l2.6,4.6a3.4,3.4,0,0,0,.6.6,2.8,2.8,0,0,0-.1-.9ZM49,58a1.8,1.8,0,0,0-.1,2.3,1.5,1.5,0,0,0,1.7.6Zm1.9.8a17.4,17.4,0,0,0,1,1.9l.5.3c0-.2.1-.4,0-.6l-2.1-3.7c-.1-.2-.3-.2-.4-.3s-.1.4,0,.6A16.2,16.2,0,0,0,50.9,58.8Z"/><path class="cls-2" d="M71.2,46.9a6,6,0,0,1,1.1-.6c.2-.1.5.2.8.2s-.1.7-.3.8a11.3,11.3,0,0,1-2.1,1.2c-.2.1-.6-.1-.8-.2a2.4,2.4,0,0,1,.2-.8A3.9,3.9,0,0,1,71.2,46.9Z"/><path class="cls-2" d="M70.7,52.2a1.1,1.1,0,0,1,1.1-.7h1.9c.3.1.7.3.8.6s-.4.6-.8.6H71.8a.9.9,0,0,1-1.1-.6Z"/><path class="cls-2" d="M63.3,44.4c-.2-.2-.5-.4-.5-.7a8.9,8.9,0,0,1,0-2.3c0-.2.4-.4.6-.7s.5.5.5.7a8.9,8.9,0,0,1,0,2.3l-.6.7Z"/><path class="cls-2" d="M69.6,56.1a.7.7,0,0,1,1.2-.2l1.8,1c.3.2.6.6.3.9a1,1,0,0,1-.9.1,10.6,10.6,0,0,1-2-1.2c-.2-.1-.3-.4-.4-.6Z"/><path class="cls-2" d="M66.9,45.1a.6.6,0,0,1,.1-.4l1.2-2.1c.2-.2.6-.2.8-.3s.3.7.2.9l-1.2,2A.6.6,0,0,1,66.9,45.1Z"/><path class="cls-2" d="M45.9,62.3c.7,1.9,1.4,3.8,2,5.7s.3.8-.3,1-.7-.3-.8-.7a21.2,21.2,0,0,0-5.4-9.7.8.8,0,0,1-.2-1.1.7.7,0,0,1,1,.2C43.5,59.2,44.7,60.8,45.9,62.3Z"/><path class="cls-2" d="M45.3,52.1h-.6a.7.7,0,0,1-.3-.6c0-.1.1-.3.1-.4a12.2,12.2,0,0,0,.8-7.3c0-.1-.1-.2,0-.2l.4-.8c.3.2.6.3.7.6a13.2,13.2,0,0,1-.8,8.3Z"/><path class="cls-2" d="M43.7,44.3c0,.4.1.6.1.8a13,13,0,0,1-.8,7.8c-.2.4-.4.8-.9.6s-.4-.6-.2-1.1a12.1,12.1,0,0,0,.8-7.3c-.1-.2.1-.6.3-.9S43.5,44.3,43.7,44.3Z"/><path class="cls-2" d="M54.3,38.5c0,.3.1.5.1.7a12.3,12.3,0,0,1-.9,7.8c-.1.4-.3.8-.9.6s-.3-.6-.2-1a11.2,11.2,0,0,0,.8-7.4,1.1,1.1,0,0,1,.4-.9C53.7,38.2,54.1,38.5,54.3,38.5Z"/><path class="cls-2" d="M48.9,41.4a3.1,3.1,0,0,0,.2.7,12.6,12.6,0,0,1-.9,7.9c-.1.4-.3.7-.8.5s-.4-.5-.2-.9a12,12,0,0,0,.7-7.5,1.5,1.5,0,0,1,.4-.8Z"/><path class="cls-2" d="M51.6,40a2,2,0,0,0,.1.5,12.8,12.8,0,0,1-.8,8c-.2.4-.4.8-.9.6s-.4-.6-.2-1a12.1,12.1,0,0,0,.8-7.5c-.1-.2.1-.6.3-.8S51.4,39.9,51.6,40Z"/><path class="cls-3" d="M20.1,54.4l-8.2,1.5-.6-1.4,3.8-3.2.4-.3.4-.3.3-.3.3-.2H14.8l-4.9.8-.6-1.3,6.4-5.3.6,1.2-3.8,3.1-.4.3-.5.3-.4.3-.4.3.5-.2h1.5l4.8-.8.6,1.2-3.8,3.2-.4.3-.4.3-.4.3-.4.3.6-.2.7-.2h.7l4.8-.9Z"/><path class="cls-3" d="M13.3,58.8l7.3-3.4.6,1.2L13.8,60Z"/><path class="cls-3" d="M18.7,65.2a2.1,2.1,0,0,1-1.3.3,2.4,2.4,0,0,1-1.1-.6,3,3,0,0,1-.9-1.3l-.3-.8a2.4,2.4,0,0,1-.2-.8,1.5,1.5,0,0,1-.1-.7l1.1-.5c.1.4.1.8.2,1.2a2.7,2.7,0,0,0,.3,1.2l.5.7.6.3h.6a.8.8,0,0,0,.4-.4,1.9,1.9,0,0,0,.2-.8V61a3.1,3.1,0,0,1,.2-.8,2.1,2.1,0,0,1,.4-.6L20,59a2.5,2.5,0,0,1,1.2-.2,2.4,2.4,0,0,1,1.1.6,3.1,3.1,0,0,1,.8,1.1,5.6,5.6,0,0,1,.4,1.2,4.1,4.1,0,0,1,.1,1.1H22.5c0-.4-.1-.7-.1-1l-.3-.9a1.5,1.5,0,0,0-.4-.6l-.5-.3h-.6l-.5.4a1.5,1.5,0,0,0-.1.7,1.7,1.7,0,0,0,0,1,4.9,4.9,0,0,1-.1,1.3,2.9,2.9,0,0,1-.3,1A2,2,0,0,1,18.7,65.2Z"/><path class="cls-3" d="M23.9,71.8a4.2,4.2,0,0,1-2.3.5,2.9,2.9,0,0,1-1.9-.8,5.9,5.9,0,0,1-1.4-1.9l-.9-2,7.3-3.4,1,2.2a3.7,3.7,0,0,1,.5,2.2,2.8,2.8,0,0,1-.6,1.8A4.7,4.7,0,0,1,23.9,71.8Zm-.7-1.2a3.9,3.9,0,0,0,1.4-1,2.1,2.1,0,0,0,.5-1.2,2.8,2.8,0,0,0-.4-1.5l-.5-1-5.3,2.4.4.9a2.8,2.8,0,0,0,1.6,1.6A2.7,2.7,0,0,0,23.2,70.6Z"/><path class="cls-3" d="M27.5,79.9a4.9,4.9,0,0,1-1.6.5,2.6,2.6,0,0,1-1.5-.1,2.1,2.1,0,0,1-1.2-.7,3.9,3.9,0,0,1-1-1.4,4.9,4.9,0,0,1-.5-1.6,3.2,3.2,0,0,1,.3-1.4,2.7,2.7,0,0,1,.9-1.2,5.6,5.6,0,0,1,1.5-1,5.4,5.4,0,0,1,2.1-.5,4.1,4.1,0,0,1,1.9.5,4.5,4.5,0,0,1,1.3,1.7,3.6,3.6,0,0,1,.4,2.2,2.8,2.8,0,0,1-.7,1.7A5.3,5.3,0,0,1,27.5,79.9ZM25,74.3a5.6,5.6,0,0,0-1.4.9,2.3,2.3,0,0,0-.6,1.2,2.4,2.4,0,0,0,.2,1.4,1.8,1.8,0,0,0,.9,1,1.9,1.9,0,0,0,1.3.3,3.7,3.7,0,0,0,1.6-.5,3.5,3.5,0,0,0,1.7-1.4,1.8,1.8,0,0,0,0-2,2.4,2.4,0,0,0-.9-1.1,1.9,1.9,0,0,0-1.3-.2A4.2,4.2,0,0,0,25,74.3Z"/><path class="cls-3" d="M26.1,86.4l5.1-5h0l-.6.3-.7.3-.8.4-4,1.9-.5-1.1,7.3-3.4.8,1.7-4.9,4.7h0l6.8-.7.8,1.7-7.3,3.4-.5-1.1,4-1.9.8-.3.7-.4.6-.2h0l-7.1.6Z"/></svg>