<svg id="Layer_1" data-name="Layer 1" xmlns="http://www.w3.org/2000/svg" viewBox="0 0 100 100"><defs><style>.cls-1{fill:#26005d;}.cls-2{fill:#fff;}</style></defs><path class="cls-1" d="M67.9,99l-2-1.3A199.3,199.3,0,0,1,3.1,29.4L50.7,1A145,145,0,0,0,96.9,51.7Z"/><path class="cls-2" d="M63.7,59.4a2.1,2.1,0,0,0,.5-2,2.1,2.1,0,0,1,.6-1.9l1.8-2c0-.1.1-.1.2-.1H67l.5-.5c.1-.2.1-.3-.1-.4l-1.3-1.2a.3.3,0,0,0-.4,0l-.4.5c-.1.1-.1.1-.1.2s-.1.3-.2.4l-1.7,1.9a1.9,1.9,0,0,1-1.6.8,3,3,0,0,0-1.6.3.8.8,0,0,0-.4.4,5.1,5.1,0,0,1-.9,1.6,4.9,4.9,0,0,1-1.9,1.6,2.7,2.7,0,0,0-.8.7l-1.7,1.8.3,4.7.2.2a3.9,3.9,0,0,0,1,.8A.7.7,0,0,0,57,67l5.1-5.7Zm-5.2,4.9-2.8-2.5,3.8-4.2,2.8,2.5Z"/><path class="cls-2" d="M45.7,41.6c0-.3-.1-.5-.1-.8s-.3-.4-.4-.3a.8.8,0,0,0-.2.4c.1.7.1,1.3.2,1.9l-3.2.3v-1a.3.3,0,0,0-.3-.3c-.2,0-.4.1-.4.3s.1.7.1,1.1a10.9,10.9,0,0,0,.1,1.8c0,.3.1.4.4.4s.3-.1.3-.4a2.2,2.2,0,0,1-.1-.8l3.1-.2a13.4,13.4,0,0,1,.1,2,.3.3,0,0,0,.6,0v-.6l4.6-.2v.3h.1l-.7-12.1c.1,2.6.3,5.2.4,7.8Zm4.7,3h-.3a4.9,4.9,0,0,0-.1-1.2c0-.2,0-.3-.2-.3s-.2.1-.2.3a4.9,4.9,0,0,1,.1,1.2h-1V43.6a.3.3,0,0,0-.1-.2h-.2a.3.3,0,0,0-.1.2v1.2h-.8V43.5a.3.3,0,0,0-.3-.3c-.2.1-.2.2-.2.3a4.5,4.5,0,0,1,.1,1.1v.2H45.9c-.1-.9-.1-1.8-.2-2.8l4.6-.2C50.3,42.7,50.4,43.7,50.4,44.6Z"/><path class="cls-2" d="M51.4,62.1h0l.3,5.9c0,.1.1.2.1.3l-.4-6.3Z"/><path class="cls-2" d="M70.6,61A20.1,20.1,0,0,0,73,47.4a20.7,20.7,0,0,0-5.9-11.3,21.5,21.5,0,0,0-4.8-3.6,20.4,20.4,0,0,0-17.4-1.2A19.5,19.5,0,0,0,37.6,36a20.4,20.4,0,0,0-5.7,18.2,20.1,20.1,0,0,0,6.7,12.1,17.5,17.5,0,0,0,3.9,2.8,20.8,20.8,0,0,0,14,2.2A20.3,20.3,0,0,0,67.7,65,16.4,16.4,0,0,0,70.6,61Zm-6,2.6a17.1,17.1,0,0,1-9.8,4.7h-3a17.8,17.8,0,0,1-17-16.8A17.5,17.5,0,0,1,49.9,33.4l3-.2H54a17.5,17.5,0,0,1,6.7,2.1,16.8,16.8,0,0,1,4,3,17.9,17.9,0,0,1,5,9.5A17.7,17.7,0,0,1,67.5,60,19.9,19.9,0,0,1,64.6,63.6Z"/><path class="cls-2" d="M49.8,47.5a9.3,9.3,0,0,1-4,5.3h.6a6.5,6.5,0,0,1,3.9-.1c.1,0,.3,0,.3.2a.4.4,0,0,1-.2.4,7.1,7.1,0,0,1-3.5.7h-1a4.7,4.7,0,0,1,2.6,2.2,4.9,4.9,0,0,1-3.2-1.6l.3,1.7a2.8,2.8,0,0,1-.9-1l-.3-1.2-.7.8c-.1-.2-.2-.4,0-.6l.5-.5a2.7,2.7,0,0,1-2.4-.9h1.8a4.4,4.4,0,0,1-1.9-3,5.1,5.1,0,0,1,2.4,2.4,8.3,8.3,0,0,1-.2-3.5,5,5,0,0,1,.3-1.3c0-.2.2-.4.3-.6a6.3,6.3,0,0,1,.7,2.6,8.6,8.6,0,0,1-.2,2.8,9.5,9.5,0,0,1,2-2.8A9,9,0,0,1,49.8,47.5Z"/><path class="cls-2" d="M58.6,56.7a5.1,5.1,0,0,0,.9-1.6c.1-.2,0-.3-.1-.5l-1.5-1.3A8.6,8.6,0,0,1,56.5,52c-.4-.3-.5-.3-1-.1l-1.3,1v1.2c.1-.1.2-.2.2-.3l-.2-.2a6.1,6.1,0,0,1,1.6-1.2h.2l2.7,2.5c.1,0,.1.2.1.2a4.5,4.5,0,0,1-1.1,1.7l-2.9-2.7-.6.6.2,3.6h.1a3.9,3.9,0,0,0,2.8-.3A4.9,4.9,0,0,0,58.6,56.7Z"/><path class="cls-2" d="M50.7,64.4a3.1,3.1,0,0,1-.5-1,1,1,0,0,1,.2-1.3l.7-.8v-1l-1.4,1.4a1,1,0,0,1-.5.4h-.8l-.9-.4h-.4c-.1.1,0,.2.1.3l.2.2,2.7,2.4.3.2a.2.2,0,0,0,.3-.1Z"/><path class="cls-2" d="M42.5,56l3.9,3.6a1.3,1.3,0,0,1,.5,1.2h0l-.7.8-.6.2a1.8,1.8,0,0,1-1-.4L37,54.7a1.1,1.1,0,0,1-.2-1.6l.7-.6a.7.7,0,0,1,1,0l3.4,3,.6.5Zm-3.2-2.1-1,1.2,5.3,4.8,1.1-1.2Zm5.8,5.2-1,1.1.2.3,1-1.2Z"/><path class="cls-2" d="M60.2,42.1l2.8-.2h2.3c.1.1.2.1.2.2a.2.2,0,0,1-.2.2H63.7l-3.4.2c-.1.4-.2.5-.6.6h-.9a.3.3,0,0,1-.3.3c-.3,0-.2-.2-.2-.4h-.7v.8a.5.5,0,0,1-.6.6l-3,.2c-.1,0-.2,0-.2-.2s-.1-1.5-.1-2.3,0-.2.2-.2l2.5-.2c.2,0,.2.1.2.3a8.6,8.6,0,0,1,.1,1.6V44h.4l-.2-2.7-3.2.2v-.4h1.1l2.1-.2c.4,0,.6.1.6.6a1.1,1.1,0,0,1,.1.5h.6c.1-.3,0-.5.3-.5s.3.1.3.4h1.2C60.1,41.8,60.2,41.9,60.2,42.1Z"/><path class="cls-2" d="M66.1,44.6a.9.9,0,0,1,.3,1.1.9.9,0,0,1-.9.7l-3.3.3a1,1,0,0,1-1.2-.9,1.2,1.2,0,0,1,1-1.2l2.7-.2h.7A.9.9,0,0,1,66.1,44.6Zm-2.9.2L62,45c-.5.1-.7.4-.6.8s.3.6.7.6h1c.2,0,.3-.1.3-.2S63.3,45.3,63.2,44.8Zm2.6.3c.1-.2,0-.4-.2-.4H64c-.4,0-.4.1-.3.3Z"/><path class="cls-2" d="M61.2,53.2a.8.8,0,0,1-.8.2,6.9,6.9,0,0,1-2.5-1,.9.9,0,0,1-.3-1.1.8.8,0,0,1,1-.6,7.7,7.7,0,0,1,2.5,1A.9.9,0,0,1,61.2,53.2Zm-1.5-1.7h-.2l-.3,1.1h.1Z"/><path class="cls-2" d="M67.4,49.8a2.6,2.6,0,0,1-1.9.8,1.2,1.2,0,0,1-1.1-.8,1.1,1.1,0,0,1,.3-1.2,2.4,2.4,0,0,1,2.3-.7l.5.2a1,1,0,0,1,.1,1.5Zm-1.5-1.5h-.1a.3.3,0,0,1-.1.2l.6,1.5h.2a.3.3,0,0,0,.1-.2v-.2L66,48.4Z"/><path class="cls-2" d="M37.2,52.2a2.1,2.1,0,0,1,1.2-2.4l.7-.2a2.5,2.5,0,0,0,1.8-2.5H41A3.1,3.1,0,0,1,41,49a2.2,2.2,0,0,1-1.8,1.4l-.6.2A2.3,2.3,0,0,0,37.2,52.2Z"/><path class="cls-2" d="M58.1,46.4a1.1,1.1,0,0,1,1.2-.4,1.1,1.1,0,0,1,.8.8,4.9,4.9,0,0,1-.1,1.7,1.3,1.3,0,0,1-1.3.8.9.9,0,0,1-.9-.8,3.1,3.1,0,0,1,.1-1.9C58,46.5,58,46.4,58.1,46.4ZM59.7,48l-1.5-.6a1.2,1.2,0,0,0,.1,1.2.2.2,0,0,0,.2.2.6.6,0,0,0,.8-.1A.8.8,0,0,0,59.7,48Zm.1-.4a.9.9,0,0,1-.1-.5.7.7,0,0,0-1.2-.6.3.3,0,0,0-.3.3c0,.1.2.2.3.3Z"/><path class="cls-2" d="M56.5,46.6a1.2,1.2,0,0,1,.6,1,4.4,4.4,0,0,1-.5,1.5,1,1,0,0,1-1,.4.9.9,0,0,1-1-.7,2,2,0,0,1,.5-2.1A1.1,1.1,0,0,1,56.5,46.6Zm.1,1.3H55.4c-.5,0-.6.1-.5.7a1,1,0,0,0,.6.5.8.8,0,0,0,.7-.2A2.1,2.1,0,0,0,56.6,47.9Zm0-.4c0-.5-.2-.7-.7-.8a1,1,0,0,0-.9,1Z"/><path class="cls-2" d="M63,50a1.4,1.4,0,0,1-2.1.1,1.3,1.3,0,0,1,.1-1.8l1.1-.4a1.2,1.2,0,0,1,1.1.8A1,1,0,0,1,63,50Zm-.7.1a1,1,0,0,0,.6-.9c.1-.4-.3-.8-.7-.9s-.2,0-.2.2Zm-.7-1.6a.8.8,0,0,0-.6,1,.7.7,0,0,0,.9.6Z"/><path class="cls-2" d="M54.8,68.3h-3l-.4-6.6V59.3L49.9,33.4l3-.2L54,53.1V55l.2,3.6v2.8l.3,4.7h0A15.5,15.5,0,0,0,54.8,68.3Z"/><path class="cls-2" d="M54.8,68.3a15.5,15.5,0,0,1-.1-2.2h0Z"/><path class="cls-2" d="M22.4,30.2a5.1,5.1,0,0,1,.7,2.2,2.6,2.6,0,0,1-.5,1.9,5.3,5.3,0,0,1-1.7,1.6L19,37.1l-4.2-6.8L16.9,29a4.4,4.4,0,0,1,2-.7,3.1,3.1,0,0,1,1.9.3A6.1,6.1,0,0,1,22.4,30.2Zm-1.2.8a2.6,2.6,0,0,0-1.1-1.2,2,2,0,0,0-1.3-.4l-1.4.6-.9.6,3.1,4.9.7-.5a2.9,2.9,0,0,0,1.5-1.8A3.2,3.2,0,0,0,21.2,31Z"/><path class="cls-2" d="M23.6,24.8a4.3,4.3,0,0,1,1.6-.7,1.9,1.9,0,0,1,1.3.1,2.9,2.9,0,0,1,1.3,1.9,2.8,2.8,0,0,1-.1.9,3.5,3.5,0,0,1-.5.8L31,29.5l-1.2.8-3.3-1.6-1.1.6L27.1,32l-1.1.7L21.7,26Zm.5,1-.7.4,1.4,2.2.8-.5a1.7,1.7,0,0,0,.9-1,1,1,0,0,0-.2-1,1,1,0,0,0-.9-.6A2.1,2.1,0,0,0,24.1,25.8Z"/><path class="cls-2" d="M33.1,18.9l2.7,4.3a3,3,0,0,1,.5,1.5,3.2,3.2,0,0,1-.3,1.4,4,4,0,0,1-1.3,1.3,3.9,3.9,0,0,1-2.4.6,3.3,3.3,0,0,1-1.9-1.4l-2.7-4.4,1.1-.7,2.7,4.3a1.9,1.9,0,0,0,1.2,1,1.6,1.6,0,0,0,1.4-.4,1.9,1.9,0,0,0,.8-.7,1.4,1.4,0,0,0,.1-.9,1.4,1.4,0,0,0-.4-1L32,19.5Z"/><path class="cls-2" d="M39.5,19.1,42,17.6,44.1,21l-.9.9-1.2.9a3.5,3.5,0,0,1-2,.7,3.2,3.2,0,0,1-1.9-.5,6.5,6.5,0,0,1-1.5-1.7,4.7,4.7,0,0,1-.8-2,3.5,3.5,0,0,1,.5-2,4.1,4.1,0,0,1,1.6-1.6l1.2-.6,1.1-.3.2,1.2-1,.2-.9.4a3.8,3.8,0,0,0-1.1,1.1,2.3,2.3,0,0,0-.2,1.4,3,3,0,0,0,.5,1.5,6.5,6.5,0,0,0,1.1,1.2,2.1,2.1,0,0,0,1.3.5,3,3,0,0,0,1.4-.5c.3-.2.5-.3.6-.5l.5-.4-1.1-1.7-1.4.9Z"/><path class="cls-2" d="M48.6,15.9a2,2,0,0,1,.4,1.3,2.1,2.1,0,0,1-.4,1.1,4.3,4.3,0,0,1-1.2,1.1l-.7.4-.7.3h-.7l-.7-1,1.2-.3,1.1-.5c.3-.2.5-.3.6-.5a.9.9,0,0,0,.3-.6,1.4,1.4,0,0,0-.2-.6,1,1,0,0,0-.5-.4h-.7l-1.1.2h-.8a2.2,2.2,0,0,1-.8,0l-.7-.3-.6-.7a1.7,1.7,0,0,1-.3-1.1,2.7,2.7,0,0,1,.3-1.2,5.3,5.3,0,0,1,1.1-.9l1.1-.5,1.1-.3.2,1.1-1,.3-.9.4-.5.4a1.4,1.4,0,0,0-.2.6,1.7,1.7,0,0,0,.2.5l.4.4h1.7l1.3-.2a2.9,2.9,0,0,1,1,.3A1.6,1.6,0,0,1,48.6,15.9Z"/></svg>