<svg id="Layer_1" data-name="Layer 1" xmlns="http://www.w3.org/2000/svg" viewBox="0 0 100 100"><defs><style>.cls-1{fill:#4c0148;}.cls-2{fill:#fff;}</style></defs><path class="cls-1" d="M87,68.9,37.7,98.3A208.2,208.2,0,0,1,13,4.8L70.3,1.7A151.4,151.4,0,0,0,87,68.9Z"/><path class="cls-2" d="M45,58.7A2.1,2.1,0,0,1,43.7,56l2.4-6.5a1.4,1.4,0,0,0,0-.9c-.1-.4-.5-.5-.9-.5a1.1,1.1,0,0,0-.9.7l-1.1,3-1.5,3.8c0,.2-.1.3-.2.5v.4a1.9,1.9,0,0,1-1.1,1.2,2,2,0,0,1-1.5,0A2.1,2.1,0,0,1,37.5,55l.2-.5h0c.3-.6.5-1.3.8-1.9s1.3-3.5,1.9-5.2a1,1,0,0,0-.5-1.4,1,1,0,0,0-1.3.7l-1.9,5.1a13.4,13.4,0,0,0-.7,1.8,1.9,1.9,0,0,1-2.9,1.1,2.1,2.1,0,0,1-.9-2.6l2.5-6.7a1.3,1.3,0,0,0,.1-.6,1,1,0,0,0-.7-1,1,1,0,0,0-1.1.7c-.6,1.4-1.1,2.8-1.6,4.2s-.5,1.3-.8,2a2.1,2.1,0,0,1-3.9-.9,1.3,1.3,0,0,1,.1-.6c3.3-8.9,6.5-17.8,9.9-26.7a12.9,12.9,0,0,1,11-8.6,13,13,0,0,1,12.6,5.2,13.1,13.1,0,0,1,2.1,12.2c-.1.1-.1.2-.2.4l-2.7-1.1-8.2-3.1a4.6,4.6,0,0,0-4.8.8A4.6,4.6,0,0,0,48,36.1l7.8,3,.5.2-1.5,1.4a5.6,5.6,0,0,0-2.1,3.1L47.6,57.4A2.2,2.2,0,0,1,45,58.7Z"/><path class="cls-2" d="M57.8,40.5c.6,1.2,1.2,2.3,1.7,3.4a6.1,6.1,0,0,1,.7,1.4.9.9,0,0,0,1.3.4,1,1,0,0,0,.5-1.3l-3.1-6.1-.4-.3-9.7-3.6A2.7,2.7,0,0,1,46.9,32a2.6,2.6,0,0,1,3.5-2.7l6.2,2.3,7.3,2.8a13.3,13.3,0,0,1,7.2,16.5,13.6,13.6,0,0,1-18.2,8.3l-3.5-1.4.9-2.3c1.6-4,3.1-8.1,4.6-12.1.1-.1.1-.3.2-.3Z"/><path class="cls-2" d="M28.8,38.3,27.3,42a17.2,17.2,0,0,1-2.9-1.1,2,2,0,0,1-1-2.5,1.9,1.9,0,0,1,2.4-1.2Z"/><path class="cls-2" d="M33,27l-1.5,3.7-2.5-1a1.9,1.9,0,0,1-1.2-1.1,2,2,0,0,1,.2-2.1,1.8,1.8,0,0,1,2-.7Z"/><path class="cls-2" d="M30.9,32.6l-1.5,3.8c-1-.4-2-.7-3-1.2a2.1,2.1,0,0,1-.8-2.6A2,2,0,0,1,28,31.5Z"/><path class="cls-2" d="M25.1,47.7,23.2,47a2,2,0,0,1,1.5-3.8l1.9.7Z"/><path class="cls-2" d="M36.1,83.7l1.1-.4a1.2,1.2,0,0,1,.8.2,1.7,1.7,0,0,1,.6.6,1.4,1.4,0,0,1,.2.6c0,.2-.1.4-.1.6l-.3.5,2.4,1.3-.9.4-2.1-1.2-.7.4,1,1.9-.8.4-2.5-4.6Zm.3.7-.5.3.8,1.4.6-.3a1.2,1.2,0,0,0,.6-.6.6.6,0,0,0-.1-.7.7.7,0,0,0-.5-.4A1.6,1.6,0,0,0,36.4,84.4Z"/><path class="cls-2" d="M44,85.3l-2.6,1.4-2.5-4.5,2.6-1.4.3.6-1.8,1,.7,1.2,1.7-.9.3.6-1.7,1,.8,1.4,1.8-1Z"/><path class="cls-2" d="M44.9,84.8l-2.5-4.6.8-.4,2.1,3.9,2-1.1.3.7Z"/><path class="cls-2" d="M51.2,81.3l-1.1-1-1.8.9.3,1.5-.8.5L47,77.7l.8-.5L52,80.8Zm-1.7-1.6-1.1-1c-.1,0-.1-.1-.2-.2l-.3-.2-.2-.2c0,.1.1.2.1.3a.4.4,0,0,0,.1.3V79l.3,1.5Z"/><path class="cls-2" d="M54.2,79.6l-.8.4-2.2-3.9-1.3.8-.3-.6L53,74.4l.3.6-1.3.7Z"/><path class="cls-2" d="M56.2,78.5,53.7,74l.7-.4,2.5,4.5Z"/><path class="cls-2" d="M60.9,72.9a4.9,4.9,0,0,1,.4,1.1v.9a3.6,3.6,0,0,1-.4.9l-.8.6a3,3,0,0,1-1.1.4h-.9l-.8-.5-.7-.9a3.7,3.7,0,0,1-.4-1.4,1.7,1.7,0,0,1,.2-1.2,2.5,2.5,0,0,1,1.1-.9,2.2,2.2,0,0,1,1.3-.4,2.8,2.8,0,0,1,1.2.4Zm-3.5,1.9a2.2,2.2,0,0,0,.7.9,1.1,1.1,0,0,0,.7.3,1,1,0,0,0,.9-.2,1.7,1.7,0,0,0,.6-.6,1.3,1.3,0,0,0,.2-.9,3.6,3.6,0,0,0-.4-.9,2.2,2.2,0,0,0-1-1.1,1.2,1.2,0,0,0-1.3.1,1.7,1.7,0,0,0-.6.6,1,1,0,0,0-.1.9A1.6,1.6,0,0,0,57.4,74.8Z"/><path class="cls-2" d="M66.9,72.6l-.9.5-4.3-2.4h0l.3.4c0,.1.1.2.2.4l.3.4,1.3,2.4-.7.4-2.5-4.6.9-.5L65.7,72h0l-.2-.4-.2-.4-.3-.4-1.3-2.4.7-.4Z"/><path class="cls-2" d="M70,69.2a1.2,1.2,0,0,1,.2.8,1.3,1.3,0,0,1-.3.8l-.8.6-.5.3h-.9l-.4-.7H68l.8-.3c.2-.1.3-.3.4-.4a.5.5,0,0,0,.2-.4.4.4,0,0,0-.1-.3q-.1-.3-.3-.3H66.8l-.5-.2-.3-.4a1.3,1.3,0,0,1-.2-.8.9.9,0,0,1,.3-.7l.7-.6.7-.3h.7v.7h-.6l-.6.2-.3.3a.8.8,0,0,0-.2.4.4.4,0,0,0,.1.3q.1.3.3.3h1.9l.6.2A1.2,1.2,0,0,1,70,69.2Z"/><path class="cls-2" d="M75.1,68l-.7.4-1.1-2.1-2.1,1.2,1.1,2-.7.5-2.5-4.6.7-.4,1,1.9,2.1-1.2-1-1.8.7-.5Z"/><path class="cls-2" d="M76.3,67.3l-2.5-4.5.8-.4,2.5,4.5Z"/><path class="cls-2" d="M77.1,61a1.9,1.9,0,0,1,1.5-.4A1.8,1.8,0,0,1,79.7,62a.6.6,0,0,1,0,.6,1.6,1.6,0,0,1-.4.7l-.7.6-.5.2.9,1.7-.7.4-2.5-4.5Zm.3.6-.6.3.9,1.6.4-.2.6-.4c.1-.2.2-.3.2-.5a.9.9,0,0,0-.1-.5c-.2-.3-.4-.5-.6-.5A1.3,1.3,0,0,0,77.4,61.6Z"/></svg>