<svg id="Layer_1" data-name="Layer 1" xmlns="http://www.w3.org/2000/svg" viewBox="0 0 100 100"><defs><style>.cls-1{fill:#b4010e;}.cls-2{fill:#fff;}</style></defs><path class="cls-1" d="M62.8,84.6q-4.3,6.6-8.1,13.5L2,74A216.4,216.4,0,0,1,14.8,52.3,210.5,210.5,0,0,1,62.5,1.9L98,47.7A152.9,152.9,0,0,0,62.8,84.6Z"/><path class="cls-2" d="M61.3,69.8l-2.6-.4a44.7,44.7,0,0,1-8.1-2.5h-.3c.3-.7.6-1.2.8-1.8a5.7,5.7,0,0,0,.8-2.4,5.5,5.5,0,0,0-1.8-5l-.2-.3a4.7,4.7,0,0,0,2.5-7.2h.1a11.7,11.7,0,0,1,2,.5c2.2,1,4.3,1.9,6.4,3a7.9,7.9,0,0,1,3.8,8.2l-.3,1.4Z"/><path class="cls-2" d="M48.1,48.1a4.8,4.8,0,0,0-3.9,6.6,6.2,6.2,0,0,0-3,.3A5.7,5.7,0,0,0,38,57.9l-1.2,2.6h-.4a40.7,40.7,0,0,1-8.8-6.1c-.1-.2-.2-.3-.1-.5.9-1.9,1.8-3.8,2.6-5.7a8.2,8.2,0,0,1,9.2-4.5l1.5.5,5.5,2.6A4.9,4.9,0,0,1,48.1,48.1Z"/><path class="cls-2" d="M43.5,44.9a6.3,6.3,0,0,1-3.1-8.4,6.4,6.4,0,0,1,8.3-3.1,6.3,6.3,0,0,1,3.1,8.4A6.4,6.4,0,0,1,43.5,44.9Z"/><path class="cls-2" d="M57.9,51.5a6.3,6.3,0,0,1,5.3-11.4,6.5,6.5,0,0,1,3.1,8.4A6.4,6.4,0,0,1,57.9,51.5Z"/><path class="cls-2" d="M37,62.1c.7-1.5,1.3-3,2.1-4.4a4.8,4.8,0,0,1,5.8-2,24.9,24.9,0,0,1,4,2,4.7,4.7,0,0,1,1.9,6c-.5,1.2-1.1,2.4-1.7,3.7s-.2.2-.4.2a15.1,15.1,0,0,1-3.6-.6,23.4,23.4,0,0,1-8-4.8Z"/><path class="cls-2" d="M50.2,49.3a3.9,3.9,0,0,1,1.9,5.2,3.9,3.9,0,1,1-1.9-5.2Z"/><path class="cls-2" d="M16.3,74.7l-1.2-.5,3.2-7.7,4.3,1.8-.4,1.1-3.1-1.3-1,2.4L21,71.7l-.5,1.1-2.9-1.3Z"/><path class="cls-2" d="M25.6,78.6V76.1l-2.9-1.2-1.7,1.8-1.3-.5,6.1-6.6,1.4.6-.4,8.9Zm.2-3.7.2-2.4v-.4c0-.2.1-.4.1-.6V71l-.3.4-.4.5c-.1.1-.2.2-.2.3L23.6,74Z"/><path class="cls-2" d="M31.2,80.9l.5-7.3h0l-.3.6a1.6,1.6,0,0,1-.3.8l-.3.8L29.1,80l-1.2-.4,3.2-7.7,1.8.7-.4,7h0l4.8-5.3,1.7.8-3.2,7.7-1.2-.5,1.8-4.3.3-.8.4-.7a1.6,1.6,0,0,1,.3-.6h-.1l-5,5.4Z"/><path class="cls-2" d="M37.8,83.7,41,76l1.3.6-3.2,7.6Z"/><path class="cls-2" d="M41.1,85.1l3.2-7.7,1.3.5-2.8,6.6,3.3,1.4L45.6,87Z"/><path class="cls-2" d="M50.9,84.3l3.3-2.8,1.3.6L51,85.7l-1.2,3-1.3-.5,1.2-3-.5-5.8,1.3.6Z"/></svg>