<svg id="Layer_1" data-name="Layer 1" xmlns="http://www.w3.org/2000/svg" viewBox="0 0 1080 1080"><defs><style>.cls-1{font-size:34.55px;font-family:MyriadPro-Regular, Myriad Pro;}.cls-2{letter-spacing:0em;}.cls-3{letter-spacing:-0.04em;}.cls-4{letter-spacing:-0.04em;}.cls-5{letter-spacing:0em;}.cls-6{stroke:#000;stroke-miterlimit:10;stroke-width:4.39px;}</style></defs><text class="cls-1" transform="translate(427.2 667.4)">Cha<tspan class="cls-2" x="55.9" y="0">r</tspan><tspan x="67.3" y="0">itable</tspan><tspan class="cls-3" x="148.6" y="0"> </tspan><tspan class="cls-4" x="154.5" y="0">T</tspan><tspan class="cls-5" x="170.1" y="0">rust</tspan></text><line class="cls-6" x1="409.7" y1="656.9" x2="320.4" y2="656.9"/><line class="cls-6" x1="759.6" y1="657.6" x2="670.3" y2="657.6"/><path d="M619.8,620.1v-90h8.9v81.1h23v8.9Z"/><path d="M665.8,527.1a4.4,4.4,0,0,1,3.9,1.9,9.2,9.2,0,0,1,1.2,5.1,8.8,8.8,0,0,1-1.3,5.1,4.3,4.3,0,0,1-3.8,1.8,4.5,4.5,0,0,1-3.8-1.8,8.8,8.8,0,0,1-1.4-5.1,8.5,8.5,0,0,1,1.3-5.2A4.7,4.7,0,0,1,665.8,527.1Zm4.2,25.4v67.6h-8.6V552.5Z"/><path d="M704.6,560.5h-9.7v59.6h-8.7V560.5h-7.6v-5.1l7.6-3.2v-4.5a54.6,54.6,0,0,1,1.3-13.1,15.6,15.6,0,0,1,4.2-8.2,12.1,12.1,0,0,1,8.3-2.8,21.6,21.6,0,0,1,4.6.5,28.6,28.6,0,0,1,4.4,1.5l-2.3,7.6a17.1,17.1,0,0,0-3-.9,12.6,12.6,0,0,0-2.7-.4,4.9,4.9,0,0,0-4.8,3.4c-.8,2.2-1.3,6.3-1.3,12.1v5.1h9.7Z"/><path d="M730.9,551.4a14.1,14.1,0,0,1,10.4,4,25.7,25.7,0,0,1,6.1,10.8,54.1,54.1,0,0,1,2,15.1V588H719.9c.1,8.4,1.3,14.7,3.6,19a11.2,11.2,0,0,0,10.4,6.3,21.2,21.2,0,0,0,6.6-1.1,24.1,24.1,0,0,0,6.6-3.6v8.5a22.9,22.9,0,0,1-6.7,3.2,25.5,25.5,0,0,1-7.4,1.1c-5.2,0-9.3-1.5-12.5-4.5a26.4,26.4,0,0,1-7-12.4,69.4,69.4,0,0,1-2.2-17.8,74.6,74.6,0,0,1,2.2-19.2q2.3-7.9,6.6-12A15.3,15.3,0,0,1,730.9,551.4Zm0,7.8c-3.3,0-5.8,1.7-7.7,5.2s-2.9,8.8-3.2,16h21.3a49,49,0,0,0-1.1-10.5,20.2,20.2,0,0,0-3.4-7.8A7,7,0,0,0,730.9,559.2Z"/><path d="M347.3,485.1H340V424.2H326.8v-6.7h33.8v6.7H347.3Z"/><path d="M374.8,413.2v20.9c0,1.3,0,2.6-.1,3.9a19.7,19.7,0,0,1-.4,3.5h.5a15.4,15.4,0,0,1,2.6-4.3,12.9,12.9,0,0,1,3.8-2.8,12.4,12.4,0,0,1,4.7-1,11.8,11.8,0,0,1,7,2,11.4,11.4,0,0,1,4,5.8,28.4,28.4,0,0,1,1.3,9.4v34.5h-7.1V452c0-4.4-.6-7.5-1.6-9.4a5.4,5.4,0,0,0-5.1-2.8,8,8,0,0,0-5.4,2,12.5,12.5,0,0,0-3.1,6.1,44.2,44.2,0,0,0-1.1,10.6v26.6h-7.1V413.2Z"/><path d="M424.3,433.5a12.5,12.5,0,0,1,8.6,3,18.3,18.3,0,0,1,5,8.1,36.7,36.7,0,0,1,1.6,11.3V461H415.3c.1,6.3,1.1,11,3,14.2a9.2,9.2,0,0,0,8.5,4.8,16.5,16.5,0,0,0,5.4-.9,21,21,0,0,0,5.5-2.6v6.3a20.5,20.5,0,0,1-5.5,2.4,20.9,20.9,0,0,1-6.1.8c-4.3,0-7.7-1.1-10.3-3.4a18.9,18.9,0,0,1-5.7-9.3,45.1,45.1,0,0,1-1.8-13.3,49.6,49.6,0,0,1,1.8-14.4q1.8-6,5.4-9A12.8,12.8,0,0,1,424.3,433.5Zm0,5.8c-2.6,0-4.7,1.3-6.2,4s-2.4,6.6-2.7,12h17.5a28,28,0,0,0-1-7.9,14.7,14.7,0,0,0-2.7-5.9A6.4,6.4,0,0,0,424.3,439.3Z"/><path d="M490,449.7h17.1v33a46.5,46.5,0,0,1-8.5,2.5,43.7,43.7,0,0,1-8.8.8c-5.6,0-10.1-1.5-13.7-4.5a27.5,27.5,0,0,1-7.9-12.5,57.6,57.6,0,0,1-2.5-17.8,52.7,52.7,0,0,1,2.8-18,25.8,25.8,0,0,1,8.4-12.2c3.8-3,8.5-4.4,14.2-4.4a26.3,26.3,0,0,1,15.2,4.3l-2.6,6.2a31.9,31.9,0,0,0-6.2-3,22.1,22.1,0,0,0-6.2-.9,15.7,15.7,0,0,0-9.9,3.2,20.9,20.9,0,0,0-6,9.6,52.3,52.3,0,0,0-2,15.4,57.2,57.2,0,0,0,1.7,14.3,22.5,22.5,0,0,0,5.5,10,13.5,13.5,0,0,0,9.8,3.7,43.8,43.8,0,0,0,5.1-.4,29.6,29.6,0,0,0,4.5-1.2V456.3H490Z"/><path d="M532,433.4c4.7,0,8,1.5,10,4.5s3,7.3,3,13v34.2h-5.4l-1-7.2h-.2a17.7,17.7,0,0,1-2.9,4.4,11.4,11.4,0,0,1-3.8,2.8,12.2,12.2,0,0,1-4.9.9,9.7,9.7,0,0,1-6.4-2.1,11.6,11.6,0,0,1-3.7-5.4,22.1,22.1,0,0,1-1.2-7.4c0-5,1.4-8.9,4.3-11.6s7-4.3,12.4-4.6l5.8-.3v-3.5c0-4.1-.6-7.1-1.7-8.9a5.8,5.8,0,0,0-5.4-2.9,14.1,14.1,0,0,0-4.4.8,27.9,27.9,0,0,0-5.1,2.3l-2.3-5.3a21.5,21.5,0,0,1,6.2-2.8A24.6,24.6,0,0,1,532,433.4Zm6.1,26.4-4.8.3c-3.5.2-6.2,1.2-7.9,3s-2.6,4.4-2.6,7.9.5,5.5,1.7,7a5.6,5.6,0,0,0,4.7,2.3,7.2,7.2,0,0,0,6.5-4.1c1.6-2.7,2.4-6.5,2.4-11.2Z"/><path d="M597.1,433.4a10.1,10.1,0,0,1,8.9,4.4c1.9,2.8,2.9,7.2,2.9,13.1v34.2h-7.2v-33c0-4.4-.5-7.6-1.6-9.5a5.6,5.6,0,0,0-4.9-2.9,6.8,6.8,0,0,0-6.6,4.4c-1.4,2.9-2,7-2,12.5v28.5h-7v-33a27.8,27.8,0,0,0-.8-7.3,7.3,7.3,0,0,0-2.2-3.9,5.5,5.5,0,0,0-3.7-1.2,6.2,6.2,0,0,0-5.2,2.4,13.5,13.5,0,0,0-2.6,6.4,53.7,53.7,0,0,0-.7,9.4v27.2h-7.1V434.4H563l.8,7.2h.4a15.4,15.4,0,0,1,2.5-4.4,9.8,9.8,0,0,1,3.6-2.8,12.1,12.1,0,0,1,4.8-1,9.7,9.7,0,0,1,6.9,2.4,11.1,11.1,0,0,1,3.3,6h.5a16.4,16.4,0,0,1,4.4-6.3A10.9,10.9,0,0,1,597.1,433.4Z"/><path d="M635,433.5a12.5,12.5,0,0,1,8.6,3,18.2,18.2,0,0,1,4.9,8.1,36.7,36.7,0,0,1,1.7,11.3V461H626c.1,6.3,1.1,11,2.9,14.2a9.4,9.4,0,0,0,8.6,4.8,17,17,0,0,0,5.4-.9,20.4,20.4,0,0,0,5.4-2.6v6.3a19.2,19.2,0,0,1-5.5,2.4,20,20,0,0,1-6.1.8c-4.2,0-7.6-1.1-10.2-3.4a18.9,18.9,0,0,1-5.7-9.3A45.1,45.1,0,0,1,619,460a49.6,49.6,0,0,1,1.8-14.4q1.8-6,5.4-9A12.8,12.8,0,0,1,635,433.5Zm0,5.8c-2.7,0-4.8,1.3-6.3,4s-2.4,6.6-2.6,12h17.4a32.4,32.4,0,0,0-.9-7.9,14.7,14.7,0,0,0-2.7-5.9A6.4,6.4,0,0,0,635,439.3Z"/><path d="M718.5,451.2a72.8,72.8,0,0,1-1.1,13.6,42.6,42.6,0,0,1-3.6,11.1,19.7,19.7,0,0,1-6.5,7.4,19.3,19.3,0,0,1-19.7,0,20.1,20.1,0,0,1-6.5-7.6,36.2,36.2,0,0,1-3.6-11.1,72.1,72.1,0,0,1-1.2-13.5q0-11.6,2.4-19.2c1.6-5.1,4-8.9,7.1-11.5a17.9,17.9,0,0,1,11.7-3.8c5.1,0,9.1,1.5,12.2,4.6s5.3,7.2,6.7,12.4A68.5,68.5,0,0,1,718.5,451.2Zm-34.5,0a67.7,67.7,0,0,0,1.5,15.5c1.1,4.2,2.6,7.3,4.6,9.4a9.4,9.4,0,0,0,7.3,3.2,9.7,9.7,0,0,0,7.4-3.1c2-2.1,3.5-5.2,4.5-9.4a68.6,68.6,0,0,0,1.5-15.6c0-9.2-1.1-16.2-3.3-20.9s-5.6-7-10-7a9.9,9.9,0,0,0-7.5,3.1c-2,2.1-3.5,5.3-4.5,9.4A67.4,67.4,0,0,0,684,451.2Z"/><path d="M745.4,440.4h-8v44.7h-7.1V440.4H724v-3.9l6.3-2.4v-3.4a39.9,39.9,0,0,1,1-9.8,11,11,0,0,1,3.4-6.1,10.5,10.5,0,0,1,6.9-2.1,21.3,21.3,0,0,1,3.7.3,25.3,25.3,0,0,1,3.6,1.2l-1.8,5.7a13.6,13.6,0,0,0-2.5-.7,8.3,8.3,0,0,0-2.2-.3,4,4,0,0,0-3.9,2.5c-.7,1.7-1.1,4.7-1.1,9.1v3.9h8Z"/><path d="M349,580.2l-21.6-65.3h19l12.2,41.8h.3l12.2-41.8h17.4l-21.6,65.3v48.5H349Z"/><path d="M399.4,622.8c-4.7-5-7-12-7-21.1V541.9c0-9.1,2.3-16.1,7-21.1s11.4-7.5,20.1-7.5,15.5,2.5,20.2,7.5,7,12,7,21.1v59.8c0,9.1-2.3,16.1-7,21.1s-11.4,7.5-20.2,7.5S404,627.8,399.4,622.8Zm29.4-20v-62c0-7.5-3.1-11.3-9.3-11.3s-9.2,3.8-9.2,11.3v62c0,7.5,3.1,11.2,9.2,11.2S428.8,610.3,428.8,602.8Z"/><path d="M464.9,622.9c-4.6-4.9-6.8-12-6.8-21.2V514.9h17.8V603q0,5.8,2.4,8.4c1.6,1.8,3.8,2.6,6.7,2.6s5.2-.8,6.8-2.6,2.3-4.5,2.3-8.4V514.9h17.3v86.8c0,9.2-2.3,16.3-6.9,21.2s-11.1,7.4-19.8,7.4S469.4,627.8,464.9,622.9Z"/><path d="M524,514.9h26.5c9.2,0,15.9,2.2,20.2,6.4s6.3,10.9,6.3,19.8v7c0,11.8-3.9,19.3-11.7,22.4v.3a14.2,14.2,0,0,1,9.2,8c1.8,4,2.7,9.4,2.7,16.1v20q0,4.8.3,7.8a19.1,19.1,0,0,0,1.6,6H560.9a30.3,30.3,0,0,1-1.3-5.2,86.6,86.6,0,0,1-.3-8.8V593.9c0-5.2-.8-8.8-2.5-10.9s-4.6-3.1-8.7-3.1h-6.2v48.8H524Zm24.4,48.8c3.6,0,6.3-.9,8-2.8s2.7-4.9,2.7-9.3v-8.7c0-4.1-.7-7.1-2.2-9s-3.7-2.7-6.9-2.7h-8.1v32.5Z"/></svg>